<?xml version="1.0" encoding="utf-8"?>
<!-- Generator: Adobe Illustrator 25.1.0, SVG Export Plug-In . SVG Version: 6.00 Build 0)  -->
<svg version="1.1" id="Capa_1" xmlns="http://www.w3.org/2000/svg" xmlns:xlink="http://www.w3.org/1999/xlink" x="0px" y="0px"
	 viewBox="0 0 1080 1080" style="enable-background:new 0 0 1080 1080;" xml:space="preserve">
<g>
	<path d="M525.76,426.3c14.12-14.12,33.61-22.85,55.15-22.85c21.54,0,41.04,8.73,55.16,22.85l54.83-54.84
		c-28.15-28.14-67.03-45.55-109.99-45.55c-42.95,0-81.84,17.41-109.98,45.55c-20.97,20.97-35.97,47.89-42.27,78.01h81.1
		C513.66,440.78,519.12,432.94,525.76,426.3z"/>
	<path d="M433.14,530.12c7.69,23.37,20.78,44.3,37.79,61.31l54.83-54.83c-2.04-2.05-3.96-4.22-5.77-6.48H433.14z"/>
	<path d="M580.91,683.06c-55.68,0-106.08-22.56-142.56-59.05c-29.35-29.35-49.7-67.72-56.53-110.59h46.84h81.1h39.18l9.36-9.36
		l22.62-22.61l22.6-22.61l9.38-9.37H509.76h-81.1h-46.84c6.84-42.87,27.18-81.23,56.53-110.59c36.48-36.48,86.88-59.05,142.56-59.05
		c55.68,0,106.08,22.57,142.57,59.05l54.97-54.97c-50.55-50.55-120.4-81.82-197.54-81.82c-77.14,0-146.98,31.27-197.54,81.82
		c-43.46,43.46-72.67,101.19-80.01,165.56c-1.2,10.49-1.81,21.17-1.81,31.98s0.61,21.48,1.81,31.97
		c7.33,64.37,36.55,122.1,80.02,165.57c50.56,50.55,120.4,81.82,197.53,81.82c77.14,0,146.99-31.27,197.54-81.83l-54.97-54.97
		C686.99,660.5,636.59,683.06,580.91,683.06z"/>
</g>
</svg>
