<?xml version="1.0" encoding="utf-8"?>
<!-- Generator: Adobe Illustrator 25.1.0, SVG Export Plug-In . SVG Version: 6.00 Build 0)  -->
<svg version="1.1" id="Capa_1" xmlns="http://www.w3.org/2000/svg" xmlns:xlink="http://www.w3.org/1999/xlink" x="0px" y="0px"
	 viewBox="0 0 1080 1080" style="enable-background:new 0 0 1080 1080;" xml:space="preserve">
<g>
	<path d="M483.82,263.86c55.71-55.71,132.61-90.16,217.6-90.16c84.99,0,161.92,34.44,217.64,90.16l216.33-216.37
		C1024.31-63.54,870.91-132.23,701.41-132.23c-169.46,0-322.9,68.69-433.93,179.72c-82.74,82.74-141.92,188.95-166.78,307.79h319.98
		C436.07,320.99,457.62,290.06,483.82,263.86z"/>
	<path d="M118.37,673.47c30.36,92.22,81.99,174.8,149.11,241.91l216.33-216.33c-8.07-8.08-15.63-16.65-22.77-25.58H118.37z"/>
	<path d="M701.41,1276.91c-219.69,0-418.54-89.01-562.47-232.98C23.14,928.13-57.16,776.74-84.1,607.59h184.81h319.98h154.59
		l36.93-36.93l89.25-89.21l89.17-89.21l37.01-36.97H420.69H100.71H-84.1C-57.12,186.13,23.14,34.78,138.94-81.06
		c143.93-143.93,342.79-232.98,562.47-232.98c219.69,0,418.54,89.05,562.51,232.98l216.89-216.89
		c-199.45-199.45-475.04-322.82-779.4-322.82c-304.36,0-579.91,123.38-779.4,322.82C-249.46-126.47-364.71,101.3-393.67,355.28
		c-4.73,41.39-7.14,83.53-7.14,126.18s2.41,84.75,7.14,126.14c28.92,253.97,144.21,481.75,315.72,653.26
		c199.49,199.45,475.04,322.82,779.36,322.82c304.36,0,579.95-123.38,779.4-322.86l-216.89-216.89
		C1119.95,1187.9,921.1,1276.91,701.41,1276.91z"/>
</g>
</svg>
