<?xml version="1.0" encoding="utf-8"?>
<!-- Generator: Adobe Illustrator 25.1.0, SVG Export Plug-In . SVG Version: 6.00 Build 0)  -->
<svg version="1.1" id="Capa_1" xmlns="http://www.w3.org/2000/svg" xmlns:xlink="http://www.w3.org/1999/xlink" x="0px" y="0px"
	 viewBox="0 0 1080 957.31" style="enable-background:new 0 0 1080 957.31;" xml:space="preserve">
<style type="text/css">
	.st0{fill:none;}
	.st1{fill:#003086;}
</style>
<rect x="-1024.15" y="-746.97" class="st0" width="3981.35" height="3981.35"/>
<g>
	<g>
		<path class="st1" d="M538.13,404.99l17.13,25.99c-45.48,45.87-109.07,74.42-178.77,74.42c-82.49,0-155.73-39.38-201.61-100.41
			c-32.09-42.33-51.19-95.09-51.19-152.39c0-36.42,7.68-70.88,21.46-101.98c7.87-17.92,17.92-34.65,29.53-50.2
			C220.76,39.38,294,0,376.49,0s155.54,39.38,201.8,100.41h-201.8c-44.89,0-85.25,19.29-113.4,50.2
			c-24.22,26.97-38.98,62.81-38.98,101.98c0,84.26,68.12,152.39,152.39,152.39c43.31,0,82.69-18.31,110.25-47.45
			c4.13-4.33,8.07-8.86,11.62-13.78L538.13,404.99z"/>
		<path class="st1" d="M1078.77,100.41l-40.36,50.2L833.65,404.99l-31.11,38.79l-49.81,61.62c0,0-60.64,72.85-87.22,94.9
			c-2.17,1.97-4.33,3.74-6.5,5.32c-77.37,62.22-175.62,99.23-282.53,99.23s-205.35-37.01-282.72-99.23
			C58.13,577.06,27.02,543.2,1.23,505.4h130.93c63.2,61.03,149.43,98.24,244.33,98.24c89.58,0,171.09-33.27,233.5-88.4
			c3.74-2.95,7.28-6.3,10.83-9.84c15.75-15.16,30.12-31.7,43.12-49.61l14.96-18.51l-1.38-2.17l-10.63-16.34l-9.06-13.78
			l-43.51-66.74L505.64,172.27c0-0.2-0.2-0.59-0.39-0.79c-0.59-0.98-0.98-1.77-1.58-2.56c-0.39-0.59-0.79-0.98-1.18-1.58
			c-3.94-5.91-8.47-11.62-13.19-16.73h122.26l111.04,170.3l22.25,34.26l83.87-104.15l80.72-100.41l40.56-50.2H1078.77z"/>
	</g>
	<g>
		<path class="st1" d="M99.71,952.02c-5.83,2.92-17.5,5.83-32.45,5.83c-34.63,0-60.7-21.87-60.7-62.16
			c0-38.46,26.07-64.53,64.16-64.53c15.31,0,24.97,3.28,29.17,5.47l-3.83,12.94c-6.02-2.92-14.58-5.1-24.79-5.1
			c-28.8,0-47.94,18.41-47.94,50.67c0,30.08,17.32,49.4,47.21,49.4c9.66,0,19.5-2.01,25.88-5.1L99.71,952.02z"/>
		<path class="st1" d="M140.17,917.39l-12.76,38.64h-16.41l41.74-122.86h19.14l41.92,122.86h-16.95l-13.12-38.64H140.17z
			 M180.46,904.99l-12.03-35.36c-2.73-8.02-4.56-15.31-6.38-22.42h-0.36c-1.82,7.29-3.83,14.76-6.2,22.24l-12.03,35.54H180.46z"/>
		<path class="st1" d="M231.86,833.17h15.86v109.55h52.5v13.31h-68.36V833.17z"/>
		<path class="st1" d="M309.51,946.73l68.17-99.71v-0.55h-62.34v-13.31h82.94v9.66l-67.81,99.34v0.55h68.72v13.31h-89.68V946.73z"/>
		<path class="st1" d="M438.56,917.39l-12.76,38.64H409.4l41.74-122.86h19.14l41.92,122.86h-16.95l-13.12-38.64H438.56z
			 M478.85,904.99l-12.03-35.36c-2.73-8.02-4.56-15.31-6.38-22.42h-0.36c-1.82,7.29-3.83,14.76-6.2,22.24l-12.03,35.54H478.85z"/>
		<path class="st1" d="M586.39,956.03v-50.31l-38.83-72.55h31.72l12.58,29.53c3.83,8.93,6.38,15.49,9.48,23.51h0.36
			c2.73-7.66,5.65-14.76,9.3-23.51l12.4-29.53h31.17l-40.47,71.64v51.22H586.39z"/>
		<path class="st1" d="M771.77,893.32c0,40.28-24.43,64.71-60.33,64.71c-36.46,0-57.78-27.52-57.78-62.52
			c0-36.82,23.51-64.35,59.79-64.35C751.17,831.17,771.77,859.42,771.77,893.32z M683,894.96c0,24.06,11.3,41.01,29.89,41.01
			c18.78,0,29.53-17.86,29.53-41.74c0-22.06-10.57-41.01-29.71-41.01C693.94,853.22,683,871.09,683,894.96z"/>
		<path class="st1" d="M817.89,833.17v122.86H790V833.17H817.89z"/>
		<path class="st1" d="M841.95,956.03V833.17h32.45l25.52,45.02c7.29,12.94,14.58,28.25,20.05,42.11h0.55
			c-1.82-16.22-2.37-32.81-2.37-51.22v-35.91h25.52v122.86h-29.16l-26.25-47.39c-7.29-13.12-15.31-28.98-21.33-43.38l-0.55,0.18
			c0.73,16.22,1.09,33.54,1.09,53.59v37H841.95z"/>
		<path class="st1" d="M1070.34,950.38c-8.57,2.92-24.79,6.93-41.01,6.93c-22.42,0-38.64-5.65-49.95-16.59
			c-11.3-10.57-17.5-26.61-17.32-44.66c0.18-40.83,29.89-64.16,70.18-64.16c15.86,0,28.07,3.1,34.09,6.02l-5.83,22.24
			c-6.74-2.92-15.13-5.29-28.62-5.29c-23.15,0-40.65,13.12-40.65,39.74c0,25.34,15.86,40.28,38.64,40.28
			c6.38,0,11.48-0.73,13.67-1.82v-25.7h-18.96v-21.69h45.75V950.38z"/>
	</g>
	<path class="st1" d="M1023.35,600.6c28.6,0.04,51.76,23.23,51.72,51.79c-0.05,28.6-23.27,51.78-51.8,51.71
		c-28.62-0.07-51.76-23.26-51.7-51.81C971.63,623.7,994.8,600.56,1023.35,600.6z M1023.3,611.11
		c-22.77,0.01-41.22,18.47-41.23,41.23c-0.01,22.78,18.48,41.26,41.25,41.25c22.77-0.01,41.22-18.47,41.23-41.23
		C1064.56,629.57,1046.08,611.09,1023.3,611.11z"/>
	<path class="st1" d="M1049.52,678.25c-0.21,0-0.36,0-0.5,0c-4.63,0-9.25,0-13.88,0.01c-0.36,0-0.54-0.12-0.69-0.44
		c-2.25-4.58-4.48-9.16-6.78-13.72c-0.56-1.11-1.27-2.16-2-3.17c-1.23-1.7-2.93-2.75-5.01-2.97c-1.99-0.21-4.01-0.2-6.06-0.28
		c0,6.91,0,13.71,0,20.54c-4.66,0-9.28,0-13.93,0c0-18.02,0-36.06,0-54.12c0.14-0.01,0.26-0.02,0.39-0.02
		c7.32,0,14.65-0.02,21.97,0.02c3.55,0.02,7.08,0.38,10.47,1.54c2.33,0.79,4.42,1.96,6.07,3.83c1.65,1.88,2.49,4.13,2.82,6.58
		c0.38,2.79,0.31,5.56-0.55,8.27c-1.1,3.46-3.43,5.84-6.63,7.41c-0.92,0.46-1.9,0.81-2.86,1.21c0.3,0.1,0.62,0.19,0.93,0.31
		c2.54,0.94,4.37,2.73,5.9,4.89c1.52,2.15,2.62,4.54,3.79,6.89c2.12,4.25,4.23,8.51,6.34,12.76
		C1049.37,677.92,1049.43,678.05,1049.52,678.25z M1014.61,648.11c2.37,0,4.69,0.04,7.01-0.02c0.88-0.02,1.77-0.19,2.63-0.4
		c2.1-0.52,3.55-1.77,4.1-3.93c0.44-1.74,0.46-3.5,0.01-5.24c-0.51-1.97-1.74-3.29-3.73-3.78c-1.1-0.27-2.24-0.45-3.36-0.5
		c-2.13-0.08-4.26-0.03-6.39-0.03c-0.08,0-0.17,0.02-0.26,0.03C1014.61,638.88,1014.61,643.49,1014.61,648.11z"/>
</g>
</svg>
