<?xml version="1.0" encoding="utf-8"?>
<!-- Generator: Adobe Illustrator 25.1.0, SVG Export Plug-In . SVG Version: 6.00 Build 0)  -->
<svg version="1.1" id="Capa_1" xmlns="http://www.w3.org/2000/svg" xmlns:xlink="http://www.w3.org/1999/xlink" x="0px" y="0px"
	 viewBox="0 0 1080 1080" style="enable-background:new 0 0 1080 1080;" xml:space="preserve">
<style type="text/css">
	.st0{fill:#707070;}
</style>
<path class="st0" d="M79.82,467.05v24.63h19.34v13.78H79.82v61.99c0,4.78,0.99,8.15,2.97,10.1c1.98,1.95,4.61,2.92,7.88,2.92
	c1.07,0,2.26-0.14,3.59-0.42c1.32-0.28,2.42-0.58,3.3-0.9l2.55,12.74c-1.38,1.13-3.43,2.06-6.13,2.78
	c-2.71,0.72-5.38,1.09-8.02,1.09c-7.55,0-13.56-2.28-18.02-6.84c-4.47-4.56-6.7-11.71-6.7-21.47v-61.99H45.01v-13.78h16.23v-24.63
	H79.82z"/>
<path class="st0" d="M495.83,578.67c-3.15,5.47-7.19,9.69-12.12,12.64c-4.94,2.96-10.65,4.43-17.13,4.43
	c-10.94,0-19.5-3.6-25.66-10.8c-6.17-7.2-9.25-18.38-9.25-33.54v-59.73h22.83v59.92c0,9.75,1.42,16.43,4.25,20.05
	c2.83,3.62,7.23,5.43,13.21,5.43c5.53,0,10.17-0.99,13.92-2.97c3.74-1.98,6.68-4.86,8.82-8.63v-73.79h22.93v102.09h-19.72
	L495.83,578.67z"/>
<path class="st0" d="M562.54,491.67l1.23,13.3c3.33-4.84,7.52-8.59,12.55-11.23c5.03-2.64,10.85-3.96,17.46-3.96
	c6.67,0,12.39,1.51,17.17,4.53c4.78,3.02,8.37,7.55,10.76,13.59c3.15-5.66,7.3-10.1,12.45-13.3c5.16-3.21,11.2-4.81,18.12-4.81
	c10.25,0,18.35,3.57,24.3,10.71c5.94,7.14,8.92,17.94,8.92,32.41v60.86h-22.93v-60.95c0-8.93-1.49-15.21-4.48-18.82
	c-2.99-3.62-7.47-5.43-13.45-5.43c-4.91,0-9.06,1.32-12.45,3.96c-3.4,2.64-5.85,6.2-7.36,10.66c0,0.94,0.03,1.76,0.09,2.45
	c0.06,0.69,0.09,1.35,0.09,1.98v66.14h-22.93v-60.95c0-8.62-1.53-14.81-4.58-18.59c-3.05-3.77-7.53-5.66-13.45-5.66
	c-4.66,0-8.6,0.9-11.84,2.69c-3.24,1.79-5.8,4.33-7.69,7.6v74.92H541.6V491.67H562.54z"/>
<path class="st0" d="M800.22,545.55c0,15.22-3.4,27.4-10.19,36.51c-6.79,9.12-16.61,13.68-29.44,13.68
	c-5.98,0-11.18-1.26-15.62-3.77s-8.19-6.19-11.28-11.04l-2.26,12.83h-23.31V446.57h27.46v55.95c2.96-4.09,6.49-7.23,10.61-9.44
	c4.12-2.2,8.85-3.3,14.2-3.3c12.96,0,22.83,4.89,29.63,14.67c6.79,9.78,10.19,22.82,10.19,39.11V545.55z M772.77,543.57
	c0-9.94-1.46-17.82-4.39-23.64c-2.92-5.82-7.91-8.73-14.96-8.73c-4.28,0-7.9,0.9-10.85,2.69c-0.03,0.02-0.06,0.04-0.09,0.05
	c-4.37,2.69-6.89,7.58-6.89,12.72v32.97c0,5,2.56,9.77,6.94,12.19c0.03,0.02,0.06,0.03,0.09,0.05c2.99,1.64,6.65,2.45,10.99,2.45
	c7.11,0,12.08-2.5,14.91-7.5c2.83-5,4.25-12.09,4.25-21.28V543.57z"/>
<rect x="818.62" y="456.86" class="st0" width="27.55" height="20.66"/>
<rect x="818.62" y="491.67" class="st0" width="27.55" height="102.09"/>
<path class="st0" d="M894.01,491.67l1.23,14.63c3.4-5.22,7.58-9.28,12.55-12.17c4.97-2.89,10.53-4.34,16.7-4.34
	c10.32,0,18.37,3.32,24.15,9.96c5.79,6.64,8.68,17.13,8.68,31.47v62.56h-27.65V531.3c0-7.3-1.27-12.47-3.82-15.52
	c-2.55-3.05-6.37-4.58-11.46-4.58c-4.09,0-7.69,0.77-10.8,2.31c-0.03,0.02-0.06,0.03-0.09,0.05c-4.73,2.37-7.6,7.34-7.6,12.63v67.57
	h-27.55V491.67H894.01z"/>
<path class="st0" d="M198.77,583.74c-0.38-3.39-0.56-6.91-0.56-10.57v-49.16c0-11.07-3.53-19.54-10.57-25.43
	c-7.06-5.89-16.37-8.82-27.95-8.82c-11.69,0-21.23,3.08-28.63,9.24c-7.38,6.18-10.86,12.96-10.43,20.38l0.18,0.58l17.65-0.2
	c0-4.21,1.85-7.83,5.58-10.84c3.71-3.03,8.57-4.54,14.62-4.54c6.66,0,11.83,1.75,15.47,5.24c3.66,3.49,5.47,8.23,5.47,14.21v10.08
	h-20.19c-13.52,0-24.24,2.75-32.14,8.26c-7.89,5.51-11.83,13.13-11.83,22.89c0,9.56,2.77,17.05,8.36,22.49
	c5.56,5.46,13.67,8.18,24.29,8.18c6.41,0,12.41-1.66,17.97-4.95c5.56-3.31,10.08-7.42,13.54-12.32c0.07,2.39,0.27,4.75,0.61,7.13
	c0.34,2.34,0.85,5.08,1.48,8.16h19.14C199.83,590.48,199.15,587.15,198.77,583.74z M179.61,563.09c-1.64,4.47-5.15,8.43-10.57,11.88
	c-5.4,3.46-11.47,5.19-18.2,5.19c-5.55,0-9.72-1.31-12.55-3.96c-2.83-2.65-4.25-6.23-4.25-10.75c0-5.1,2.25-9.54,6.75-13.31
	c4.5-3.78,10.48-5.67,17.97-5.67h20.85V563.09z"/>
<path class="st0" d="M226.7,446.54v147.22h18.6V446.54H226.7z"/>
<path class="st0" d="M383.42,446.54v147.28h22.94V446.54H383.42z"/>
<path class="st0" d="M1006.02,520.21c3.08-5.99,7.99-8.98,14.72-8.98c0.59,0,1.16,0.03,1.71,0.07h29.15
	c7.85,0,14.23-6.38,14.23-14.25v-5.33h-23.68l-0.06,0.34c-0.77,4.74-6.32,6.72-10.09,3.78c-1-0.8-2.06-1.5-3.16-2.13
	c-4.34-2.59-9.37-3.89-15.09-3.89c-12.64,0-22.45,4.94-29.45,14.83c-6.98,9.86-10.48,22.85-10.48,38.95v1.99
	c0,15.09,3.5,27.24,10.48,36.43c6.99,9.18,16.73,13.77,29.25,13.77c5.3,0,9.97-1,14.06-3.02c1.56-0.78,3.06-1.67,4.47-2.69
	c2.57-1.9,6.19-0.02,6.19,3.15c0,3.35-0.45,6.24-1.32,8.68c-0.9,2.47-2.23,4.48-4.01,6.06c-3.34,2.96-8.47,4.54-15.4,4.71
	c-0.4,0.02-0.82,0.02-1.25,0.02c-5.23,0-11.61-0.07-16.89-0.07H295.52v-29.15c3.21,4.03,7.04,7.07,11.51,9.15s9.6,3.12,15.38,3.12
	c12.45,0,22.17-4.56,29.16-13.69c6.98-9.12,10.48-21.09,10.48-35.94v-1.99c0-16.29-3.51-29.42-10.52-39.39
	c-7.01-9.97-16.82-14.96-29.39-14.96c-6.1,0-11.47,1.26-16.09,3.77c-4.63,2.52-8.58,6.17-11.84,10.94l-2.27-12.83h-19.34v120.95
	H49.93c-15.19,0-27.5-12.31-27.5-27.5V456.37H0v134.72c0,24.28,19.68,43.96,43.96,43.96h972.54c0.36,0,0.69,0,1.05-0.02
	c15.04-0.15,26.79-3.78,35.27-10.86c8.67-7.28,13.01-17.55,13.01-30.81v-4.75c0-7.86-6.38-14.24-14.24-14.24h-31.04
	c-6.8,0-11.68-2.56-14.68-7.69c-3-5.13-4.49-12.16-4.49-21.09v-1.99C1001.38,533.98,1002.93,526.18,1006.02,520.21z M295.52,525.89
	c0-5.79,2.99-11.16,7.91-14.2l0.1-0.06c3.34-2.04,7.4-3.06,12.18-3.06c7.8,0,13.66,3.31,17.59,9.95c3.93,6.64,5.9,15.18,5.9,25.62
	v1.99c0,9.37-1.94,16.94-5.8,22.69c-3.87,5.75-9.7,8.63-17.5,8.63c-4.91,0-9.03-0.96-12.37-2.88c-0.03-0.02-0.07-0.04-0.1-0.06
	c-5-2.91-7.91-8.41-7.91-14.19V525.89z M376.29,628.8H58.58c-2.82,0-5.13-2.31-5.13-5.13c0-2.82,2.31-5.13,5.13-5.13h317.71
	c2.82,0,5.13,2.31,5.13,5.13C381.42,626.49,379.11,628.8,376.29,628.8z M1012.32,628.8H694.61c-2.82,0-5.13-2.31-5.13-5.13
	c0-2.82,2.31-5.13,5.13-5.13h317.71c2.82,0,5.13,2.31,5.13,5.13C1017.46,626.49,1015.15,628.8,1012.32,628.8z"/>
<ellipse class="st0" cx="1057.09" cy="540.79" rx="8.74" ry="15.17"/>
<path class="st0" d="M1028.23,477.51L1028.23,477.51l51.77,0v0c0-11.41-9.25-20.65-20.65-20.65h-10.46
	C1037.48,456.86,1028.23,466.11,1028.23,477.51z"/>
</svg>
