<?xml version="1.0" encoding="utf-8"?>
<!-- Generator: Adobe Illustrator 25.1.0, SVG Export Plug-In . SVG Version: 6.00 Build 0)  -->
<svg version="1.1" id="Capa_1" xmlns="http://www.w3.org/2000/svg" xmlns:xlink="http://www.w3.org/1999/xlink" x="0px" y="0px"
	 viewBox="0 0 1283.4 793.7" style="enable-background:new 0 0 1283.4 793.7;" xml:space="preserve">
<style type="text/css">
	.st0{fill:#081E7B;}
	.st1{fill:#069044;}
</style>
<g>
	<path class="st0" d="M108.61,645.9H73.93v143.73H35.4V646.19H0v-34.82h108.61V645.9z"/>
	<path class="st0" d="M220.51,789.63h-88.92V611.36h83.35v34.4h-45.1v36.25h38.68v33.11h-38.68v39.39h50.67V789.63z"/>
	<path class="st0" d="M350.54,786.74c-9.8,4.3-20.69,6.46-32.68,6.46c-21.5,0-39.46-7.85-53.88-23.55
		c-14.41-15.7-21.62-38.58-21.62-68.65c0-31.02,7.14-54.35,21.41-70.01c14.27-15.65,30.92-23.48,49.95-23.48
		c11.42,0,23.6,2.96,36.54,8.88v37.39c-10.09-5.15-16.63-8.07-19.63-8.74c-3-0.67-6.21-1-9.63-1c-10.09,0-18.94,4.19-26.55,12.56
		c-7.61,8.37-11.42,22.79-11.42,43.25c0,21.41,3.69,36.23,11.06,44.46c7.37,8.23,16.53,12.35,27.48,12.35
		c8.94,0,18.6-3.53,28.97-10.6V786.74z"/>
	<path class="st0" d="M499.97,789.63h-40.68l-45.39-112.47h-0.57v112.47h-37.39V611.08h42.11l44.67,110.76h0.71V611.08h36.54V789.63
		z"/>
	<path class="st0" d="M529.66,699.57c0-25.02,2.71-43.39,8.13-55.09c5.42-11.7,12.63-20.79,21.62-27.26
		c8.99-6.47,20.34-9.7,34.04-9.7c11.32,0,20.46,1.88,27.4,5.64c6.94,3.76,13.39,9.23,19.34,16.41c5.95,7.18,10.3,16.08,13.06,26.69
		c2.76,10.61,4.14,24.67,4.14,42.18c0,35.87-5.97,60.64-17.91,74.29c-11.94,13.65-27.38,20.48-46.32,20.48
		c-19.32,0-34.73-7.06-46.24-21.2C535.41,757.87,529.66,733.73,529.66,699.57z M570.33,688.72v11.42c0,18.75,0.62,31.09,1.86,37.04
		c1.24,5.95,3.88,10.63,7.92,14.06c4.04,3.43,8.87,5.14,14.49,5.14c4.57,0,8.75-1.66,12.56-5c3.8-3.33,6.47-8.4,7.99-15.2
		c1.52-6.8,2.28-18.91,2.28-36.32c0-15.6-0.64-26.71-1.93-33.33c-1.28-6.61-3.88-11.96-7.78-16.06c-3.9-4.09-8.66-6.14-14.27-6.14
		c-8.18,0-14.08,3.55-17.7,10.63C572.14,662.06,570.33,673.31,570.33,688.72z"/>
	<path class="st1" d="M675.81,607.8h23.73l22.88,137.41l24.53-137.41h23.34l-38.25,181.83h-19.41L675.81,607.8z"/>
	<path class="st1" d="M860.07,789.63h-65.8V607.8h64.65v20.69h-40.39v57.66h37.39v20.7h-37.39v62.66h41.53V789.63z"/>
	<path class="st1" d="M974.68,789.63h-19.27l-46.39-124.8l-0.57,0.06v124.74h-21.98V607.8h19.55l46.53,124.78l0.57,0.11V607.8h21.55
		V789.63z"/>
	<path class="st1" d="M1080.01,628.49h-27.83v161.14h-24.55V628.49h-27.69V607.8h80.07V628.49z"/>
	<path class="st1" d="M1188.48,789.63h-23.66l-6.65-35.97h-38.49l-6.74,35.97h-23.36l39.25-181.83h20.12L1188.48,789.63z
		 M1154.9,735.25l-15.98-86.27h-0.59l-15.11,86.27H1154.9z"/>
	<path class="st1" d="M1276.69,631.2c-7.99-4.28-15.18-6.42-21.55-6.42c-6.38,0-11.82,2.28-16.34,6.85
		c-4.52,4.57-6.78,10.08-6.78,16.55c0,4.57,1.35,9.44,4.04,14.62c2.69,5.19,8.76,13.48,18.2,24.88
		c9.44,11.4,16.66,21.29,21.65,29.67c5,8.38,7.49,18,7.49,28.85c0,13.52-4.07,24.5-12.2,32.92c-8.14,8.43-18.77,12.64-31.9,12.64
		c-7.23,0-16.08-2.14-26.55-6.42v-21.84c0.29,0.1,0.57,0.24,0.86,0.43c1.43,1.05,4.43,2.64,8.99,4.78
		c4.57,2.14,9.04,3.21,13.42,3.21c7.14,0,13.01-2.38,17.63-7.14c4.61-4.76,6.92-10.85,6.92-18.27c0-5.14-1.18-9.9-3.53-14.27
		c-2.35-4.38-6.61-10.33-12.79-17.86l-16.39-20.16c-6.36-7.82-11.07-14.96-14.11-21.44c-3.05-6.48-4.57-14.19-4.57-23.14
		c0-13.24,3.85-24,11.56-32.28c7.71-8.28,17.7-12.43,29.97-12.43c8.56,0,17.22,2.14,25.98,6.42V631.2z"/>
</g>
<g>
	<path class="st0" d="M755.74,407.41c0,69.16-56.23,125.47-125.39,125.47c-59.89,0-110.09-42.23-122.54-98.46
		c-0.41-1.71-0.73-3.5-0.98-5.29c-0.08-0.41-0.08-0.89-0.08-1.3c0-11.23,9.11-20.42,20.42-20.42c9.68,0,17.82,6.75,19.85,15.79
		c0.24,0.81,0.41,1.71,0.49,2.52c8.38,37.92,42.31,66.48,82.83,66.48c46.71,0,84.7-38.08,84.7-84.79
		c0-31.98-17.82-59.89-44.02-74.37v-44.26C720.26,305.7,755.74,352.49,755.74,407.41z"/>
</g>
<g>
	<polygon class="st0" points="609.84,262.25 609.92,262.33 609.92,308.79 609.84,308.71 	"/>
	<polygon class="st0" points="650.69,0 650.69,85.36 545.56,142.31 545.56,227.02 589.5,251.1 589.5,297.56 504.88,251.02 
		504.88,118.07 610.01,61.11 610.01,0 	"/>
</g>
<path class="st1" d="M650.68,336.7l-0.08-0.08l0.08,53.38v0.57c-0.16,8.3-7.08,15.22-16.27,16.84c-1.3,0.24-2.69,0.41-4.07,0.41
	c-1.38,0-2.77-0.16-4.07-0.41c-9.28-1.63-16.27-8.71-16.27-17.17l-0.08-62.74v-39.95l-0.08-103.5h40.68l0.08,117.01h0.08V336.7z"/>
</svg>
