<?xml version="1.0" encoding="utf-8"?>
<!-- Generator: Adobe Illustrator 25.1.0, SVG Export Plug-In . SVG Version: 6.00 Build 0)  -->
<svg version="1.1" id="Capa_1" xmlns="http://www.w3.org/2000/svg" xmlns:xlink="http://www.w3.org/1999/xlink" x="0px" y="0px"
	 viewBox="0 0 1080 1080" style="enable-background:new 0 0 1080 1080;" xml:space="preserve">
<style type="text/css">
	.st0{fill:#081E7B;}
	.st1{fill:#0D9144;}
	.st2{fill:none;}
</style>
<text transform="matrix(1 0 0 1 -1037.1743 -607.3337)"><tspan x="0" y="0" class="st0" style="font-family:'TwCenMT-CondensedBold'; font-size:719.2274px;">TECNO</tspan><tspan x="1664.27" y="0" class="st1" style="font-family:'TwCenMT-Condensed'; font-size:719.2274px;">VENTAS</tspan></text>
<g>
	<path class="st0" d="M844.47-1547.8c0,170.18-138.34,308.72-308.52,308.72c-147.35,0-270.88-103.91-301.52-242.25
		c-1-4.2-1.8-8.61-2.4-13.01c-0.2-1-0.2-2.2-0.2-3.2c0-27.63,22.42-50.25,50.25-50.25c23.83,0,43.85,16.62,48.85,38.84
		c0.6,2,1,4.2,1.2,6.21c20.62,93.3,104.11,163.57,203.81,163.57c114.92,0,208.42-93.7,208.42-208.62
		c0-78.68-43.85-147.36-108.31-182.99v-108.91C757.18-1798.06,844.47-1682.94,844.47-1547.8z"/>
</g>
<g>
	<polygon class="st0" points="485.5,-1904.97 485.7,-1904.77 485.7,-1790.45 485.5,-1790.65 	"/>
	<polygon class="st0" points="586,-2550.25 586,-2340.23 327.33,-2200.08 327.33,-1991.67 435.44,-1932.4 435.44,-1818.08 
		227.23,-1932.6 227.23,-2259.75 485.9,-2399.89 485.9,-2550.25 	"/>
</g>
<path class="st1" d="M585.98-1721.78l-0.2-0.2l0.2,131.34v1.4c-0.4,20.42-17.42,37.44-40.04,41.44c-3.2,0.6-6.61,1-10.01,1
	c-3.4,0-6.81-0.4-10.01-1c-22.82-4-40.04-21.42-40.04-42.24l-0.2-154.36v-98.3l-0.2-254.67h100.11l0.2,287.9h0.2V-1721.78z"/>
<rect x="-2455.95" y="-4456.95" class="st2" width="6037.91" height="6037.91"/>
</svg>
