<?xml version="1.0" encoding="utf-8"?>
<!-- Generator: Adobe Illustrator 25.1.0, SVG Export Plug-In . SVG Version: 6.00 Build 0)  -->
<svg version="1.1" id="Capa_1" xmlns="http://www.w3.org/2000/svg" xmlns:xlink="http://www.w3.org/1999/xlink" x="0px" y="0px"
	 viewBox="0 0 1063.59 612.12" style="enable-background:new 0 0 1063.59 612.12;" xml:space="preserve">
<style type="text/css">
	.st0{fill:none;}
</style>
<circle cx="532.21" cy="286.35" r="25.39"/>
<polygon points="427.39,90.91 427.39,91.05 427.25,90.91 "/>
<g>
	<path d="M406.87,588.49h11.06c1.84,0,3.36,0.6,4.56,1.8c1.11,1.11,1.66,2.58,1.66,4.42c0,1.48-0.51,2.72-1.52,3.73
		c-0.55,0.55-1.24,0.97-2.07,1.24c1.11,0.37,1.98,0.88,2.63,1.52c1.11,1.11,1.66,2.49,1.66,4.15c0,2.03-0.69,3.73-2.07,5.11
		c-1.11,1.11-2.76,1.66-4.98,1.66h-10.92V588.49z M410.05,591.11v7.33h7.46c0.92,0,1.7-0.32,2.35-0.97c0.74-0.74,1.11-1.7,1.11-2.9
		c0-1.01-0.37-1.89-1.11-2.63c-0.55-0.55-1.24-0.83-2.07-0.83H410.05z M410.05,601.07v8.43h7.05c1.38,0,2.44-0.37,3.18-1.11
		c0.83-0.83,1.24-1.84,1.24-3.04c0-1.29-0.37-2.3-1.11-3.04c-0.83-0.83-1.94-1.24-3.32-1.24H410.05z"/>
	<path d="M440.68,588.49h6.22v3.04h-1.52v17.55h1.52v3.04h-6.22v-3.04h1.52v-17.55h-1.52V588.49z"/>
	<path d="M465.09,590.15c1.29-1.29,3.27-1.93,5.94-1.93c2.85,0,5.02,0.74,6.5,2.21c1.29,1.29,1.94,2.81,1.94,4.56h-3.18
		c0-1.11-0.37-2.03-1.11-2.76c-0.83-0.83-2.12-1.24-3.87-1.24c-1.93,0-3.27,0.37-4.01,1.11c-0.65,0.65-0.97,1.38-0.97,2.21
		s0.18,1.43,0.55,1.8c0.46,0.46,1.29,0.92,2.49,1.38c2.12,0.92,4.51,1.98,7.19,3.18c0.74,0.28,1.43,0.74,2.07,1.38
		c1.01,1.01,1.52,2.21,1.52,3.59c0,1.84-0.65,3.41-1.93,4.7c-1.38,1.38-3.64,2.07-6.77,2.07c-3.04,0-5.39-0.83-7.05-2.49
		c-1.2-1.2-1.8-2.95-1.8-5.25h3.18c0,1.66,0.37,2.86,1.11,3.59c1.01,1.01,2.58,1.52,4.7,1.52c1.93,0,3.36-0.46,4.28-1.38
		c0.74-0.74,1.11-1.47,1.11-2.21c0-0.83-0.28-1.52-0.83-2.07c-0.46-0.46-1.2-0.92-2.21-1.38c-0.92-0.46-2.12-1.01-3.59-1.66
		c-1.66-0.74-3-1.33-4.01-1.8c-0.74-0.28-1.38-0.69-1.93-1.24c-0.83-0.83-1.24-1.94-1.24-3.32
		C463.16,592.96,463.8,591.44,465.09,590.15z"/>
	<path d="M496.69,588.49h3.18v16.59c0,1.29,0.41,2.35,1.24,3.18c1.01,1.01,2.49,1.52,4.42,1.52c1.93,0,3.41-0.51,4.42-1.52
		c0.83-0.83,1.24-1.89,1.24-3.18v-16.59h3.18v16.73c0,2.03-0.65,3.69-1.93,4.98c-1.48,1.48-3.78,2.21-6.91,2.21
		c-3.13,0-5.44-0.74-6.91-2.21c-1.29-1.29-1.93-2.95-1.93-4.98V588.49z"/>
	<path d="M530.23,588.49h18.94v2.63h-7.88v21.01h-3.18v-21.01h-7.88V588.49z"/>
	<path d="M564.86,588.49h15.2v2.63h-12.03v7.33h11.2v2.63h-11.2v8.43h12.72v2.63h-15.9V588.49z"/>
	<path d="M597.84,588.35h11.61c1.84,0,3.36,0.6,4.56,1.8c1.2,1.2,1.8,2.86,1.8,4.98c0,2.12-0.6,3.78-1.8,4.98
		c-0.65,0.65-1.57,1.06-2.76,1.24l5.39,10.64h-3.45l-4.98-10.23h-7.19v10.23h-3.18V588.35z M601.02,590.98v8.16h8.15
		c0.92,0,1.7-0.32,2.35-0.97c0.64-0.64,0.97-1.66,0.97-3.04c0-1.29-0.37-2.3-1.11-3.04c-0.74-0.74-1.61-1.11-2.63-1.11H601.02z"/>
	<path d="M630.69,588.49h6.22v3.04h-1.52v17.55h1.52v3.04h-6.22v-3.04h1.52v-17.55h-1.52V588.49z"/>
	<path d="M650.95,612.12l9.4-23.91h2.76l9.4,23.91h-3.32l-2.9-7.19h-9.12l-2.9,7.19H650.95z M661.73,592.77l-3.59,9.54h7.19
		L661.73,592.77z"/>
</g>
<path d="M115.87,431.32c-2.56,0.14-4.6,0.48-6.14,1.04c-1.54,0.56-2.96,1.49-4.26,2.79c-0.98,0.93-1.72,1.98-2.21,3.12
	c-0.49,1.13-0.83,2.57-1.01,4.33c-0.31,2.33-0.47,5.07-0.47,8.24v49.46c0,4.6,0.27,8.03,0.81,10.26c0.53,2.24,1.5,4.03,2.89,5.37
	c2.46,2.38,5.93,3.67,10.4,3.89v1.54H73v-1.54c2.59-0.14,4.69-0.51,6.27-1.11c1.59-0.61,3.01-1.53,4.26-2.79
	c1.39-1.43,2.34-3.26,2.85-5.47s0.77-5.6,0.77-10.16v-59.99L52.6,521.37h-1.41l-34.35-79.85v58.78c0,4.6,0.26,8.01,0.77,10.2
	c0.52,2.19,1.47,4,2.85,5.43c1.25,1.29,2.67,2.24,4.26,2.82c1.59,0.57,3.66,0.93,6.21,1.07v1.54H0v-1.54
	c2.55-0.14,4.61-0.5,6.21-1.07c1.59-0.58,3.01-1.53,4.26-2.82c1.39-1.43,2.34-3.26,2.85-5.47c0.51-2.21,0.77-5.6,0.77-10.16v-49.46
	c0-2.05-0.07-3.99-0.21-5.83c-0.22-3.31-0.73-5.72-1.54-7.25c-1.12-2.1-2.65-3.66-4.59-4.66c-1.95-1.01-4.53-1.59-7.75-1.78v-1.54
	h29.12l29.05,71.73l30.13-71.73h27.58V431.32z"/>
<path d="M312.1,521.37h-44.08v-1.54c3.98-0.36,6.75-1.03,8.32-2.01c2.77-1.74,4.16-4.15,4.16-7.25c0-1.83-0.63-4.29-1.88-7.37
	l-1.14-2.82l-6.44-15.83h-29.52l-3.49,9.25l-1.68,4.17c-2.01,4.92-3.02,8.79-3.02,11.6c0,1.67,0.37,3.21,1.11,4.64
	c0.74,1.43,1.73,2.59,2.98,3.48c1.75,1.21,3.99,1.93,6.71,2.15v1.54h-30.06v-1.54c2.37-0.14,4.45-0.72,6.24-1.74
	c1.78-1.03,3.53-2.69,5.23-4.97c1.44-1.83,2.83-4.19,4.2-7.08c1.36-2.89,3.16-7.21,5.4-12.98l24.55-63.27h3.82l29.19,70.52
	c2.19,5.32,3.94,9.13,5.24,11.4c1.29,2.29,2.7,4,4.23,5.17c1.07,0.8,2.3,1.42,3.69,1.84c1.39,0.42,3.46,0.8,6.24,1.11V521.37z
	 M269.96,481.79l-14.09-34.76l-13.29,34.76H269.96z"/>
<path d="M408.68,429.78h44.22v1.54c-3.09,0-5.46,0.27-7.11,0.81c-2.69,0.85-4.03,2.46-4.03,4.84c0,2.45,1.83,6.34,5.5,11.66
	L459,465.82l10.27-12.68c4.03-4.96,6.65-8.44,7.85-10.43c1.21-1.99,1.81-3.84,1.81-5.53c0-2.38-1.25-4-3.76-4.9
	c-1.16-0.45-3.2-0.76-6.11-0.95v-1.54h30.8v1.54c-3.4,0-6.04,0.45-7.92,1.34c-2.91,1.34-6.78,5.06-11.61,11.14l-5.1,6.44
	l-14.56,18.04l23.08,34.28c4.07,6.08,7.76,10.5,11.07,13.22c1.7,1.39,3.36,2.38,5,2.96c1.63,0.57,3.81,0.93,6.54,1.07v1.54h-46.63
	v-1.54c3.62-0.4,6.26-1.03,7.92-1.88c2.69-1.34,4.03-3.22,4.03-5.63c0-0.86-0.27-1.84-0.8-2.96s-1.54-2.8-3.01-5.02l-16.38-24.83
	l-15.97,19.46c-2.46,3-4.22,5.5-5.27,7.49c-1.06,1.99-1.58,3.83-1.58,5.53c0,2.41,0.91,4.28,2.72,5.6c1.81,1.32,4.51,2.08,8.08,2.25
	v1.54h-32.61v-1.54c2.46-0.45,4.51-1.08,6.14-1.92c1.64-0.82,3.54-2.26,5.74-4.33c3.22-2.95,7.76-7.98,13.62-15.1l17.44-21.34
	l-20.8-31.19l-3.56-5.17c-2.59-3.81-4.79-6.26-6.57-7.37c-1.61-0.98-4.34-1.64-8.19-1.95c-0.45,0-1.12-0.04-2.01-0.14V429.78z"/>
<path d="M648.73,429.78v1.54c-2.55,0.14-4.62,0.5-6.21,1.08c-1.59,0.57-3.01,1.52-4.26,2.81c-1.75,1.79-2.82,4.28-3.22,7.45
	c-0.27,2.38-0.4,5.1-0.4,8.18v49.46c0,3.71,0.18,6.64,0.53,8.79c0.36,2.14,0.94,3.87,1.75,5.16c1.16,1.79,2.66,3.12,4.5,3.99
	c1.83,0.87,4.27,1.41,7.31,1.58v1.54h-42.87v-1.54c2.59-0.14,4.68-0.51,6.27-1.11c1.59-0.61,2.98-1.53,4.19-2.79
	c1.43-1.43,2.39-3.25,2.89-5.43c0.49-2.19,0.74-5.6,0.74-10.2v-49.46c0-4.6-0.25-8-0.74-10.2c-0.49-2.19-1.45-4-2.89-5.43
	c-1.21-1.29-2.62-2.24-4.23-2.81c-1.61-0.58-3.69-0.95-6.24-1.08v-1.54H648.73z"/>
<path d="M867.37,431.32c-2.56,0.14-4.6,0.48-6.14,1.04c-1.54,0.56-2.96,1.49-4.26,2.79c-0.98,0.93-1.72,1.98-2.21,3.12
	c-0.49,1.13-0.83,2.57-1.01,4.33c-0.31,2.33-0.47,5.07-0.47,8.24v49.46c0,4.6,0.27,8.03,0.81,10.26c0.53,2.24,1.5,4.03,2.89,5.37
	c2.46,2.38,5.93,3.67,10.4,3.89v1.54h-42.88v-1.54c2.59-0.14,4.69-0.51,6.27-1.11c1.59-0.61,3.01-1.53,4.26-2.79
	c1.39-1.43,2.34-3.26,2.85-5.47c0.52-2.21,0.77-5.6,0.77-10.16v-59.99l-34.55,81.06h-1.41l-34.35-79.85v58.78
	c0,4.6,0.26,8.01,0.77,10.2c0.52,2.19,1.47,4,2.85,5.43c1.25,1.29,2.67,2.24,4.26,2.82c1.59,0.57,3.66,0.93,6.21,1.07v1.54h-30.93
	v-1.54c2.55-0.14,4.61-0.5,6.21-1.07c1.59-0.58,3.01-1.53,4.26-2.82c1.39-1.43,2.34-3.26,2.85-5.47c0.51-2.21,0.77-5.6,0.77-10.16
	v-49.46c0-2.05-0.07-3.99-0.21-5.83c-0.22-3.31-0.73-5.72-1.54-7.25c-1.12-2.1-2.65-3.66-4.59-4.66c-1.95-1.01-4.53-1.59-7.75-1.78
	v-1.54h29.12l29.05,71.73l30.13-71.73h27.58V431.32z"/>
<path d="M1063.59,521.37h-44.08v-1.54c3.98-0.36,6.75-1.03,8.32-2.01c2.77-1.74,4.16-4.15,4.16-7.25c0-1.83-0.63-4.29-1.88-7.37
	l-1.14-2.82l-6.44-15.83h-29.52l-3.49,9.25l-1.68,4.17c-2.01,4.92-3.02,8.79-3.02,11.6c0,1.67,0.37,3.21,1.11,4.64
	c0.74,1.43,1.73,2.59,2.98,3.48c1.75,1.21,3.99,1.93,6.71,2.15v1.54h-30.06v-1.54c2.37-0.14,4.45-0.72,6.24-1.74
	c1.78-1.03,3.53-2.69,5.23-4.97c1.44-1.83,2.83-4.19,4.2-7.08c1.36-2.89,3.16-7.21,5.4-12.98l24.55-63.27h3.82l29.19,70.52
	c2.19,5.32,3.94,9.13,5.24,11.4c1.29,2.29,2.7,4,4.23,5.17c1.07,0.8,2.3,1.42,3.69,1.84c1.39,0.42,3.46,0.8,6.24,1.11V521.37z
	 M1021.45,481.79l-14.09-34.76l-13.29,34.76H1021.45z"/>
<path d="M770.14,328.77c-35.65,22.85-80.11,4.82-91.95-32.35l-64.56-156.79L559.12,252.1c-1.65,3.17-5.51,4.27-8.53,2.48
	c-0.28-0.14-0.41-0.28-0.69-0.41c-1.79-0.96-3.58-1.79-5.51-2.34c-0.96-0.41-1.93-0.69-2.89-0.96c-3.03-0.83-6.19-1.24-9.36-1.24
	c-4.82,0-9.36,0.83-13.49,2.62c-1.1,0.41-2.07,0.83-3.03,1.38c-0.41,0.14-0.83,0.27-1.1,0.55c-0.41,0.14-0.69,0.41-0.96,0.55
	c-3.03,1.79-6.75,0.55-8.26-2.62l-55.06-113.56L385.4,296.43c-11.98,37.58-57.13,55.47-92.92,31.94
	c-22.58-15-31.66-43.22-23.4-68.96c10.19-32.07,32.62-12.39,64.7-2.2c-2.2-0.69-4.41-0.96-6.47-0.96c-10.87,0-20.79,8.12-21.75,20.1
	c-0.69,7.98,3.44,15.97,10.32,20.1c12.53,7.43,27.81,0.96,31.94-11.98l68.83-167.39v-3.44c0-4.96-0.27-8.67-0.69-11.01
	c-0.55-2.34-1.65-4.41-3.17-5.92c-1.38-1.38-2.89-2.34-4.54-3.03c-1.79-0.55-3.99-0.96-6.74-1.1v-1.65h25.74l0.14,0.14v-0.14h23.12
	c12.38,0,23.66,7.08,29.06,18.21l42.34,87.43c4.14,8.55,16.32,8.55,20.46,0l42.34-87.43c5.39-11.14,16.68-18.21,29.06-18.21h48.18
	v1.65c-2.75,0.14-4.96,0.55-6.61,1.1c-1.79,0.69-3.3,1.65-4.68,3.03c-1.79,1.93-3.03,4.68-3.44,8.12c-0.27,2.48-0.41,5.51-0.41,8.81
	v3.44l68.83,167.39c4.13,12.94,19.41,19.27,31.94,11.98c6.88-4.13,11.01-12.11,10.32-20.1c-0.96-11.98-10.88-20.1-21.75-20.1
	c-2.07,0-4.27,0.27-6.47,0.96c32.07-10.19,54.51-30.01,64.7,2.06C802.77,285.14,793,314.04,770.14,328.77z"/>
<polygon points="427.39,90.91 427.39,91.05 427.25,90.91 "/>
<path d="M500.97,30.78c32.94,14.67,13.78,60.13,30.78,60.13s0-45.45,30.78-60.13C577.87,23.46,548.75,0,531.75,0
	S485.44,23.86,500.97,30.78z"/>
<path d="M564,52.68c7.44,19.39-18.87,30.1-11.95,37.02s18.51-18.51,37.02-11.95c9.23,3.27,6.92-18.14,0-25.07
	S560.49,43.54,564,52.68z"/>
<path d="M499.46,52.68c-7.44,19.39,18.87,30.1,11.95,37.02c-6.92,6.92-18.51-18.51-37.02-11.95c-9.23,3.27-6.92-18.14,0-25.07
	S502.97,43.54,499.46,52.68z"/>
<rect x="-2689.49" y="-2892.88" class="st0" width="6438.42" height="6438.42"/>
</svg>
