<?xml version="1.0" encoding="utf-8"?>
<!-- Generator: Adobe Illustrator 25.1.0, SVG Export Plug-In . SVG Version: 6.00 Build 0)  -->
<svg version="1.1" id="Capa_1" xmlns="http://www.w3.org/2000/svg" xmlns:xlink="http://www.w3.org/1999/xlink" x="0px" y="0px"
	 viewBox="0 0 1378.79 1080" style="enable-background:new 0 0 1378.79 1080;" xml:space="preserve">
<style type="text/css">
	.st0{fill:#707070;}
</style>
<path class="st0" d="M102,472.75v31.47h24.72v17.6H102v79.22c0,6.11,1.27,10.41,3.8,12.9c2.53,2.49,5.89,3.74,10.07,3.74
	c1.37,0,2.89-0.18,4.58-0.54c1.69-0.36,3.09-0.74,4.22-1.15l3.26,16.28c-1.77,1.45-4.38,2.63-7.84,3.56
	c-3.46,0.92-6.87,1.39-10.25,1.39c-9.65,0-17.32-2.91-23.03-8.74c-5.71-5.83-8.56-14.97-8.56-27.43v-79.22H57.51v-17.6h20.74v-31.47
	H102z"/>
<path class="st0" d="M633.6,615.38c-4.02,6.99-9.18,12.38-15.49,16.16c-6.31,3.78-13.61,5.67-21.88,5.67
	c-13.99,0-24.92-4.6-32.79-13.81c-7.88-9.2-11.82-23.49-11.82-42.86v-76.32h29.18v76.56c0,12.46,1.81,21,5.43,25.62
	c3.62,4.62,9.24,6.93,16.88,6.93c7.07,0,13-1.27,17.78-3.8c4.78-2.53,8.54-6.21,11.27-11.03v-94.29h29.3v130.46h-25.2L633.6,615.38z
	"/>
<path class="st0" d="M718.84,504.21l1.57,17c4.26-6.19,9.6-10.97,16.04-14.35c6.43-3.38,13.87-5.06,22.31-5.06
	c8.52,0,15.83,1.93,21.94,5.79c6.11,3.86,10.69,9.64,13.74,17.36c4.02-7.23,9.32-12.9,15.92-17c6.59-4.1,14.31-6.15,23.15-6.15
	c13.1,0,23.45,4.56,31.05,13.68c7.6,9.12,11.39,22.93,11.39,41.42v77.77h-29.3v-77.89c0-11.41-1.91-19.43-5.73-24.05
	c-3.82-4.62-9.55-6.93-17.18-6.93c-6.27,0-11.57,1.69-15.92,5.06c-4.34,3.38-7.48,7.92-9.4,13.62c0,1.21,0.04,2.25,0.12,3.13
	c0.08,0.89,0.12,1.73,0.12,2.53v84.52h-29.3v-77.89c0-11.01-1.95-18.93-5.85-23.75c-3.9-4.82-9.63-7.23-17.18-7.23
	c-5.95,0-10.99,1.15-15.13,3.44c-4.14,2.29-7.42,5.53-9.83,9.71v95.73h-29.3V504.21H718.84z"/>
<path class="st0" d="M1022.56,573.06c0,19.45-4.34,35.01-13.02,46.66c-8.68,11.66-21.22,17.48-37.62,17.48
	c-7.64,0-14.29-1.61-19.95-4.82c-5.67-3.21-10.47-7.92-14.41-14.11l-2.89,16.4h-29.78V446.58h35.09v71.5
	c3.78-5.22,8.3-9.24,13.56-12.06c5.26-2.81,11.31-4.22,18.15-4.22c16.56,0,29.18,6.25,37.86,18.75
	c8.68,12.5,13.02,29.16,13.02,49.98V573.06z M987.48,570.53c0-12.7-1.87-22.77-5.61-30.2c-3.74-7.43-10.11-11.15-19.11-11.15
	c-5.47,0-10.09,1.14-13.87,3.44c-0.04,0.02-0.08,0.05-0.11,0.07c-5.59,3.43-8.81,9.69-8.81,16.25v42.13
	c0,6.39,3.28,12.48,8.87,15.58c0.04,0.02,0.08,0.04,0.11,0.06c3.82,2.09,8.5,3.13,14.05,3.13c9.08,0,15.43-3.19,19.05-9.59
	c3.62-6.39,5.43-15.45,5.43-27.19V570.53z"/>
<rect x="1046.07" y="459.72" class="st0" width="35.21" height="26.4"/>
<rect x="1046.07" y="504.21" class="st0" width="35.21" height="130.46"/>
<path class="st0" d="M1142.41,504.21l1.57,18.69c4.34-6.67,9.69-11.86,16.04-15.55c6.35-3.7,13.46-5.55,21.34-5.55
	c13.18,0,23.47,4.24,30.87,12.72c7.39,8.48,11.09,21.88,11.09,40.21v79.94h-35.33v-79.82c0-9.32-1.63-15.93-4.88-19.83
	c-3.26-3.9-8.14-5.85-14.65-5.85c-5.23,0-9.83,0.98-13.81,2.95c-0.04,0.02-0.08,0.04-0.12,0.06c-6.05,3.03-9.71,9.38-9.71,16.14
	v86.34h-35.21V504.21H1142.41z"/>
<path class="st0" d="M253.99,621.87c-0.48-4.33-0.71-8.84-0.71-13.51v-62.82c0-14.15-4.51-24.97-13.51-32.49
	c-9.02-7.52-20.92-11.27-35.71-11.27c-14.93,0-27.13,3.93-36.59,11.8c-9.43,7.89-13.87,16.57-13.32,26.05l0.23,0.74l22.55-0.25
	c0-5.38,2.37-10.01,7.13-13.85c4.74-3.87,10.95-5.8,18.68-5.8c8.51,0,15.12,2.23,19.77,6.7c4.67,4.46,6.99,10.52,6.99,18.15v12.89
	h-25.79c-17.28,0-30.97,3.52-41.07,10.56c-10.08,7.04-15.12,16.77-15.12,29.25c0,12.22,3.54,21.79,10.68,28.74
	c7.11,6.97,17.46,10.45,31.04,10.45c8.19,0,15.85-2.12,22.96-6.33c7.11-4.23,12.89-9.48,17.3-15.74c0.09,3.06,0.35,6.07,0.78,9.11
	c0.44,2.99,1.08,6.49,1.89,10.42h24.46C255.35,630.47,254.48,626.21,253.99,621.87z M229.51,595.47
	c-2.09,5.71-6.58,10.77-13.51,15.19c-6.9,4.42-14.66,6.63-23.26,6.63c-7.09,0-12.43-1.68-16.04-5.06
	c-3.61-3.38-5.43-7.96-5.43-13.74c0-6.51,2.88-12.2,8.63-17c5.75-4.83,13.39-7.25,22.96-7.25h26.65V595.47z"/>
<path class="st0" d="M289.68,446.54v188.12h23.77V446.54H289.68z"/>
<path class="st0" d="M489.96,446.54v188.2h29.31v-188.2H489.96z"/>
<path class="st0" d="M1285.54,540.68c3.94-7.66,10.2-11.47,18.81-11.47c0.75,0,1.48,0.04,2.19,0.08h37.24
	c10.04,0,18.18-8.15,18.18-18.21v-6.81h-30.26l-0.07,0.43c-0.98,6.05-8.08,8.59-12.9,4.83c-1.28-1.02-2.63-1.91-4.03-2.73
	c-5.55-3.31-11.98-4.96-19.29-4.96c-16.15,0-28.69,6.32-37.63,18.95c-8.91,12.6-13.39,29.2-13.39,49.77v2.54
	c0,19.29,4.47,34.81,13.39,46.55c8.94,11.74,21.38,17.6,37.38,17.6c6.77,0,12.74-1.28,17.97-3.86c2-0.99,3.91-2.13,5.71-3.43
	c3.29-2.43,7.91-0.02,7.91,4.03c0,4.28-0.57,7.98-1.69,11.09c-1.15,3.16-2.85,5.72-5.12,7.74c-4.27,3.78-10.83,5.8-19.68,6.02
	c-0.52,0.02-1.05,0.02-1.59,0.02c-6.69,0-14.84-0.08-21.58-0.08H377.63v-37.24c4.1,5.14,9,9.03,14.7,11.69s12.26,3.98,19.66,3.98
	c15.91,0,28.33-5.83,37.26-17.49c8.92-11.65,13.39-26.95,13.39-45.93v-2.54c0-20.82-4.49-37.59-13.45-50.33
	c-8.96-12.74-21.49-19.12-37.55-19.12c-7.8,0-14.66,1.62-20.55,4.82c-5.91,3.22-10.96,7.88-15.13,13.99l-2.9-16.39h-24.72v154.56
	H63.8c-19.41,0-35.14-15.73-35.14-35.14V459.1H0v172.15c0,31.02,25.15,56.17,56.17,56.17h1242.76c0.45,0,0.89,0,1.34-0.02
	c19.21-0.19,34.23-4.83,45.07-13.88c11.08-9.31,16.63-22.42,16.63-39.37v-6.07c0-10.05-8.15-18.2-18.2-18.2h-39.66
	c-8.69,0-14.93-3.27-18.76-9.82c-3.83-6.56-5.74-15.54-5.74-26.95v-2.54C1279.61,558.28,1281.6,548.3,1285.54,540.68z
	 M377.63,547.94c0-7.39,3.83-14.26,10.11-18.15l0.13-0.08c4.27-2.61,9.45-3.91,15.57-3.91c9.97,0,17.45,4.24,22.48,12.72
	s7.54,19.39,7.54,32.73v2.54c0,11.98-2.48,21.64-7.42,29c-4.94,7.35-12.39,11.03-22.36,11.03c-6.27,0-11.53-1.23-15.8-3.68
	c-0.04-0.02-0.09-0.05-0.13-0.07c-6.38-3.72-10.11-10.75-10.11-18.14V547.94z M480.84,679.44H74.85c-3.61,0-6.56-2.95-6.56-6.56
	c0-3.61,2.95-6.56,6.56-6.56h405.99c3.61,0,6.56,2.95,6.56,6.56C487.4,676.48,484.45,679.44,480.84,679.44z M1293.59,679.44H887.61
	c-3.61,0-6.56-2.95-6.56-6.56c0-3.61,2.95-6.56,6.56-6.56h405.99c3.61,0,6.56,2.95,6.56,6.56
	C1300.15,676.48,1297.2,679.44,1293.59,679.44z"/>
<ellipse class="st0" cx="1350.8" cy="566.98" rx="11.17" ry="19.39"/>
<path class="st0" d="M1313.93,486.12L1313.93,486.12l66.15,0v0c0-14.58-11.82-26.39-26.39-26.39h-13.36
	C1325.74,459.73,1313.93,471.55,1313.93,486.12z"/>
</svg>
