<svg id="Capa_1" data-name="Capa 1" xmlns="http://www.w3.org/2000/svg" viewBox="0 0 885.9 1037.89"><defs><style>.cls-1{fill:#1f140f;}</style></defs><path class="cls-1" d="M487.1,437.55a144.89,144.89,0,0,1,204.91,0L793.86,335.68A289,289,0,0,0,306.72,480.59H457.37A144.88,144.88,0,0,1,487.1,437.55Z" transform="translate(-70.6 -21.06)"/><path class="cls-1" d="M315,630.4a288.91,288.91,0,0,0,70.2,113.9L487.1,642.45a147.91,147.91,0,0,1-10.73-12.05Z" transform="translate(-70.6 -21.06)"/><path class="cls-1" d="M589.54,914.51A374.64,374.64,0,0,1,219.71,599.39H530.15L547.54,582l42-42,42-42L649,480.59H219.71A374.57,374.57,0,0,1,854.38,275.16L956.5,173.05A519,519,0,0,0,74,480.59a526.73,526.73,0,0,0,0,118.8A517.4,517.4,0,0,0,222.61,907c93.92,93.91,223.65,152,366.93,152a517.28,517.28,0,0,0,367-152L854.38,804.82A373.31,373.31,0,0,1,589.54,914.51Z" transform="translate(-70.6 -21.06)"/></svg>