<?xml version="1.0" encoding="utf-8"?>
<!-- Generator: Adobe Illustrator 25.1.0, SVG Export Plug-In . SVG Version: 6.00 Build 0)  -->
<svg version="1.1" id="Capa_1" xmlns="http://www.w3.org/2000/svg" xmlns:xlink="http://www.w3.org/1999/xlink" x="0px" y="0px"
	 viewBox="0 0 673.79 187.42" style="enable-background:new 0 0 673.79 187.42;" xml:space="preserve">
<style type="text/css">
	.st0{fill:#FF4F9A;}
</style>
<path class="st0" d="M319.58,136.51c0.12,2.58,1.14,5,3.07,7.28c1.93,2.28,4.48,3.54,7.64,3.77v4.04h-50.02v-4.04
	c2.46,0,4.5-0.99,6.14-2.98c1.64-1.99,2.51-4.68,2.63-8.07V49.62L253.06,151.6h-4.21l-37.91-95.66l1.4,80.92
	c0,1.76,0.55,3.4,1.67,4.91c1.11,1.52,2.55,2.78,4.3,3.77c1.76,1,3.63,1.67,5.62,2.02v4.04h-28.44v-4.04c3.39,0,6.08-0.97,8.07-2.9
	c1.99-1.93,3.04-4.59,3.16-7.99V47.52c-0.7-9.24-4.56-13.87-11.58-13.87v-4.91h42.13l27.21,73.19l25.98-73.19h39.84v4.74
	c-1.64,0.24-2.98,0.47-4.04,0.7c-1.05,0.24-2.17,0.73-3.34,1.49c-1.17,0.76-2.05,1.96-2.63,3.6c-0.59,1.64-0.94,3.69-1.05,6.14
	L319.58,136.51z"/>
<path class="st0" d="M413.49,62.26h20.36v3.69c-3.04,0.24-5.35,1.08-6.93,2.55c-1.58,1.46-3.01,3.66-4.3,6.58l-29.14,75.3
	c-5.5,12.64-10.74,21.65-15.71,27.03c-4.97,5.38-10.39,8.6-16.24,9.65c-3.4,0.58-7.37,0.47-11.94-0.35
	c-4.56-0.82-8.31-2.4-11.23-4.74c-3.04-2.46-5-5.65-5.88-9.57c-0.88-3.92-0.44-7.99,1.32-12.2c1.29-3.04,3.27-5.3,5.97-6.76
	c2.69-1.46,5.41-2.05,8.16-1.75c2.75,0.29,5.35,1.34,7.81,3.16c2.46,1.81,4.09,4.18,4.91,7.11c0.47,1.87,1.2,3.74,2.19,5.62
	c0.99,1.87,2.28,3.51,3.86,4.91c1.58,1.4,3.22,2.25,4.91,2.55c1.7,0.29,3.54-0.53,5.53-2.46c1.99-1.93,3.92-5.06,5.79-9.39
	l-36.86-89.17c-1.4-2.57-2.9-4.48-4.48-5.7c-1.58-1.23-3.77-2.02-6.58-2.37v-3.69h52.48v3.69c-2.93,0.24-4.86,1.29-5.79,3.16
	c-0.94,1.87-0.76,4.51,0.53,7.9l16.5,49.67l19.48-49.5c1.4-3.74,1.64-6.49,0.7-8.25c-0.94-1.75-2.75-2.75-5.44-2.98V62.26z"/>
<path class="st0" d="M559.52,136.51c0.11,2.58,1.14,5,3.07,7.28c1.93,2.28,4.48,3.54,7.64,3.77v4.04H520.2v-4.04
	c2.46,0,4.5-0.99,6.14-2.98c1.64-1.99,2.52-4.68,2.63-8.07V49.62L493,151.6h-4.21l-37.91-95.66l1.4,80.92c0,1.76,0.55,3.4,1.67,4.91
	c1.11,1.52,2.55,2.78,4.3,3.77c1.75,1,3.63,1.67,5.62,2.02v4.04h-28.43v-4.04c3.39,0,6.08-0.97,8.07-2.9
	c1.99-1.93,3.04-4.59,3.16-7.99V47.52c-0.7-9.24-4.56-13.87-11.58-13.87v-4.91h42.13l27.21,73.19l25.98-73.19h39.84v4.74
	c-1.64,0.24-2.98,0.47-4.04,0.7c-1.05,0.24-2.17,0.73-3.33,1.49c-1.17,0.76-2.05,1.96-2.63,3.6c-0.59,1.64-0.94,3.69-1.05,6.14
	L559.52,136.51z"/>
<path class="st0" d="M653.42,62.26h20.36v3.69c-3.04,0.24-5.35,1.08-6.93,2.55c-1.58,1.46-3.01,3.66-4.3,6.58l-29.14,75.3
	c-5.5,12.64-10.74,21.65-15.71,27.03c-4.97,5.38-10.39,8.6-16.24,9.65c-3.4,0.58-7.37,0.47-11.94-0.35
	c-4.56-0.82-8.31-2.4-11.23-4.74c-3.04-2.46-5-5.65-5.88-9.57c-0.88-3.92-0.44-7.99,1.32-12.2c1.29-3.04,3.27-5.3,5.97-6.76
	c2.69-1.46,5.41-2.05,8.16-1.75c2.75,0.29,5.35,1.34,7.81,3.16c2.46,1.81,4.09,4.18,4.91,7.11c0.47,1.87,1.2,3.74,2.19,5.62
	c0.99,1.87,2.28,3.51,3.86,4.91c1.58,1.4,3.22,2.25,4.91,2.55c1.7,0.29,3.54-0.53,5.53-2.46c1.99-1.93,3.92-5.06,5.79-9.39
	l-36.86-89.17c-1.4-2.57-2.9-4.48-4.48-5.7c-1.58-1.23-3.77-2.02-6.58-2.37v-3.69h52.48v3.69c-2.93,0.24-4.86,1.29-5.79,3.16
	c-0.94,1.87-0.76,4.51,0.53,7.9l16.5,49.67l19.48-49.5c1.4-3.74,1.64-6.49,0.7-8.25c-0.94-1.75-2.75-2.75-5.44-2.98V62.26z"/>
<path class="st0" d="M120.85,135.36c1.2-40.08,15.36-76.85,38.42-106.25c-2.34-0.22-4.71-0.34-7.11-0.34
	c-15.03,0-29,4.6-40.57,12.48C106.35,23.87,94.83,9.23,79.66,0C64.5,9.2,52.95,23.81,47.68,41.2C36.11,33.35,22.17,28.78,7.17,28.78
	c-2.43,0-4.8,0.11-7.17,0.34c23.03,29.37,37.22,66.14,38.42,106.19c0.06,1.85,0.08,3.7,0.08,5.55c0,2.1-0.03,4.24-0.11,6.31
	c7.25,1.71,14.67,3,22.22,3.79c6.25,0.67,12.6,1.01,19.04,1.01c6.44,0,12.8-0.34,19.04-1.01c7.53-0.79,14.92-2.08,22.17-3.79
	c-0.08-2.08-0.11-4.21-0.11-6.31C120.76,139.01,120.79,137.19,120.85,135.36z M86.47,119.15c-2.17,1.37-4.46,2.61-6.86,3.65
	c-2.62-1.15-5.16-2.5-7.53-4.07c-12.02-7.8-20.72-20.34-23.45-34.98c2.54,1.74,5.58,2.72,8.84,2.72c1.28,0,2.54-0.14,3.74-0.45
	c0.06-9.79,2.73-18.99,7.33-26.84c2.9-4.99,6.61-9.45,10.9-13.18c4.29,3.73,7.97,8.19,10.9,13.18c4.6,7.85,7.28,17.05,7.33,26.84
	c1.17,0.31,2.43,0.45,3.71,0.45c3.46,0,6.66-1.12,9.26-3.03C107.91,98.48,98.93,111.35,86.47,119.15z"/>
</svg>
