<?xml version="1.0" encoding="utf-8"?>
<!-- Generator: Adobe Illustrator 25.1.0, SVG Export Plug-In . SVG Version: 6.00 Build 0)  -->
<svg version="1.1" id="Capa_1" xmlns="http://www.w3.org/2000/svg" xmlns:xlink="http://www.w3.org/1999/xlink" x="0px" y="0px"
	 viewBox="0 0 1959.61 1188.2" style="enable-background:new 0 0 1959.61 1188.2;" xml:space="preserve">
<style type="text/css">
	.st0{fill:#707070;}
	.st1{fill:none;stroke:#707070;stroke-width:2;stroke-miterlimit:10;}
	.st2{fill:#0066B8;}
</style>
<g>
	<g>
		<path class="st0" d="M806.52,511.14h-23.28l-8.53-21.72h-53.53l-8.53,21.72h-23.27l45-108.6h27.15L806.52,511.14z M728.94,470.8
			h38.01l-18.62-45h-0.77L728.94,470.8z"/>
		<path class="st0" d="M813.7,467.7v-65.17h21.72v65.17c0,17.07,10.86,27.92,27.93,27.92c17.07,0,27.92-10.86,27.92-27.92v-65.17
			H913v65.17c0,27.15-19.4,46.54-49.65,46.54C833.1,514.25,813.7,494.85,813.7,467.7z"/>
		<path class="st0" d="M1023.98,402.54v17.84h-37.24v90.76h-21.72v-90.76h-37.24v-17.84H1023.98z"/>
		<path class="st0" d="M1088.25,399.43c34.13,0,58.19,24.05,58.19,57.41c0,33.35-24.05,57.41-58.19,57.41
			c-34.13,0-58.19-24.05-58.19-57.41C1030.07,423.48,1054.12,399.43,1088.25,399.43z M1088.25,418.05
			c-20.17,0-35.69,15.51-35.69,38.79c0,23.27,15.52,38.79,35.69,38.79c20.17,0,35.69-15.52,35.69-38.79
			C1123.94,433.56,1108.42,418.05,1088.25,418.05z"/>
		<path class="st0" d="M1288.93,412.62l-8.53,14.74c0,0-12.41-9.31-28.71-9.31c-14.74,0-21.72,6.98-21.72,12.4
			c0,21.73,61.28,10.86,61.28,48.88c0,18.61-16.29,34.91-47.32,34.91c-25.13,0-41.11-14.74-41.11-14.74l9.31-14.74
			c0,0,12.57,11.63,30.26,11.63c17.84,0,26.37-8.54,26.37-17.07c0-19.39-61.28-9.31-61.28-48.88c0-15.51,15.52-31.03,42.67-31.03
			C1273.42,399.43,1288.93,412.62,1288.93,412.62z"/>
		<path class="st0" d="M1308.83,402.54h86.89v17.84h-65.17v27.92h45v17.84h-45v27.15h66.71v17.84h-88.43V402.54z"/>
		<path class="st0" d="M1463.72,402.54c29.48,0,45,15.52,45,35.68c0,23.28-20.17,31.03-20.17,31.03v0.78l28.7,41.11h-25.59
			l-25.6-37.24h-30.26v37.24h-21.72v-108.6H1463.72z M1463.72,420.38h-27.93v35.68h27.93c14.74,0,22.5-9.31,22.5-17.84
			C1486.21,428.13,1478.46,420.38,1463.72,420.38z"/>
		<path class="st0" d="M1520.85,402.54h24.05l31.8,85.33h0.78l31.8-85.33h24.05l-42.67,108.6h-27.15L1520.85,402.54z"/>
		<path class="st0" d="M1669.07,511.14h-21.72v-108.6h21.72V511.14z"/>
		<path class="st0" d="M1784.22,410.29l-9.32,14.74c0,0-11.17-6.98-25.59-6.98c-23.28,0-38.79,15.51-38.79,38.79
			c0,23.27,15.52,38.79,38.79,38.79c15.52,0,27.15-8.53,27.15-8.53l9.31,14.74c0,0-14.74,12.41-38.01,12.41
			c-35.68,0-59.73-24.05-59.73-57.41c0-33.36,24.05-57.41,59.73-57.41C1770.25,399.43,1784.22,410.29,1784.22,410.29z"/>
		<path class="st0" d="M1824.29,511.14h-21.72v-108.6h21.72V511.14z"/>
		<path class="st0" d="M1901.42,399.43c34.13,0,58.19,24.05,58.19,57.41c0,33.35-24.05,57.41-58.19,57.41
			c-34.13,0-58.19-24.05-58.19-57.41C1843.24,423.48,1867.29,399.43,1901.42,399.43z M1901.42,418.05
			c-20.17,0-35.69,15.51-35.69,38.79c0,23.27,15.52,38.79,35.69,38.79c20.17,0,35.69-15.52,35.69-38.79
			C1937.11,433.56,1921.59,418.05,1901.42,418.05z"/>
	</g>
	<g>
		<path class="st0" d="M689.24,754.47v-42.54L797.67,584.9l-108.59-0.1v-42.83l175.92,0.1v42.83L756.58,711.93h108.43v42.54H689.24z
			"/>
		<path class="st0" d="M948.79,542.07h59.41l74.98,212.4h-58.41l-12.97-38.94h-70.94l-12.11,38.94h-56.38L948.79,542.07z
			 M953.84,671.56h46.42l-23.65-73.25L953.84,671.56z"/>
		<path class="st0" d="M1104.09,754.47v-212.4h74.84l27.97,103.39c2.49,9.14,4.76,18,6.78,26.61s3.79,16.99,5.34,25.16
			c1.82-8.65,3.89-17.71,6.19-27.18c2.31-9.47,4.95-19.64,7.93-30.5l26.39-97.48h74.7v212.4h-49.6v-94.16
			c0-6.64,0.17-15.93,0.5-27.91c0.33-11.96,0.84-25.79,1.52-41.45l-40.81,163.52h-53.93l-39.94-163.52
			c0.67,18.84,1.2,35.79,1.58,50.83c0.38,15.05,0.58,26.8,0.58,35.26v77.43H1104.09z"/>
		<path class="st0" d="M1376.33,754.47v-212.4h97.18c24.61,0,43.36,5.69,56.24,17.08c12.88,11.4,19.33,27.86,19.33,49.39
			c0,22.59-6.34,39.92-19.03,51.99c-12.69,12.06-30.96,18.09-54.79,18.09h-44.27v75.85H1376.33z M1430.98,635.8h36.05
			c9.81,0,17.04-2.09,21.7-6.28c4.66-4.18,7-10.65,7-19.39c0-8.45-2.43-14.78-7.29-18.96c-4.85-4.19-12.18-6.27-21.99-6.27h-35.48
			V635.8z"/>
		<path class="st0" d="M1579.79,754.47v-212.4h161.35v43.55h-106.99v37.49h97.77v42.54h-97.77v45.42h110.45v43.41H1579.79z"/>
		<path class="st0" d="M1776.76,754.47v-212.4h101.66c26.91,0,46.74,4.81,59.48,14.42c12.73,9.62,19.1,24.52,19.1,44.71
			c0,11.92-2.71,22.14-8.15,30.64c-5.43,8.5-13.87,15.64-25.3,21.41c9.32,3.56,15.91,8.39,19.75,14.49
			c3.84,6.11,6.06,16.85,6.64,32.23c0.29,4.32,0.58,10.14,0.87,17.44c0.67,17.12,3.6,27.01,8.8,29.71v7.35h-56.96
			c-2.78-7.5-4.37-17.78-4.75-30.86c-0.39-13.07-0.78-21.29-1.16-24.65c-0.87-8.27-3.65-14.32-8.36-18.18
			c-4.71-3.84-11.77-5.76-21.19-5.76h-36.34v79.45H1776.76z M1830.84,633.06h40.51c10.96,0,19.01-2.02,24.15-6.05
			c5.14-4.04,7.72-10.48,7.72-19.33c0-7.79-2.5-13.57-7.5-17.38c-4.99-3.79-12.64-5.69-22.93-5.69h-41.95V633.06z"/>
	</g>
	<g>
		<path class="st0" d="M564.48,615.68c1.89-13.22,2.83-26.7,2.83-40.1c0-12.33-0.81-24.7-2.39-36.84c1.42-1.36,2.88-2.39,4.35-3.02
			l1.84-0.81l-0.29-1.99c-6.71-45.21-24.47-88.77-51.35-125.98l-1.26-1.73l-1.97,0.89c-1.39,0.66-3.02,1.02-4.9,1.13
			c-15.79-21.11-34.46-39.94-55.54-55.99c0.18-1.86,0.6-3.49,1.26-4.8l1-1.97l-1.78-1.34c-37-27.27-80.45-45.44-125.61-52.58
			l-2.31-0.37l-0.63,2.26c-0.39,1.42-1.15,2.83-2.26,4.22c-26.59-3.75-53.34-3.75-79.82,0c-1.1-1.42-1.86-2.83-2.26-4.22l-0.63-2.26
			l-2.31,0.37c-45.21,7.13-88.66,25.33-125.61,52.6l-1.78,1.28l0.97,1.97c0.68,1.36,1.1,2.99,1.28,4.83
			c-21.06,16.02-39.73,34.85-55.54,56.01c-1.89-0.13-3.49-0.5-4.9-1.15l-1.97-0.89l-1.26,1.73C24.78,444.13,7,487.71,0.29,532.92
			L0,534.91l1.84,0.81c1.47,0.63,2.96,1.65,4.41,3.04C4.62,551.12,3.8,563.5,3.8,575.59c0,13.27,0.97,26.77,2.86,40.1
			c-1.42,1.47-2.88,2.57-4.3,3.25l-1.78,0.84l0.31,1.94c7.32,45.21,25.67,88.58,53.1,125.45l1.05,1.42l1.73-0.45
			c1.68-0.47,3.67-0.63,5.85-0.47c15.24,19.67,32.96,37.26,52.73,52.29c0.18,2.26,0.05,4.22-0.34,5.9l-0.42,1.7l1.42,1.05
			c37.26,27.14,80.87,45.13,126.13,52l1.68,0.26l0.92-1.44c1-1.55,2.39-3.04,4.14-4.46c24.05,3.15,49.33,3.15,73.37,0
			c1.78,1.44,3.15,2.94,4.09,4.46l0.92,1.44l1.7-0.26c45.26-6.87,88.87-24.83,126.13-52l1.39-1.02l-0.39-1.7
			c-0.39-1.7-0.5-3.67-0.31-5.93c19.69-14.95,37.42-32.54,52.71-52.29c2.2-0.16,4.17,0,5.87,0.47l1.73,0.45l1.05-1.42
			c27.43-36.92,45.79-80.3,53.1-125.45l0.31-1.94l-1.78-0.84C567.37,618.25,565.9,617.15,564.48,615.68z M539.18,587.28
			c-5.9,129.57-112.03,235.77-241.6,241.75c-71.22,3.3-141.03-23.71-191.43-74.16C55.7,704.45,28.66,634.67,31.97,563.45
			c6.01-129.57,112.24-235.69,241.83-241.6c3.83-0.18,7.66-0.26,11.46-0.26c67.13,0,132.11,26.77,179.76,74.45
			C515.39,446.38,542.43,516.11,539.18,587.28z"/>
	</g>
	<circle class="st1" cx="285.57" cy="575.59" r="220.07"/>
	<path class="st2" d="M285.57,353.39c-121.89,0-220.81,98.16-222.14,219.73h222.14V353.39z"/>
	<path class="st2" d="M285.57,573.12v224.67c122.72,0,222.2-99.48,222.2-222.2c0-0.83-0.05-1.64-0.06-2.47H285.57z"/>
</g>
</svg>
