<?xml version="1.0" encoding="utf-8"?>
<!-- Generator: Adobe Illustrator 25.1.0, SVG Export Plug-In . SVG Version: 6.00 Build 0)  -->
<svg version="1.1" id="Capa_1" xmlns="http://www.w3.org/2000/svg" xmlns:xlink="http://www.w3.org/1999/xlink" x="0px" y="0px"
	 viewBox="0 0 1378.79 1080" style="enable-background:new 0 0 1378.79 1080;" xml:space="preserve">
<style type="text/css">
	.st0{fill:#FF4E9D;}
</style>
<path class="st0" d="M653.97,632.34c0.24,5.27,2.33,10.24,6.29,14.91c3.95,4.67,9.16,7.25,15.62,7.72v8.26H573.51v-8.26
	c5.03,0,9.22-2.03,12.57-6.11c3.35-4.07,5.15-9.58,5.39-16.52v-177.8l-73.63,208.69h-8.62l-77.58-195.76l2.87,165.58
	c0,3.59,1.13,6.95,3.41,10.06c2.27,3.12,5.21,5.69,8.8,7.72c3.59,2.04,7.42,3.41,11.49,4.13v8.26h-58.19v-8.26
	c6.94,0,12.45-1.98,16.52-5.93c4.07-3.95,6.22-9.39,6.46-16.34V450.24c-1.44-18.91-9.34-28.38-23.71-28.38V411.8h86.2l55.67,149.78
	l53.16-149.78h81.53v9.7c-3.36,0.48-6.11,0.96-8.26,1.44c-2.15,0.48-4.43,1.5-6.82,3.05c-2.4,1.56-4.19,4.01-5.39,7.36
	c-1.2,3.36-1.92,7.54-2.16,12.57L653.97,632.34z"/>
<path class="st0" d="M846.13,480.41h41.66v7.54c-6.23,0.48-10.96,2.22-14.19,5.21c-3.23,3-6.17,7.49-8.8,13.47l-59.62,154.09
	c-11.26,25.86-21.97,44.3-32.15,55.31c-10.18,11.01-21.25,17.6-33.22,19.75c-6.95,1.2-15.08,0.96-24.42-0.72
	c-9.34-1.68-17.01-4.91-22.99-9.7c-6.23-5.03-10.24-11.55-12.03-19.57c-1.8-8.03-0.9-16.34,2.69-24.96
	c2.63-6.23,6.7-10.84,12.21-13.83c5.5-3,11.07-4.19,16.7-3.59c5.62,0.59,10.96,2.75,15.98,6.46c5.03,3.71,8.38,8.56,10.06,14.55
	c0.96,3.83,2.45,7.66,4.49,11.49c2.03,3.83,4.67,7.18,7.9,10.06c3.23,2.87,6.58,4.61,10.06,5.21c3.47,0.59,7.24-1.08,11.31-5.03
	c4.07-3.95,8.02-10.36,11.85-19.22L708.2,504.47c-2.87-5.26-5.93-9.16-9.16-11.67c-3.23-2.51-7.72-4.13-13.47-4.85v-7.54h107.4v7.54
	c-5.99,0.48-9.94,2.64-11.85,6.46c-1.92,3.83-1.56,9.22,1.08,16.16l33.76,101.65l39.87-101.29c2.87-7.66,3.35-13.29,1.44-16.88
	c-1.92-3.59-5.63-5.62-11.13-6.11V480.41z"/>
<path class="st0" d="M1144.97,632.34c0.23,5.27,2.33,10.24,6.28,14.91c3.95,4.67,9.16,7.25,15.63,7.72v8.26h-102.37v-8.26
	c5.03,0,9.22-2.03,12.57-6.11c3.35-4.07,5.15-9.58,5.39-16.52v-177.8l-73.63,208.69h-8.62l-77.58-195.76l2.87,165.58
	c0,3.59,1.13,6.95,3.41,10.06c2.27,3.12,5.21,5.69,8.8,7.72c3.59,2.04,7.42,3.41,11.49,4.13v8.26h-58.19v-8.26
	c6.94,0,12.45-1.98,16.52-5.93c4.07-3.95,6.22-9.39,6.47-16.34V450.24c-1.44-18.91-9.34-28.38-23.71-28.38V411.8h86.2l55.67,149.78
	l53.16-149.78h81.53v9.7c-3.36,0.48-6.11,0.96-8.26,1.44c-2.15,0.48-4.43,1.5-6.82,3.05c-2.4,1.56-4.19,4.01-5.39,7.36
	c-1.2,3.36-1.92,7.54-2.16,12.57L1144.97,632.34z"/>
<path class="st0" d="M1337.13,480.41h41.66v7.54c-6.23,0.48-10.96,2.22-14.19,5.21c-3.23,3-6.17,7.49-8.8,13.47l-59.62,154.09
	c-11.26,25.86-21.97,44.3-32.15,55.31c-10.18,11.01-21.25,17.6-33.22,19.75c-6.95,1.2-15.08,0.96-24.42-0.72
	c-9.34-1.68-17.01-4.91-22.99-9.7c-6.23-5.03-10.24-11.55-12.03-19.57c-1.8-8.03-0.9-16.34,2.69-24.96
	c2.63-6.23,6.7-10.84,12.21-13.83c5.5-3,11.07-4.19,16.7-3.59c5.62,0.59,10.96,2.75,15.98,6.46c5.03,3.71,8.38,8.56,10.06,14.55
	c0.96,3.83,2.45,7.66,4.49,11.49c2.03,3.83,4.67,7.18,7.9,10.06c3.23,2.87,6.58,4.61,10.06,5.21c3.47,0.59,7.24-1.08,11.31-5.03
	c4.07-3.95,8.02-10.36,11.85-19.22l-75.43-182.46c-2.87-5.26-5.93-9.16-9.16-11.67c-3.23-2.51-7.72-4.13-13.47-4.85v-7.54h107.4
	v7.54c-5.99,0.48-9.94,2.64-11.85,6.46c-1.92,3.83-1.56,9.22,1.08,16.16l33.76,101.65l39.87-101.29c2.87-7.66,3.35-13.29,1.44-16.88
	c-1.92-3.59-5.63-5.62-11.13-6.11V480.41z"/>
<path class="st0" d="M247.3,630c2.45-82.02,31.44-157.27,78.63-217.42c-4.79-0.46-9.64-0.69-14.55-0.69
	c-30.76,0-59.34,9.41-83.02,25.54c-10.73-35.59-34.29-65.55-65.33-84.43c-31.04,18.83-54.66,48.73-65.45,84.32
	c-23.68-16.07-52.21-25.43-82.91-25.43c-4.96,0-9.81,0.23-14.66,0.69c47.13,60.1,76.17,135.34,78.63,217.31
	c0.11,3.79,0.17,7.58,0.17,11.36c0,4.3-0.06,8.67-0.23,12.91c14.84,3.5,30.01,6.14,45.48,7.75c12.78,1.38,25.79,2.07,38.97,2.07
	c13.18,0,26.19-0.69,38.97-2.07c15.41-1.61,30.53-4.25,45.36-7.75c-0.17-4.25-0.23-8.61-0.23-12.91
	C247.13,637.47,247.18,633.73,247.3,630z M176.94,596.83c-4.45,2.81-9.13,5.34-14.04,7.46c-5.36-2.35-10.56-5.11-15.41-8.32
	c-24.59-15.96-42.4-41.61-47.99-71.57c5.19,3.56,11.41,5.57,18.09,5.57c2.62,0,5.19-0.29,7.65-0.92
	c0.11-20.03,5.59-38.86,15.01-54.93c5.93-10.22,13.52-19.34,22.31-26.98c8.79,7.63,16.32,16.76,22.31,26.98
	c9.42,16.07,14.89,34.9,15.01,54.93c2.4,0.63,4.96,0.92,7.59,0.92c7.08,0,13.64-2.3,18.94-6.2
	C220.82,554.53,202.45,580.87,176.94,596.83z"/>
</svg>
