<?xml version="1.0" encoding="utf-8"?>
<!-- Generator: Adobe Illustrator 25.1.0, SVG Export Plug-In . SVG Version: 6.00 Build 0)  -->
<svg version="1.1" id="Capa_1" xmlns="http://www.w3.org/2000/svg" xmlns:xlink="http://www.w3.org/1999/xlink" x="0px" y="0px"
	 viewBox="0 0 2115.24 1014.27" style="enable-background:new 0 0 2115.24 1014.27;" xml:space="preserve">
<style type="text/css">
	.st0{fill:#9B571E;}
</style>
<g>
	<g>
		<g>
			<path class="st0" d="M1108.13,0"/>
			<path class="st0" d="M1548.05,608.77h-302.09l-159.58-481.32c-0.05-0.15-0.09-0.29-0.15-0.44
				c-87.51-254.31,260.44-18.13,259.86-91.96c0,0-5.64-37.24,19.66-35.49c30.86,2.14,16.16,55.05,1.81,70.25
				c-32.6,41.24-122.46-0.91-122.46-0.91c-94.77-31.34-120.46,4.08-96.97,49.41l157.55,348.7
				c43.36,95.63,122.73,129.88,229.89,116.8L1548.05,608.77z"/>
			<path class="st0" d="M567.23,609.63h302.09l159.58-481.32c0.05-0.15,0.09-0.29,0.15-0.44c87.51-254.31-260.44-18.13-259.86-91.96
				c0,0,5.64-37.24-19.66-35.49c-30.86,2.14-16.16,55.05-1.81,70.25c32.6,41.24,122.46-0.91,122.46-0.91
				c94.77-31.34,120.46,4.08,96.97,49.41l-157.55,348.7c-43.36,95.63-122.73,129.88-229.89,116.8L567.23,609.63z"/>
			<path class="st0" d="M1360.58,56.34l-86.09,182.56c0,77.15,172.16,77.15,172.16,0L1360.58,56.34z M1298.77,218.1l61.81-142.35
				l61.79,142.31c5.47,12.6,0.3,27.43-11.98,33.57c-33.37,16.69-66.6,16.63-99.68,0.02C1298.44,245.49,1293.31,230.68,1298.77,218.1
				z"/>
			<path class="st0" d="M754.09,56.34L668,238.9c0,77.15,172.16,77.15,172.16,0L754.09,56.34z M692.29,218.1l61.81-142.35
				l61.79,142.31c5.47,12.6,0.3,27.43-11.98,33.57c-33.37,16.69-66.6,16.63-99.68,0.02C691.96,245.49,686.83,230.68,692.29,218.1z"
				/>
		</g>
		<g>
			<path class="st0" d="M570.55,974.47c0,12.35,0,17.08-2.29,22.49c-1.6,3.81-4.96,7.4-11.13,11.67c-0.99,0.69-2.21,1.53-2.97,1.91
				c-0.15,0.08-0.3,0.15-0.53,0.15c-0.23,0-0.53-0.15-0.53-0.46c0-0.46,0.38-0.69,1.07-1.14c0.91-0.53,1.98-1.45,2.67-2.14
				c4.96-5.03,7.32-9.07,7.32-28.74v-22.03c0-11.89,0-14.03-0.15-16.47c-0.15-2.59-0.76-3.81-3.28-4.34
				c-0.61-0.15-1.91-0.23-2.59-0.23c-0.3,0-0.61-0.15-0.61-0.46c0-0.46,0.38-0.61,1.22-0.61c3.43,0,8.23,0.23,8.62,0.23
				c0.38,0,5.18-0.23,7.47-0.23c0.84,0,1.22,0.15,1.22,0.61c0,0.31-0.31,0.46-0.61,0.46c-0.53,0-0.99,0.08-1.91,0.23
				c-2.06,0.38-2.67,1.68-2.82,4.34c-0.15,2.44-0.15,4.57-0.15,16.47V974.47z"/>
			<path class="st0" d="M705.64,956.17c0-11.89,0-14.03-0.15-16.47c-0.15-2.59-0.76-3.81-3.28-4.34c-0.61-0.15-1.91-0.23-2.59-0.23
				c-0.3,0-0.61-0.15-0.61-0.46c0-0.46,0.38-0.61,1.22-0.61c3.43,0,8.08,0.23,8.77,0.23s5.26-0.23,7.55-0.23
				c0.84,0,1.22,0.15,1.22,0.61c0,0.31-0.3,0.46-0.61,0.46c-0.53,0-0.99,0.08-1.91,0.23c-2.06,0.3-2.67,1.68-2.82,4.34
				c-0.15,2.44-0.15,4.57-0.15,16.47v10.67c0,10.98,2.44,15.7,5.72,18.83c3.74,3.51,7.17,4.19,11.51,4.19
				c4.65,0,9.22-2.21,11.97-5.49c3.51-4.35,4.42-10.83,4.42-18.68v-9.53c0-11.89,0-14.03-0.15-16.47c-0.15-2.59-0.76-3.81-3.28-4.34
				c-0.61-0.15-1.91-0.23-2.59-0.23c-0.3,0-0.61-0.15-0.61-0.46c0-0.46,0.38-0.61,1.22-0.61c3.43,0,7.62,0.23,8.08,0.23
				c0.53,0,4.12-0.23,6.4-0.23c0.84,0,1.22,0.15,1.22,0.61c0,0.31-0.31,0.46-0.61,0.46c-0.53,0-0.99,0.08-1.91,0.23
				c-2.06,0.46-2.67,1.68-2.82,4.34c-0.15,2.44-0.15,4.57-0.15,16.47v8.16c0,8.23-0.91,17.38-7.01,22.8
				c-5.49,4.88-11.21,5.64-15.71,5.64c-2.59,0-10.29-0.3-15.7-5.41c-3.74-3.58-6.63-8.92-6.63-20.05V956.17z"/>
			<path class="st0" d="M882.82,990.71c-1.07-0.53-1.14-0.84-1.14-2.9c0-3.81,0.3-6.86,0.38-8.08c0.08-0.84,0.23-1.22,0.61-1.22
				c0.46,0,0.53,0.23,0.53,0.84c0,0.69,0,1.75,0.23,2.82c1.14,5.64,6.17,7.78,11.28,7.78c7.32,0,10.9-5.26,10.9-10.14
				c0-5.26-2.21-8.31-8.77-13.72l-3.43-2.82c-8.08-6.63-9.91-11.36-9.91-16.54c0-8.16,6.1-13.72,15.78-13.72
				c2.97,0,5.18,0.3,7.09,0.76c1.45,0.31,2.06,0.38,2.67,0.38c0.61,0,0.76,0.15,0.76,0.53c0,0.38-0.3,2.9-0.3,8.08
				c0,1.22-0.15,1.75-0.53,1.75c-0.46,0-0.53-0.38-0.61-0.99c-0.08-0.91-0.53-2.97-0.99-3.81c-0.46-0.84-2.52-4.04-9.53-4.04
				c-5.26,0-9.38,3.28-9.38,8.84c0,4.34,1.98,7.09,9.3,12.81l2.14,1.68c9,7.09,11.13,11.82,11.13,17.92c0,3.12-1.22,8.92-6.48,12.65
				c-3.28,2.29-7.39,3.2-11.51,3.2C889.45,992.77,885.95,992.24,882.82,990.71z"/>
			<path class="st0" d="M1061.75,969.59c0,7.32,0,13.34,0.38,16.54c0.23,2.21,0.69,3.89,2.97,4.19c1.07,0.15,2.74,0.31,3.43,0.31
				c0.46,0,0.61,0.23,0.61,0.46c0,0.38-0.38,0.61-1.22,0.61c-4.19,0-9-0.23-9.38-0.23c-0.38,0-5.18,0.23-7.47,0.23
				c-0.84,0-1.22-0.15-1.22-0.61c0-0.23,0.15-0.46,0.61-0.46c0.69,0,1.6-0.15,2.29-0.31c1.53-0.31,1.91-1.98,2.21-4.19
				c0.38-3.2,0.38-9.22,0.38-16.54v-32.25l-11.28,0.15c-4.73,0.08-6.56,0.61-7.78,2.44c-0.84,1.29-1.07,1.83-1.29,2.36
				c-0.23,0.61-0.46,0.76-0.76,0.76c-0.23,0-0.38-0.23-0.38-0.69c0-0.76,1.52-7.32,1.68-7.93c0.15-0.46,0.46-1.45,0.76-1.45
				c0.53,0,1.3,0.76,3.36,0.91c2.21,0.23,5.11,0.38,6.02,0.38h28.59c2.44,0,4.19-0.15,5.41-0.38c1.14-0.15,1.83-0.38,2.13-0.38
				c0.38,0,0.38,0.46,0.38,0.91c0,2.29-0.23,7.55-0.23,8.39c0,0.69-0.23,0.99-0.53,0.99c-0.38,0-0.53-0.23-0.61-1.29l-0.08-0.84
				c-0.23-2.29-2.06-4.04-9.38-4.19l-9.6-0.15V969.59z"/>
			<path class="st0" d="M1218.96,969.59c0,7.32,0,13.34,0.38,16.54c0.23,2.21,0.69,3.89,2.98,4.19c1.07,0.15,2.74,0.31,3.43,0.31
				c0.46,0,0.61,0.23,0.61,0.46c0,0.38-0.38,0.61-1.22,0.61c-4.19,0-9-0.23-9.38-0.23c-0.38,0-5.19,0.23-7.47,0.23
				c-0.84,0-1.22-0.15-1.22-0.61c0-0.23,0.15-0.46,0.61-0.46c0.69,0,1.6-0.15,2.29-0.31c1.52-0.31,1.91-1.98,2.21-4.19
				c0.38-3.2,0.38-9.22,0.38-16.54v-13.42c0-11.89,0-14.03-0.15-16.47c-0.15-2.59-0.91-3.89-2.59-4.27
				c-0.84-0.23-1.83-0.31-2.36-0.31c-0.31,0-0.61-0.15-0.61-0.46c0-0.46,0.38-0.61,1.22-0.61c2.52,0,7.32,0.23,7.7,0.23
				c0.38,0,5.18-0.23,7.47-0.23c0.84,0,1.22,0.15,1.22,0.61c0,0.31-0.3,0.46-0.61,0.46c-0.53,0-0.99,0.08-1.91,0.23
				c-2.06,0.38-2.67,1.68-2.82,4.34c-0.15,2.44-0.15,4.57-0.15,16.47V969.59z"/>
			<path class="st0" d="M1359.84,984.54c-7.39-6.63-9.22-15.32-9.22-22.57c0-5.11,1.75-14.03,8.54-20.81
				c4.58-4.58,11.51-8.16,23.25-8.16c3.05,0,7.32,0.23,11.06,0.91c2.9,0.53,5.34,0.99,7.77,1.14c0.84,0.07,0.99,0.38,0.99,0.84
				c0,0.61-0.23,1.53-0.38,4.27c-0.15,2.52-0.15,6.71-0.23,7.85c-0.07,1.14-0.23,1.6-0.69,1.6c-0.53,0-0.61-0.53-0.61-1.6
				c0-2.97-1.22-6.1-3.2-7.78c-2.67-2.29-8.54-4.34-15.25-4.34c-10.14,0-14.87,2.97-17.53,5.57c-5.57,5.34-6.86,12.12-6.86,19.9
				c0,14.56,11.21,27.9,27.52,27.9c5.72,0,10.22-0.69,13.27-3.81c1.6-1.68,2.59-5.03,2.82-6.41c0.15-0.84,0.3-1.14,0.76-1.14
				c0.38,0,0.53,0.53,0.53,1.14c0,0.53-0.91,7.17-1.68,9.76c-0.46,1.45-0.61,1.6-1.98,2.21c-3.05,1.22-8.84,1.75-13.72,1.75
				C1373.57,992.77,1365.87,989.95,1359.84,984.54z"/>
			<path class="st0" d="M1535.04,956.17c0-11.89,0-14.03-0.15-16.47c-0.15-2.59-0.76-3.81-3.28-4.34c-0.61-0.15-1.9-0.23-2.59-0.23
				c-0.31,0-0.61-0.15-0.61-0.46c0-0.46,0.38-0.61,1.22-0.61c1.75,0,3.81,0,5.49,0.08l3.13,0.15c0.53,0,15.7,0,17.46-0.08
				c1.45-0.07,2.67-0.23,3.28-0.38c0.38-0.08,0.69-0.38,1.07-0.38c0.23,0,0.31,0.3,0.31,0.69c0,0.53-0.38,1.45-0.61,3.58
				c-0.07,0.76-0.23,4.12-0.38,5.03c-0.08,0.38-0.23,0.84-0.53,0.84c-0.46,0-0.61-0.38-0.61-0.99c0-0.53-0.08-1.83-0.46-2.74
				c-0.53-1.22-1.3-2.14-5.41-2.59c-1.29-0.15-9.61-0.23-10.44-0.23c-0.31,0-0.46,0.23-0.46,0.76v21.04c0,0.53,0.08,0.76,0.46,0.76
				c0.99,0,10.37,0,12.12-0.15c1.83-0.15,2.9-0.31,3.58-1.07c0.53-0.61,0.84-0.99,1.15-0.99c0.23,0,0.38,0.15,0.38,0.61
				s-0.38,1.75-0.61,4.27c-0.15,1.52-0.31,4.34-0.31,4.88c0,0.61,0,1.45-0.53,1.45c-0.38,0-0.53-0.3-0.53-0.69
				c0-0.76,0-1.52-0.3-2.52c-0.31-1.07-0.99-2.36-3.96-2.67c-2.06-0.23-9.61-0.38-10.9-0.38c-0.38,0-0.53,0.23-0.53,0.53v6.71
				c0,2.59-0.08,11.44,0,13.04c0.23,5.26,1.37,6.25,8.84,6.25c1.98,0,5.34,0,7.32-0.84c1.98-0.84,2.9-2.36,3.43-5.49
				c0.15-0.84,0.3-1.14,0.69-1.14c0.46,0,0.46,0.61,0.46,1.14c0,0.61-0.61,5.79-0.99,7.4c-0.53,1.98-1.14,1.98-4.12,1.98
				c-5.72,0-9.91-0.15-12.89-0.23c-2.97-0.15-4.8-0.23-5.95-0.23c-0.15,0-1.45,0-3.05,0.08c-1.52,0-3.28,0.15-4.42,0.15
				c-0.84,0-1.22-0.15-1.22-0.61c0-0.23,0.15-0.46,0.61-0.46c0.69,0,1.6-0.15,2.29-0.31c1.52-0.31,1.91-1.98,2.21-4.19
				c0.38-3.2,0.38-9.22,0.38-16.54V956.17z"/>
		</g>
		<g>
			<path class="st0" d="M60.56,799c-1.13,0-1.58,0.45-2.03,1.81l-12.2,32.31c-2.26,5.65-3.39,11.07-3.39,13.78c0,4.07,2.03,7,9.04,7
				h3.39c2.71,0,3.39,0.45,3.39,1.81c0,1.81-1.36,2.26-3.84,2.26c-7.23,0-16.95-0.68-23.95-0.68c-2.49,0-14.91,0.68-26.67,0.68
				c-2.94,0-4.29-0.45-4.29-2.26c0-1.36,0.9-1.81,2.71-1.81c2.03,0,5.2-0.23,7.01-0.45c10.39-1.36,14.69-9.04,19.21-20.34
				l56.72-141.91c2.71-6.55,4.07-9.04,6.33-9.04c2.03,0,3.39,2.03,5.65,7.23c5.42,12.43,41.58,104.62,56.04,138.97
				c8.59,20.34,15.14,23.5,19.89,24.63c3.39,0.68,6.78,0.9,9.49,0.9c1.81,0,2.94,0.23,2.94,1.81c0,1.81-2.03,2.26-10.39,2.26
				c-8.14,0-24.63,0-42.71-0.45c-4.07-0.23-6.78-0.23-6.78-1.81c0-1.36,0.9-1.81,3.16-2.03c1.58-0.45,3.16-2.49,2.03-5.2
				l-18.08-47.91c-0.45-1.13-1.13-1.58-2.26-1.58H60.56z M106.66,787.7c1.13,0,1.36-0.68,1.13-1.36l-20.34-55.82
				c-0.23-0.9-0.45-2.03-1.13-2.03c-0.68,0-1.13,1.13-1.36,2.03l-20.79,55.59c-0.23,0.9,0,1.58,0.9,1.58H106.66z"/>
			<path class="st0" d="M192.09,855.49c-3.16-1.36-3.84-2.26-3.84-6.55c0-10.4,0.9-22.37,1.13-25.54c0-2.94,0.9-4.97,2.49-4.97
				c1.81,0,2.03,1.81,2.03,3.16c0,2.49,0.68,6.55,1.81,9.94c4.29,14.24,19.21,18.98,31.64,18.98c17.17,0,27.57-10.85,27.57-24.4
				c0-8.36-2.03-16.72-19.66-27.12l-11.52-6.78c-23.5-13.78-31.18-26.66-31.18-43.61c0-23.5,22.6-38.64,50.17-38.64
				c12.88,0,23.05,1.81,28.25,3.16c1.81,0.45,2.71,1.13,2.71,2.49c0,2.49-0.68,7.91-0.68,23.05c0,4.07-0.9,6.1-2.48,6.1
				c-1.36,0-2.03-1.13-2.03-3.39c0-1.81-0.9-7.68-5.2-12.65c-2.94-3.62-9.26-9.04-22.14-9.04c-14.24,0-27.12,7.46-27.12,20.56
				c0,8.59,3.16,15.37,21.02,25.31l8.13,4.52c26.22,14.46,34.35,29.15,34.35,46.55c0,14.24-5.42,25.76-19.89,35.93
				c-9.49,6.78-22.6,7.91-33.22,7.91C212.88,860.46,200.68,859.33,192.09,855.49z"/>
			<path class="st0" d="M316.39,768.26c0-29.15,0.23-34.57-0.23-40.67c-0.45-6.78-2.26-8.59-8.59-10.39
				c-1.58-0.45-4.97-0.68-7.68-0.68c-2.26,0-3.39-0.68-3.39-2.03c0-1.36,1.36-1.81,4.29-1.81c10.62,0,23.95,0.45,29.83,0.45
				c4.97,0,18.3-0.45,25.54-0.45c2.94,0,4.29,0.45,4.29,1.81c0,1.36-1.13,2.03-3.16,2.03c-2.26,0-3.39,0.23-5.88,0.68
				c-5.2,0.9-6.78,3.61-7.23,10.39c-0.45,6.1-0.45,11.52-0.45,40.67v26.89c0,28.02,5.42,38.87,15.14,46.55
				c8.81,7.01,18.3,7.68,25.09,7.68c8.59,0,18.75-2.49,26.66-10.17c11.07-10.39,11.52-27.12,11.52-46.78v-24.18
				c0-29.15-0.23-34.57-0.45-40.67c-0.45-6.55-2.03-8.59-8.36-10.39c-1.58-0.45-4.97-0.68-7.23-0.68s-3.39-0.68-3.39-2.03
				c0-1.36,1.36-1.81,4.07-1.81c10.17,0,23.5,0.45,23.73,0.45c2.26,0,15.59-0.45,23.28-0.45c2.71,0,4.07,0.45,4.07,1.81
				c0,1.36-1.13,2.03-3.39,2.03s-3.39,0.23-5.88,0.68c-5.42,0.9-6.78,3.61-7.23,10.39c-0.23,6.1-0.45,11.52-0.45,40.67v20.56
				c0,21.47-2.26,44.06-18.98,57.85c-14.01,11.75-29.15,13.78-42.03,13.78c-10.39,0-30.96-0.45-45.42-13.11
				c-10.17-8.81-18.08-23.05-18.08-50.85V768.26z"/>
			<path class="st0" d="M504.64,831.76c0.45,14.91,2.94,19.43,6.78,20.79c3.39,1.13,7.23,1.36,10.4,1.36c2.26,0,3.39,0.9,3.39,2.03
				c0,1.58-1.81,2.03-4.52,2.03c-12.88,0-22.15-0.68-25.76-0.68c-1.81,0-11.3,0.68-21.47,0.68c-2.71,0-4.52-0.23-4.52-2.03
				c0-1.13,1.36-2.03,3.16-2.03c2.71,0,6.33-0.23,9.04-0.9c5.2-1.36,5.87-6.55,6.1-23.27l1.81-113.89c0-3.84,1.36-6.55,3.39-6.55
				c2.49,0,5.2,2.94,8.59,6.33c2.49,2.49,32.31,32.99,61.24,61.24c13.56,13.33,40,40.45,42.93,43.16h0.9l-2.03-85.42
				c-0.23-11.75-2.03-15.14-6.78-16.95c-2.94-1.13-7.68-1.13-10.39-1.13c-2.49,0-3.16-0.9-3.16-2.03c0-1.58,2.03-1.81,4.97-1.81
				c10.39,0,21.02,0.45,25.31,0.45c2.26,0,9.72-0.45,19.43-0.45c2.71,0,4.52,0.23,4.52,1.81c0,1.13-1.13,2.03-3.39,2.03
				c-2.03,0-3.62,0-6.1,0.68c-5.42,1.58-7,4.97-7.23,15.82l-2.26,121.12c0,4.29-1.58,6.1-3.16,6.1c-3.39,0-6.1-2.03-8.13-4.07
				c-12.43-11.52-37.29-35.25-58.08-55.36c-21.69-20.79-42.71-44.06-46.55-47.46h-0.68L504.64,831.76z"/>
			<path class="st0" d="M708.71,724.42l-29.6,0.68c-11.52,0.23-16.27,1.58-19.21,5.88c-2.03,2.71-2.94,5.2-3.39,6.55
				c-0.45,1.58-0.9,2.49-2.26,2.49s-1.81-1.13-1.81-3.16c0-3.16,3.84-21.69,4.29-23.27c0.45-2.49,1.13-3.62,2.26-3.62
				c1.58,0,3.62,1.58,8.59,2.26c5.87,0.68,13.33,0.9,19.88,0.9h80.67c6.33,0,10.62-0.45,13.56-0.9c3.16-0.45,4.75-0.9,5.42-0.9
				c1.36,0,1.58,1.13,1.58,4.07c0,4.07-0.45,18.3-0.45,23.27c-0.23,2.03-0.68,3.16-1.81,3.16c-1.58,0-2.03-0.9-2.26-3.84l-0.23-2.03
				c-0.45-4.97-5.65-10.85-23.5-11.07l-25.08-0.45v77.74c0,17.63,0.23,32.77,1.13,41.13c0.68,5.42,1.81,9.04,7.68,9.94
				c2.71,0.45,7.23,0.68,10.17,0.68c2.26,0,3.16,1.13,3.16,2.03c0,1.36-1.58,2.03-3.84,2.03c-13.11,0-26.44-0.68-32.09-0.68
				c-4.52,0-18.08,0.68-25.99,0.68c-2.49,0-3.84-0.68-3.84-2.03c0-0.9,0.68-2.03,3.16-2.03c2.94,0,5.42-0.23,7-0.68
				c4.07-0.9,5.2-4.52,5.88-10.17c0.9-8.13,0.9-23.27,0.9-40.9V724.42z"/>
			<path class="st0" d="M800.69,785.21c0-32.77,23.05-75.25,83.38-75.25c50.17,0,81.35,27.79,81.35,71.86s-32.09,78.64-83.38,78.64
				C824.2,860.46,800.69,819.34,800.69,785.21z M935.83,788.83c0-42.48-25.53-68.7-57.62-68.7c-22.15,0-48.13,11.75-48.13,59.21
				c0,39.55,22.6,70.73,60.11,70.73C904.19,850.07,935.83,843.51,935.83,788.83z"/>
			<path class="st0" d="M998.44,855.49c-3.16-1.36-3.84-2.26-3.84-6.55c0-10.4,0.9-22.37,1.13-25.54c0-2.94,0.9-4.97,2.49-4.97
				c1.81,0,2.03,1.81,2.03,3.16c0,2.49,0.68,6.55,1.81,9.94c4.29,14.24,19.21,18.98,31.64,18.98c17.17,0,27.57-10.85,27.57-24.4
				c0-8.36-2.03-16.72-19.66-27.12l-11.53-6.78c-23.5-13.78-31.18-26.66-31.18-43.61c0-23.5,22.6-38.64,50.17-38.64
				c12.88,0,23.05,1.81,28.25,3.16c1.81,0.45,2.71,1.13,2.71,2.49c0,2.49-0.68,7.91-0.68,23.05c0,4.07-0.9,6.1-2.49,6.1
				c-1.36,0-2.03-1.13-2.03-3.39c0-1.81-0.9-7.68-5.2-12.65c-2.94-3.62-9.27-9.04-22.15-9.04c-14.24,0-27.12,7.46-27.12,20.56
				c0,8.59,3.16,15.37,21.02,25.31l8.13,4.52c26.21,14.46,34.35,29.15,34.35,46.55c0,14.24-5.42,25.76-19.89,35.93
				c-9.49,6.78-22.6,7.91-33.22,7.91C1019.23,860.46,1007.02,859.33,998.44,855.49z"/>
			<path class="st0" d="M1231.88,792.44c0,28.92,0,44.52,4.75,48.59c3.84,3.39,9.72,4.97,27.34,4.97c11.98,0,20.79-0.23,26.44-6.33
				c2.71-2.94,5.42-9.26,5.88-13.56c0.23-2.03,0.68-3.39,2.49-3.39c1.58,0,1.81,1.13,1.81,3.84c0,2.49-1.58,19.43-3.39,25.99
				c-1.36,4.97-2.49,6.1-14.24,6.1c-16.27,0-28.02-0.45-38.19-0.68c-10.17-0.45-18.3-0.68-27.57-0.68c-2.49,0-7.46,0-12.88,0.23
				c-5.2,0-11.07,0.45-15.59,0.45c-2.94,0-4.52-0.68-4.52-2.26c0-1.13,0.9-1.81,3.62-1.81c3.39,0,6.1-0.45,8.13-0.9
				c4.52-0.9,5.65-5.87,6.55-12.43c1.13-9.49,1.13-27.34,1.13-48.13v-39.77c0-34.35,0-40.67-0.45-47.9
				c-0.45-7.68-2.26-11.3-9.72-12.88c-1.81-0.45-4.52-0.68-7.46-0.68c-2.49,0-3.84-0.45-3.84-2.03s1.58-2.03,4.97-2.03
				c10.62,0,24.86,0.68,30.96,0.68c5.42,0,21.92-0.68,30.73-0.68c3.16,0,4.75,0.45,4.75,2.03s-1.36,2.03-4.07,2.03
				c-2.49,0-6.1,0.23-8.81,0.68c-6.1,1.13-7.91,4.97-8.36,12.88c-0.45,7.23-0.45,13.56-0.45,47.9V792.44z"/>
			<path class="st0" d="M1335.84,768.26c0-29.15,0-34.57-0.23-40.67c-0.45-6.55-2.26-8.59-8.59-10.39
				c-1.58-0.45-4.97-0.68-7.91-0.68c-2.03,0-3.39-0.68-3.39-2.03c0-1.36,1.58-1.81,4.52-1.81c10.39,0,23.05,0.45,28.7,0.45
				c6.33,0,50.39,0.23,54.23,0c3.62-0.23,6.78-0.9,8.36-1.13c1.13-0.23,2.26-0.9,3.16-0.9c1.13,0,1.36,0.9,1.36,1.81
				c0,1.36-1.13,3.62-1.58,12.43c-0.23,2.03-0.68,10.39-1.13,12.65c-0.23,0.9-0.68,3.16-2.26,3.16c-1.36,0-1.58-0.9-1.58-2.49
				c0-1.36-0.23-4.74-1.36-7c-1.58-3.39-3.16-6.1-13.11-7.01c-3.39-0.45-27.12-0.9-31.18-0.9c-0.9,0-1.36,0.68-1.36,1.81v47.46
				c0,1.13,0.23,2.03,1.36,2.03c4.52,0,30.28,0,34.8-0.45c4.75-0.45,7.68-0.9,9.49-2.94c1.58-1.36,2.26-2.49,3.16-2.49
				c0.9,0,1.58,0.9,1.58,2.03s-0.45,4.29-1.58,14.01c-0.45,3.84-0.9,11.52-0.9,12.88c0,1.58-0.23,4.29-2.03,4.29
				c-1.36,0-1.81-0.68-1.81-1.58c-0.23-2.03-0.23-4.52-0.68-7.01c-1.13-3.84-3.62-6.78-11.07-7.46c-3.62-0.45-26.22-0.9-31.18-0.9
				c-0.9,0-1.13,0.9-1.13,2.03v15.37c0,6.55-0.23,22.82,0,28.47c0.45,13.11,6.55,16.04,26.89,16.04c5.2,0,13.56-0.23,18.76-2.49
				c4.97-2.26,7.23-6.33,8.59-14.24c0.45-2.03,0.9-2.94,2.26-2.94c1.58,0,1.81,2.49,1.81,4.52c0,4.29-1.58,17.4-2.71,21.24
				c-1.36,4.97-3.16,4.97-10.62,4.97c-14.91,0-26.89-0.23-36.61-0.68c-9.72-0.23-17.17-0.45-23.05-0.45c-2.26,0-6.55,0.23-11.3,0.23
				c-4.75,0.23-9.72,0.45-13.78,0.45c-2.49,0-3.84-0.68-3.84-2.03c0-0.9,0.68-2.03,3.16-2.03c2.94,0,5.2-0.23,7-0.68
				c4.07-0.9,5.2-4.52,5.88-10.17c0.9-8.13,0.9-23.27,0.9-40.9V768.26z"/>
			<path class="st0" d="M1587.36,845.1c0,5.2,0,5.42-2.48,6.78c-13.33,6.55-32.99,8.59-48.59,8.59c-48.81,0-91.97-22.15-91.97-75.25
				c0-30.73,16.5-52.2,34.8-62.82c18.98-11.07,36.83-12.43,53.55-12.43c13.78,0,31.18,2.26,35.25,3.16
				c4.07,0.68,11.07,1.81,15.82,2.03c2.26,0.23,2.71,0.9,2.71,2.26c0,2.26-1.35,7.46-1.35,31.63c0,2.94-1.13,4.29-2.71,4.29
				c-1.36,0-1.81-0.9-2.03-2.49c-0.45-4.29-1.58-10.39-6.78-15.82c-5.87-6.1-20.79-14.69-43.16-14.69
				c-10.85,0-24.63,0.23-38.41,11.3c-11.07,9.04-18.3,23.27-18.3,46.77c0,41.36,26.66,71.41,69.15,71.41c5.2,0,9.27,0,14.01-2.03
				c2.94-1.36,3.84-3.39,3.84-6.78V823.4c0-9.49,0-16.72-0.23-22.6c-0.23-6.55-2.26-8.59-8.59-10.39c-1.58-0.45-4.97-0.68-7.68-0.68
				c-1.81,0-3.16-0.9-3.16-2.03c0-1.58,1.58-1.81,4.29-1.81c10.4,0,24.63,0.45,30.51,0.45c6.33,0,16.72-0.45,23.28-0.45
				c2.71,0,4.07,0.23,4.07,1.81c0,1.13-1.13,2.03-2.49,2.03c-1.58,0-3.16,0.23-5.42,0.68c-5.42,0.9-7.46,3.61-7.68,10.39
				c-0.23,5.88-0.23,13.56-0.23,23.05V845.1z"/>
			<path class="st0" d="M1651.55,809.62c-1.13,0-1.36,0.23-1.81,1.36l-10.62,25.76c-2.03,4.75-2.94,9.49-2.94,11.75
				c0,3.39,1.81,5.42,7.91,5.42h2.94c2.49,0,2.94,0.9,2.94,2.03c0,1.58-1.13,2.03-3.16,2.03c-6.55,0-15.82-0.68-22.14-0.68
				c-2.03,0-12.65,0.68-23.05,0.68c-2.49,0-3.62-0.45-3.62-2.03c0-1.13,0.68-2.03,2.26-2.03c1.81,0,4.07-0.23,5.87-0.23
				c9.04-1.36,12.43-7.23,16.5-16.95l51.98-120.89c2.26-5.42,3.84-7.68,5.87-7.68c2.94,0,3.84,1.81,5.88,6.1
				c4.74,10.62,37.96,89.26,50.62,118.41c7.68,17.4,13.33,19.88,16.95,20.56c2.94,0.45,5.2,0.68,7.46,0.68
				c1.81,0,2.71,0.68,2.71,2.03c0,1.58-1.13,2.03-8.59,2.03c-7.01,0-21.47,0-38.19-0.45c-3.62-0.23-5.88-0.23-5.88-1.58
				c0-1.13,0.45-1.81,2.49-2.03c1.36-0.23,2.71-2.03,1.81-4.29l-15.37-38.64c-0.45-1.13-1.13-1.36-2.03-1.36H1651.55z M1694.03,799
				c0.9,0,1.13-0.45,0.9-1.13l-18.76-48.81c-0.23-0.68-0.45-1.81-0.9-1.81c-0.68,0-0.9,1.13-1.13,1.81l-19.21,48.59
				c-0.45,0.9,0,1.36,0.68,1.36H1694.03z"/>
			<path class="st0" d="M1812.45,802.16c0,24.63,0,36.83,4.29,40.45c3.39,2.94,11.07,4.07,26.44,4.07c10.62,0,18.3-0.23,23.27-5.42
				c2.49-2.49,4.52-7.91,4.97-11.52c0.23-1.81,0.68-2.94,2.26-2.94c1.36,0,1.81,2.03,1.81,4.29s-1.36,16.5-2.94,22.14
				c-1.36,4.29-2.26,5.2-12.65,5.2c-14.24,0-25.76-0.23-35.71-0.68c-9.94-0.23-18.3-0.45-26.44-0.45c-2.26,0-6.55,0.23-11.3,0.23
				c-4.75,0.23-9.72,0.45-13.78,0.45c-2.49,0-3.84-0.68-3.84-2.03c0-0.9,0.68-2.03,3.16-2.03c2.94,0,5.2-0.23,7-0.68
				c4.07-0.9,5.2-4.52,5.88-10.17c0.9-8.13,0.9-23.27,0.9-40.9v-33.9c0-29.15,0-34.57-0.23-40.67c-0.45-6.55-2.26-8.59-8.59-10.39
				c-1.58-0.45-4.07-0.68-6.55-0.68c-2.26,0-3.39-0.68-3.39-2.03c0-1.36,1.36-1.81,4.29-1.81c9.26,0,21.92,0.45,27.34,0.45
				c4.75,0,21.01-0.45,28.7-0.45c2.94,0,4.29,0.45,4.29,1.81c0,1.36-1.13,2.03-3.62,2.03c-2.26,0-5.42,0.23-7.68,0.68
				c-5.42,0.9-7,3.61-7.46,10.39c-0.45,6.1-0.45,11.52-0.45,40.67V802.16z"/>
			<path class="st0" d="M1910.53,768.26c0-29.15,0-34.57-0.23-40.67c-0.45-6.55-2.26-8.59-8.59-10.39
				c-1.58-0.45-4.97-0.68-7.91-0.68c-2.03,0-3.39-0.68-3.39-2.03c0-1.36,1.58-1.81,4.52-1.81c10.39,0,23.05,0.45,28.7,0.45
				c6.33,0,50.39,0.23,54.23,0c3.62-0.23,6.78-0.9,8.36-1.13c1.13-0.23,2.26-0.9,3.16-0.9c1.13,0,1.36,0.9,1.36,1.81
				c0,1.36-1.13,3.62-1.58,12.43c-0.23,2.03-0.68,10.39-1.13,12.65c-0.23,0.9-0.68,3.16-2.26,3.16c-1.36,0-1.58-0.9-1.58-2.49
				c0-1.36-0.23-4.74-1.36-7c-1.58-3.39-3.16-6.1-13.11-7.01c-3.39-0.45-27.12-0.9-31.18-0.9c-0.9,0-1.36,0.68-1.36,1.81v47.46
				c0,1.13,0.23,2.03,1.36,2.03c4.52,0,30.28,0,34.8-0.45c4.75-0.45,7.68-0.9,9.49-2.94c1.58-1.36,2.26-2.49,3.16-2.49
				c0.9,0,1.58,0.9,1.58,2.03s-0.45,4.29-1.58,14.01c-0.45,3.84-0.9,11.52-0.9,12.88c0,1.58-0.23,4.29-2.03,4.29
				c-1.36,0-1.81-0.68-1.81-1.58c-0.23-2.03-0.23-4.52-0.68-7.01c-1.13-3.84-3.62-6.78-11.07-7.46c-3.62-0.45-26.22-0.9-31.18-0.9
				c-0.9,0-1.13,0.9-1.13,2.03v15.37c0,6.55-0.23,22.82,0,28.47c0.45,13.11,6.55,16.04,26.89,16.04c5.2,0,13.56-0.23,18.76-2.49
				c4.97-2.26,7.23-6.33,8.59-14.24c0.45-2.03,0.9-2.94,2.26-2.94c1.58,0,1.81,2.49,1.81,4.52c0,4.29-1.58,17.4-2.71,21.24
				c-1.36,4.97-3.16,4.97-10.62,4.97c-14.91,0-26.89-0.23-36.61-0.68c-9.72-0.23-17.17-0.45-23.05-0.45c-2.26,0-6.55,0.23-11.3,0.23
				c-4.75,0.23-9.72,0.45-13.78,0.45c-2.49,0-3.84-0.68-3.84-2.03c0-0.9,0.68-2.03,3.16-2.03c2.94,0,5.2-0.23,7-0.68
				c4.07-0.9,5.2-4.52,5.88-10.17c0.9-8.13,0.9-23.27,0.9-40.9V768.26z"/>
			<path class="st0" d="M2029.85,855.49c-3.16-1.36-3.84-2.26-3.84-6.55c0-10.4,0.9-22.37,1.13-25.54c0-2.94,0.9-4.97,2.49-4.97
				c1.81,0,2.03,1.81,2.03,3.16c0,2.49,0.68,6.55,1.81,9.94c4.29,14.24,19.21,18.98,31.64,18.98c17.17,0,27.57-10.85,27.57-24.4
				c0-8.36-2.03-16.72-19.66-27.12l-11.53-6.78c-23.5-13.78-31.18-26.66-31.18-43.61c0-23.5,22.6-38.64,50.17-38.64
				c12.88,0,23.05,1.81,28.25,3.16c1.81,0.45,2.71,1.13,2.71,2.49c0,2.49-0.68,7.91-0.68,23.05c0,4.07-0.9,6.1-2.49,6.1
				c-1.36,0-2.03-1.13-2.03-3.39c0-1.81-0.9-7.68-5.2-12.65c-2.94-3.62-9.27-9.04-22.15-9.04c-14.24,0-27.12,7.46-27.12,20.56
				c0,8.59,3.16,15.37,21.02,25.31l8.13,4.52c26.21,14.46,34.35,29.15,34.35,46.55c0,14.24-5.42,25.76-19.89,35.93
				c-9.49,6.78-22.6,7.91-33.22,7.91C2050.64,860.46,2038.44,859.33,2029.85,855.49z"/>
		</g>
	</g>
</g>
</svg>
