<?xml version="1.0" encoding="utf-8"?>
<!-- Generator: Adobe Illustrator 25.1.0, SVG Export Plug-In . SVG Version: 6.00 Build 0)  -->
<svg version="1.1" id="Capa_1" xmlns="http://www.w3.org/2000/svg" xmlns:xlink="http://www.w3.org/1999/xlink" x="0px" y="0px"
	 viewBox="0 0 2168.38 995.87" style="enable-background:new 0 0 2168.38 995.87;" xml:space="preserve">
<style type="text/css">
	.st0{fill:#FF4E9D;}
</style>
<path class="st0" d="M1028.48,635.66c0.38,8.29,3.66,16.1,9.89,23.45c6.21,7.34,14.41,11.4,24.57,12.14v12.99H901.94v-12.99
	c7.91,0,14.5-3.19,19.77-9.61c5.27-6.4,8.1-15.07,8.48-25.98V356.04l-115.8,328.2h-13.56L678.82,376.38l4.51,260.4
	c0,5.65,1.78,10.93,5.36,15.82c3.57,4.91,8.19,8.95,13.84,12.14c5.65,3.21,11.67,5.36,18.07,6.5v12.99H629.1v-12.99
	c10.91,0,19.58-3.11,25.98-9.33c6.4-6.21,9.78-14.77,10.16-25.7V349.28c-2.26-29.74-14.69-44.63-37.29-44.63v-15.82h135.56
	l87.55,235.56l83.6-235.56h128.22v15.25c-5.28,0.75-9.61,1.51-12.99,2.26c-3.38,0.75-6.97,2.36-10.73,4.8
	c-3.77,2.45-6.59,6.31-8.48,11.57c-1.89,5.28-3.02,11.86-3.4,19.77L1028.48,635.66z"/>
<path class="st0" d="M1330.68,396.73h65.52v11.86c-9.8,0.75-17.24,3.49-22.32,8.19c-5.08,4.72-9.7,11.78-13.84,21.18l-93.76,242.33
	c-17.71,40.67-34.55,69.67-50.56,86.98c-16.01,17.32-33.42,27.68-52.24,31.06c-10.93,1.89-23.72,1.51-38.4-1.13
	c-14.69-2.64-26.75-7.72-36.16-15.26c-9.8-7.91-16.1-18.16-18.92-30.78c-2.83-12.63-1.42-25.7,4.23-39.25
	c4.14-9.8,10.54-17.05,19.2-21.75c8.65-4.72,17.41-6.59,26.26-5.65c8.84,0.93,17.24,4.32,25.13,10.16
	c7.91,5.83,13.18,13.46,15.82,22.88c1.51,6.02,3.85,12.05,7.06,18.07c3.19,6.02,7.34,11.29,12.42,15.82
	c5.08,4.51,10.35,7.25,15.82,8.19c5.46,0.93,11.39-1.7,17.79-7.91c6.4-6.21,12.61-16.29,18.64-30.23l-118.61-286.95
	c-4.51-8.27-9.33-14.41-14.41-18.35c-5.08-3.95-12.14-6.5-21.18-7.63v-11.86h168.91v11.86c-9.42,0.75-15.63,4.15-18.64,10.16
	c-3.02,6.02-2.45,14.5,1.7,25.41l53.09,159.86l62.7-159.3c4.51-12.05,5.27-20.9,2.26-26.55c-3.02-5.65-8.85-8.84-17.5-9.61v-11.84
	H1330.68z"/>
<path class="st0" d="M1800.66,635.66c0.36,8.29,3.66,16.1,9.88,23.45c6.21,7.34,14.41,11.4,24.58,12.14v12.99h-160.99v-12.99
	c7.91,0,14.5-3.19,19.77-9.61c5.27-6.4,8.1-15.07,8.48-25.98V356.04l-115.8,328.2h-13.56l-122.01-307.87l4.51,260.4
	c0,5.65,1.78,10.93,5.36,15.82c3.57,4.91,8.19,8.95,13.84,12.14c5.65,3.21,11.67,5.36,18.07,6.5v12.99h-91.51v-12.99
	c10.91,0,19.58-3.11,25.98-9.33s9.78-14.77,10.18-25.7V349.28c-2.26-29.74-14.69-44.63-37.29-44.63v-15.82h135.56l87.55,235.56
	l83.6-235.56h128.22v15.25c-5.28,0.75-9.61,1.51-12.99,2.26c-3.38,0.75-6.97,2.36-10.73,4.8c-3.77,2.45-6.59,6.31-8.48,11.57
	c-1.89,5.28-3.02,11.86-3.4,19.77L1800.66,635.66z"/>
<path class="st0" d="M2102.87,396.73h65.52v11.86c-9.8,0.75-17.24,3.49-22.32,8.19c-5.08,4.72-9.7,11.78-13.84,21.18l-93.76,242.33
	c-17.71,40.67-34.55,69.67-50.56,86.98c-16.01,17.32-33.42,27.68-52.24,31.06c-10.93,1.89-23.72,1.51-38.4-1.13
	c-14.69-2.64-26.75-7.72-36.16-15.26c-9.8-7.91-16.1-18.16-18.92-30.78c-2.83-12.63-1.42-25.7,4.23-39.25
	c4.14-9.8,10.54-17.05,19.2-21.75c8.65-4.72,17.41-6.59,26.26-5.65c8.84,0.93,17.24,4.32,25.13,10.16
	c7.91,5.83,13.18,13.46,15.82,22.88c1.51,6.02,3.85,12.05,7.06,18.07c3.19,6.02,7.34,11.29,12.42,15.82
	c5.08,4.51,10.35,7.25,15.82,8.19c5.46,0.93,11.39-1.7,17.79-7.91c6.4-6.21,12.61-16.29,18.64-30.23l-118.63-286.95
	c-4.51-8.27-9.33-14.41-14.41-18.35s-12.14-6.5-21.18-7.63v-11.86h168.91v11.86c-9.42,0.75-15.63,4.15-18.64,10.16
	c-3.02,6.02-2.45,14.5,1.7,25.41l53.09,159.86l62.7-159.3c4.51-12.05,5.27-20.9,2.26-26.55c-3.02-5.65-8.85-8.84-17.5-9.61
	L2102.87,396.73L2102.87,396.73z"/>
<path class="st0" d="M388.92,631.98c3.85-128.99,49.44-247.33,123.66-341.93c-7.53-0.72-15.16-1.09-22.88-1.09
	c-48.38,0-93.32,14.8-130.56,40.17c-16.87-55.97-53.93-103.09-102.74-132.78c-48.82,29.61-85.96,76.64-102.93,132.61
	c-37.24-25.27-82.11-39.99-130.39-39.99c-7.8,0-15.43,0.36-23.06,1.09C74.13,384.57,119.8,502.9,123.67,631.81
	c0.17,5.96,0.27,11.92,0.27,17.87c0,6.76-0.09,13.64-0.36,20.3c23.34,5.5,47.2,9.66,71.53,12.19c20.1,2.17,40.56,3.26,61.29,3.26
	c20.73,0,41.19-1.09,61.29-3.26c24.23-2.53,48.01-6.68,71.34-12.19c-0.27-6.68-0.36-13.54-0.36-20.3
	C388.65,643.73,388.73,637.85,388.92,631.98z M278.26,579.82c-7,4.42-14.36,8.4-22.08,11.73c-8.43-3.7-16.61-8.04-24.23-13.08
	c-38.67-25.1-66.68-65.44-75.47-112.56c8.16,5.6,17.94,8.76,28.45,8.76c4.12,0,8.16-0.46,12.03-1.45
	c0.17-31.5,8.79-61.11,23.61-86.39c9.33-16.07,21.26-30.42,35.09-42.43c13.82,12,25.67,26.36,35.09,42.43
	c14.81,25.27,23.42,54.89,23.61,86.39c3.77,0.99,7.8,1.45,11.94,1.45c11.13,0,21.45-3.62,29.79-9.75
	C347.27,513.29,318.38,554.72,278.26,579.82z"/>
</svg>
