<?xml version="1.0" encoding="utf-8"?>
<!-- Generator: Adobe Illustrator 25.1.0, SVG Export Plug-In . SVG Version: 6.00 Build 0)  -->
<svg version="1.1" id="Capa_1" xmlns="http://www.w3.org/2000/svg" xmlns:xlink="http://www.w3.org/1999/xlink" x="0px" y="0px"
	 viewBox="0 0 1080 1080" style="enable-background:new 0 0 1080 1080;" xml:space="preserve">
<style type="text/css">
	.st0{fill:#111111;}
</style>
<g>
	<g>
		<path class="st0" d="M98.21,1018.62l-10.2,58.18H41.83l10.2-58.18l-37.39-83.38h51.58l15.2,43.79l30.19-43.79h56.38L98.21,1018.62
			z"/>
		<path class="st0" d="M230.57,1076.8h-38.39c0-1.8,0.2-7,0.4-9.6h-0.4c-7.8,8.8-17.79,12.4-29.59,12.4c-14.8,0-31.39-8-31.39-27.79
			c0-32.39,31.79-40.99,67.38-40.99c0.2-1,0.2-1.8,0.2-2.2c0-5.4-5.2-8.2-12.6-8.2c-8.4,0-16.79,3.6-23.39,9.2l-19.59-22.39
			c13-12.2,32.99-18.79,48.99-18.79c31.79,0,48.19,13.8,48.19,36.99c0,5.2-0.6,10.8-1.6,16.59l-6.8,38.59
			C230.97,1066.4,230.57,1073.4,230.57,1076.8z M197.38,1033.61h-2.6c-13.2,0-24.39,2.8-24.39,11.2c0,6,4.8,7.2,9.2,7.2
			c8.8,0,15.6-6.2,17.19-15L197.38,1033.61z"/>
		<path class="st0" d="M265.36,971.63h43.19c-0.2,4-1,10-1.4,13.6h0.8c6-8.6,17.99-16,31.19-16c23.39,0,32.19,14.8,32.19,30.99
			c0,4.2-0.4,9.2-1.2,13.4l-11,63.18h-44.99l9.8-55.78c0.4-2.4,0.6-5.2,0.6-6.8c0-5.2-2.8-9-9.2-9c-6,0-11.2,5.6-13,16l-10,55.58
			h-44.79l14.8-84.57C263.36,987.23,264.76,978.03,265.36,971.63z"/>
		<path class="st0" d="M397.52,971.63h43.19c-0.2,4-1,10-1.4,13.6h0.8c6-8.6,17.99-16,31.19-16c23.39,0,32.19,14.8,32.19,30.99
			c0,4.2-0.4,9.2-1.2,13.4l-11,63.18h-44.99l9.8-55.78c0.4-2.4,0.6-5.2,0.6-6.8c0-5.2-2.8-9-9.2-9c-6,0-11.2,5.6-13,16l-10,55.58
			h-44.79l14.8-84.57C395.52,987.23,396.92,978.03,397.52,971.63z"/>
		<path class="st0" d="M512.09,1076.8l18.59-105.17h44.79l-18.59,105.17H512.09z M533.48,944.44c0-14.2,10.2-25.79,25.39-25.79
			c13,0,21.99,9.2,21.99,19.39c0,14.2-10.2,25.79-25.19,25.79C542.08,963.83,533.48,954.64,533.48,944.44z"/>
		<path class="st0" d="M578.87,1076.8l26.59-151.15h45.79l-26.59,151.15H578.87z"/>
		<path class="st0" d="M757.01,1076.8h-43.19c0.2-4,1-10,1.4-13.6h-0.8c-6,8.6-17.99,16-31.19,16c-23.39,0-32.19-14.8-32.19-30.99
			c0-4.2,0.4-9.2,1.2-13.4l11-63.18h44.99l-9.8,55.78c-0.4,2.4-0.6,5.2-0.6,6.8c0,5.2,2.8,9,9.2,9c6,0,11.2-5.6,13-16l10-55.58
			h44.79l-14.8,84.57C759.01,1061.21,757.61,1070.4,757.01,1076.8z"/>
		<path class="st0" d="M859.58,1010.22c-1.8-2.6-6.8-5.6-13.4-5.6c-13.4,0-22.19,10.2-22.19,22.39c0,8,5.4,15.4,16.99,15.4
			c6.6,0,12.4-3,15.4-6l17.79,30.19c-10.6,8.4-23.79,13.4-41.39,13.4c-30.99,0-51.78-18.39-51.78-46.99
			c0-34.59,26.39-64.58,64.98-64.58c16,0,31.19,4.6,38.99,14L859.58,1010.22z"/>
		<path class="st0" d="M878.98,1076.8l18.59-105.17h44.79l-18.59,105.17H878.98z M900.37,944.44c0-14.2,10.2-25.79,25.39-25.79
			c13,0,21.99,9.2,21.99,19.39c0,14.2-10.2,25.79-25.19,25.79C908.97,963.83,900.37,954.64,900.37,944.44z"/>
		<path class="st0" d="M948.75,1033.01c0-35.39,23.79-64.58,65.18-64.58c32.79,0,57.98,16.4,57.98,46.99
			c0,35.39-23.79,64.58-65.98,64.58C973.95,1080,948.75,1063.6,948.75,1033.01z M1012.53,1005.02c-12.2,0-20.19,10.6-20.19,22.99
			c0,8.8,5.6,15.2,15.6,15.2c12.8,0,20.39-10.4,20.39-22.99C1028.33,1011.62,1022.93,1005.02,1012.53,1005.02z"/>
	</g>
	<g>
		<path class="st0" d="M802.07,0.25h-22.75C783.1,0.07,786.88,0,790.69,0C794.51,0,798.29,0.07,802.07,0.25z"/>
		<path class="st0" d="M790.69,0c-3.82,0-7.6,0.07-11.38,0.25h22.75C798.29,0.07,794.51,0,790.69,0z"/>
		<path class="st0" d="M268.58,194.87l-1.57,3.74l-40.83,99.16l-26.96,65.48c-38.98-14.17-73.96-36.74-102.7-65.48
			c-27.89-27.88-49.89-61.6-64.08-99.16c-11.66-30.83-18.04-64.27-18.04-99.16c0-34.93,6.38-68.36,18.04-99.2l196.9,0.2
			c0,0-33.77,70.19-33.07,98.99C197.36,144.83,226.86,183.16,268.58,194.87z"/>
		<path class="st0" d="M1071.92,280.75c0,5.73-0.18,11.39-0.53,17.02c-2.07,35.21-10.7,68.65-24.61,99.16
			c-17.55,38.53-43.58,72.39-75.71,99.2c-48.82,40.8-111.73,65.37-180.37,65.37c-4.42,0-8.81-0.11-13.19-0.32
			c4.56-20.97,6.95-42.73,6.95-65.05c0-34.72-5.78-68.08-16.4-99.2c-2.57-7.48-5.38-14.85-8.52-22.04
			c9.81,3.28,20.29,5.02,31.17,5.02c49.07,0,89.79-35.46,97.85-82.14c1-5.52,1.5-11.22,1.5-17.02c0-34.18-17.33-64.3-43.68-82.14
			c-15.9-10.75-35.05-17.02-55.67-17.02c-20.61,0-39.76,6.27-55.63,17.02c-25.21,17.02-42.15,45.33-43.54,77.66
			c-36.73-35.75-82.38-62.38-133.34-76.27c-1.71-0.5-3.46-0.93-5.21-1.39c-9.56-2.42-19.29-4.38-29.17-5.91l15.83-38.49l0.11-0.21
			c9.95-19.65,22.15-37.88,36.27-54.55c0.25-0.28,0.5-0.61,0.75-0.89c49.28-57.61,121.5-95.1,202.55-98.31h22.75
			c81.49,3.2,154.06,41.05,203.34,99.2c24.32,28.7,43.01,62.31,54.24,99.16C1067.64,224.57,1071.92,252.16,1071.92,280.75z"/>
		<path class="st0" d="M758.21,496.13c0,21.51-2.42,42.44-7.03,62.59c-2.85,12.53-6.53,24.75-11.02,36.57
			c-14.19,37.56-36.23,71.28-64.08,99.16c-50.92,50.92-121.28,82.43-199.06,82.43c-63.98,0-122.96-21.33-170.21-57.25
			c-7.77-5.91-15.26-12.21-22.36-18.91l-10.7,25.71l-21.26,51.74l-194.89-0.38l33.7-83.33l40.8-99.16l37.59-91.33l3.21-7.83
			l40.83-99.2l4.17-10.08l6.45-15.74l30.2-73.35l9.41-22.93l31.38-76.23l40.8-99.16l29.1-70.64v-0.04l11.73-28.52h195.43
			L385.51,457.53c-5.03,11.86-7.81,24.89-7.81,38.6c0,12.46,2.32,24.39,6.56,35.39v0.04c14.26,37.28,50.42,63.73,92.75,63.73
			c54.88,0,99.35-44.4,99.35-99.16c0-54.8-44.47-99.2-99.35-99.2h-37.34l32.56-79.08l8.27-20.08l32.99-80.04
			c1.03,0.11,2.03,0.25,3.03,0.43c10.52,1.46,20.86,3.49,30.99,6.12c49.39,12.71,93.54,38.53,128.52,73.49
			c27.89,27.88,49.93,61.6,64.08,99.16C751.82,427.77,758.21,461.2,758.21,496.13z"/>
	</g>
</g>
</svg>
