<?xml version="1.0" encoding="utf-8"?>
<!-- Generator: Adobe Illustrator 25.1.0, SVG Export Plug-In . SVG Version: 6.00 Build 0)  -->
<svg version="1.1" id="Capa_1" xmlns="http://www.w3.org/2000/svg" xmlns:xlink="http://www.w3.org/1999/xlink" x="0px" y="0px"
	 viewBox="0 0 1347.92 1080" style="enable-background:new 0 0 1347.92 1080;" xml:space="preserve">
<style type="text/css">
	.st0{fill:#9B571E;}
</style>
<g>
	<g>
		<g>
			<path class="st0" d="M706.13,296.45"/>
			<path class="st0" d="M986.47,684.38h-192.5L692.28,377.67c-0.03-0.09-0.06-0.18-0.09-0.28
				c-55.76-162.06,165.96-11.55,165.59-58.6c0,0-3.59-23.73,12.53-22.61c19.66,1.36,10.3,35.08,1.16,44.77
				c-20.77,26.28-78.03-0.58-78.03-0.58c-60.39-19.97-76.76,2.6-61.79,31.49l100.39,222.2c27.63,60.94,78.21,82.76,146.49,74.43
				L986.47,684.38z"/>
			<path class="st0" d="M361.46,684.93h192.5l101.69-306.71c0.03-0.09,0.06-0.18,0.09-0.28c55.76-162.06-165.96-11.55-165.59-58.6
				c0,0,3.59-23.73-12.53-22.61c-19.66,1.36-10.3,35.08-1.16,44.77c20.77,26.28,78.03-0.58,78.03-0.58
				c60.39-19.97,76.76,2.6,61.79,31.49L515.9,594.61c-27.63,60.94-78.21,82.76-146.49,74.43L361.46,684.93z"/>
			<path class="st0" d="M867.01,332.36l-54.86,116.33c0,49.16,109.71,49.16,109.71,0L867.01,332.36z M827.62,435.44l39.39-90.71
				l39.37,90.68c3.49,8.03,0.19,17.48-7.64,21.39c-21.26,10.64-42.44,10.6-63.52,0.01C827.41,452.89,824.14,443.45,827.62,435.44z"
				/>
			<path class="st0" d="M480.53,332.36l-54.86,116.33c0,49.16,109.71,49.16,109.71,0L480.53,332.36z M441.15,435.44l39.39-90.71
				l39.37,90.68c3.49,8.03,0.19,17.48-7.64,21.39c-21.26,10.64-42.44,10.6-63.52,0.01C440.94,452.89,437.67,443.45,441.15,435.44z"
				/>
		</g>
		<g>
			<path class="st0" d="M363.57,917.42c0,7.87,0,10.88-1.46,14.33c-1.02,2.43-3.16,4.71-7.09,7.43c-0.63,0.44-1.41,0.97-1.9,1.21
				c-0.1,0.05-0.19,0.1-0.34,0.1s-0.34-0.1-0.34-0.29c0-0.29,0.24-0.44,0.68-0.73c0.58-0.34,1.26-0.92,1.7-1.36
				c3.16-3.21,4.66-5.78,4.66-18.31v-14.04c0-7.58,0-8.94-0.1-10.49c-0.1-1.65-0.49-2.43-2.09-2.77c-0.39-0.1-1.21-0.15-1.65-0.15
				c-0.19,0-0.39-0.1-0.39-0.29c0-0.29,0.24-0.39,0.78-0.39c2.19,0,5.25,0.15,5.49,0.15c0.24,0,3.3-0.15,4.76-0.15
				c0.53,0,0.78,0.1,0.78,0.39c0,0.19-0.19,0.29-0.39,0.29c-0.34,0-0.63,0.05-1.21,0.15c-1.31,0.24-1.7,1.07-1.8,2.77
				c-0.1,1.55-0.1,2.91-0.1,10.49V917.42z"/>
			<path class="st0" d="M449.66,905.76c0-7.58,0-8.94-0.1-10.49c-0.1-1.65-0.49-2.43-2.09-2.77c-0.39-0.1-1.21-0.15-1.65-0.15
				c-0.19,0-0.39-0.1-0.39-0.29c0-0.29,0.24-0.39,0.78-0.39c2.19,0,5.15,0.15,5.59,0.15s3.35-0.15,4.81-0.15
				c0.53,0,0.78,0.1,0.78,0.39c0,0.19-0.19,0.29-0.39,0.29c-0.34,0-0.63,0.05-1.21,0.15c-1.31,0.19-1.7,1.07-1.8,2.77
				c-0.1,1.55-0.1,2.91-0.1,10.49v6.8c0,7,1.55,10.01,3.64,12c2.38,2.23,4.57,2.67,7.34,2.67c2.96,0,5.88-1.41,7.63-3.5
				c2.23-2.77,2.82-6.9,2.82-11.9v-6.07c0-7.58,0-8.94-0.1-10.49c-0.1-1.65-0.49-2.43-2.09-2.77c-0.39-0.1-1.21-0.15-1.65-0.15
				c-0.19,0-0.39-0.1-0.39-0.29c0-0.29,0.24-0.39,0.78-0.39c2.19,0,4.86,0.15,5.15,0.15c0.34,0,2.62-0.15,4.08-0.15
				c0.54,0,0.78,0.1,0.78,0.39c0,0.19-0.19,0.29-0.39,0.29c-0.34,0-0.63,0.05-1.21,0.15c-1.31,0.29-1.7,1.07-1.8,2.77
				c-0.1,1.55-0.1,2.91-0.1,10.49v5.2c0,5.25-0.58,11.08-4.47,14.53c-3.5,3.11-7.14,3.59-10.01,3.59c-1.65,0-6.56-0.19-10.01-3.45
				c-2.38-2.28-4.23-5.68-4.23-12.78V905.76z"/>
			<path class="st0" d="M562.56,927.77c-0.68-0.34-0.73-0.53-0.73-1.85c0-2.43,0.19-4.37,0.24-5.15c0.05-0.54,0.15-0.78,0.39-0.78
				c0.29,0,0.34,0.15,0.34,0.53c0,0.44,0,1.12,0.15,1.8c0.73,3.6,3.93,4.96,7.19,4.96c4.66,0,6.95-3.35,6.95-6.46
				c0-3.35-1.41-5.3-5.59-8.74l-2.19-1.8c-5.15-4.23-6.32-7.24-6.32-10.54c0-5.2,3.89-8.74,10.06-8.74c1.89,0,3.3,0.19,4.52,0.48
				c0.92,0.19,1.31,0.24,1.7,0.24c0.39,0,0.48,0.1,0.48,0.34c0,0.24-0.19,1.85-0.19,5.15c0,0.78-0.1,1.12-0.34,1.12
				c-0.29,0-0.34-0.24-0.39-0.63c-0.05-0.58-0.34-1.89-0.63-2.43c-0.29-0.54-1.6-2.58-6.07-2.58c-3.35,0-5.98,2.09-5.98,5.64
				c0,2.77,1.26,4.52,5.93,8.16l1.36,1.07c5.73,4.52,7.09,7.53,7.09,11.42c0,1.99-0.78,5.68-4.13,8.06
				c-2.09,1.46-4.71,2.04-7.34,2.04C566.79,929.08,564.55,928.74,562.56,927.77z"/>
			<path class="st0" d="M676.59,914.31c0,4.66,0,8.5,0.24,10.54c0.15,1.41,0.44,2.48,1.89,2.67c0.68,0.1,1.75,0.19,2.19,0.19
				c0.29,0,0.39,0.15,0.39,0.29c0,0.24-0.24,0.39-0.78,0.39c-2.67,0-5.73-0.15-5.98-0.15c-0.24,0-3.3,0.15-4.76,0.15
				c-0.54,0-0.78-0.1-0.78-0.39c0-0.15,0.1-0.29,0.39-0.29c0.44,0,1.02-0.1,1.46-0.19c0.97-0.19,1.21-1.26,1.41-2.67
				c0.24-2.04,0.24-5.88,0.24-10.54v-20.55l-7.19,0.1c-3.01,0.05-4.18,0.39-4.96,1.56c-0.53,0.83-0.68,1.17-0.83,1.51
				c-0.15,0.39-0.29,0.48-0.49,0.48c-0.15,0-0.24-0.15-0.24-0.44c0-0.48,0.97-4.66,1.07-5.05c0.1-0.29,0.29-0.92,0.48-0.92
				c0.34,0,0.83,0.48,2.14,0.58c1.41,0.15,3.25,0.24,3.84,0.24h18.22c1.55,0,2.67-0.1,3.45-0.24c0.73-0.1,1.17-0.24,1.36-0.24
				c0.24,0,0.24,0.29,0.24,0.58c0,1.46-0.15,4.81-0.15,5.34c0,0.44-0.15,0.63-0.34,0.63c-0.24,0-0.34-0.15-0.39-0.83l-0.05-0.54
				c-0.15-1.46-1.31-2.57-5.98-2.67l-6.12-0.1V914.31z"/>
			<path class="st0" d="M776.76,914.31c0,4.66,0,8.5,0.24,10.54c0.15,1.41,0.44,2.48,1.9,2.67c0.68,0.1,1.75,0.19,2.19,0.19
				c0.29,0,0.39,0.15,0.39,0.29c0,0.24-0.24,0.39-0.78,0.39c-2.67,0-5.73-0.15-5.97-0.15c-0.24,0-3.3,0.15-4.76,0.15
				c-0.53,0-0.78-0.1-0.78-0.39c0-0.15,0.1-0.29,0.39-0.29c0.44,0,1.02-0.1,1.46-0.19c0.97-0.19,1.21-1.26,1.41-2.67
				c0.24-2.04,0.24-5.88,0.24-10.54v-8.55c0-7.58,0-8.94-0.1-10.49c-0.1-1.65-0.58-2.48-1.65-2.72c-0.53-0.15-1.17-0.19-1.5-0.19
				c-0.19,0-0.39-0.1-0.39-0.29c0-0.29,0.24-0.39,0.78-0.39c1.6,0,4.66,0.15,4.91,0.15c0.24,0,3.3-0.15,4.76-0.15
				c0.53,0,0.78,0.1,0.78,0.39c0,0.19-0.19,0.29-0.39,0.29c-0.34,0-0.63,0.05-1.21,0.15c-1.31,0.24-1.7,1.07-1.8,2.77
				c-0.1,1.55-0.1,2.91-0.1,10.49V914.31z"/>
			<path class="st0" d="M866.54,923.83c-4.71-4.23-5.88-9.76-5.88-14.38c0-3.25,1.12-8.94,5.44-13.26c2.92-2.92,7.34-5.2,14.82-5.2
				c1.94,0,4.66,0.15,7.05,0.58c1.85,0.34,3.4,0.63,4.95,0.73c0.54,0.05,0.63,0.24,0.63,0.53c0,0.39-0.15,0.97-0.24,2.72
				c-0.1,1.6-0.1,4.28-0.15,5c-0.05,0.73-0.15,1.02-0.44,1.02c-0.34,0-0.39-0.34-0.39-1.02c0-1.89-0.78-3.89-2.04-4.96
				c-1.7-1.46-5.44-2.77-9.72-2.77c-6.46,0-9.47,1.89-11.17,3.55c-3.55,3.4-4.37,7.72-4.37,12.68c0,9.28,7.14,17.78,17.54,17.78
				c3.64,0,6.51-0.44,8.45-2.43c1.02-1.07,1.65-3.21,1.8-4.08c0.1-0.53,0.19-0.73,0.49-0.73c0.24,0,0.34,0.34,0.34,0.73
				c0,0.34-0.58,4.57-1.07,6.22c-0.29,0.92-0.39,1.02-1.26,1.41c-1.94,0.78-5.64,1.12-8.74,1.12
				C875.28,929.08,870.38,927.28,866.54,923.83z"/>
			<path class="st0" d="M978.18,905.76c0-7.58,0-8.94-0.1-10.49c-0.1-1.65-0.48-2.43-2.09-2.77c-0.39-0.1-1.21-0.15-1.65-0.15
				c-0.19,0-0.39-0.1-0.39-0.29c0-0.29,0.24-0.39,0.78-0.39c1.12,0,2.43,0,3.5,0.05l1.99,0.1c0.34,0,10.01,0,11.13-0.05
				c0.92-0.05,1.7-0.15,2.09-0.24c0.24-0.05,0.44-0.24,0.68-0.24c0.15,0,0.19,0.19,0.19,0.44c0,0.34-0.24,0.92-0.39,2.28
				c-0.05,0.49-0.15,2.62-0.24,3.21c-0.05,0.24-0.15,0.53-0.34,0.53c-0.29,0-0.39-0.24-0.39-0.63c0-0.34-0.05-1.17-0.29-1.75
				c-0.34-0.78-0.83-1.36-3.45-1.65c-0.83-0.1-6.12-0.15-6.66-0.15c-0.19,0-0.29,0.15-0.29,0.49v13.41c0,0.34,0.05,0.49,0.29,0.49
				c0.63,0,6.61,0,7.72-0.1c1.17-0.1,1.85-0.19,2.28-0.68c0.34-0.39,0.54-0.63,0.73-0.63c0.15,0,0.24,0.1,0.24,0.39
				s-0.24,1.12-0.39,2.72c-0.1,0.97-0.19,2.77-0.19,3.11c0,0.39,0,0.92-0.34,0.92c-0.24,0-0.34-0.19-0.34-0.44
				c0-0.48,0-0.97-0.19-1.6c-0.19-0.68-0.63-1.51-2.53-1.7c-1.31-0.15-6.12-0.24-6.95-0.24c-0.24,0-0.34,0.15-0.34,0.34v4.28
				c0,1.65-0.05,7.29,0,8.31c0.15,3.35,0.87,3.98,5.64,3.98c1.26,0,3.4,0,4.66-0.53c1.26-0.54,1.85-1.51,2.19-3.5
				c0.1-0.53,0.19-0.73,0.44-0.73c0.29,0,0.29,0.39,0.29,0.73c0,0.39-0.39,3.69-0.63,4.71c-0.34,1.26-0.73,1.26-2.62,1.26
				c-3.64,0-6.32-0.1-8.21-0.15c-1.89-0.1-3.06-0.15-3.79-0.15c-0.1,0-0.92,0-1.94,0.05c-0.97,0-2.09,0.1-2.82,0.1
				c-0.53,0-0.78-0.1-0.78-0.39c0-0.15,0.1-0.29,0.39-0.29c0.44,0,1.02-0.1,1.46-0.19c0.97-0.19,1.21-1.26,1.41-2.67
				c0.24-2.04,0.24-5.88,0.24-10.54V905.76z"/>
		</g>
		<g>
			<path class="st0" d="M38.59,805.6c-0.72,0-1.01,0.29-1.3,1.15l-7.78,20.59c-1.44,3.6-2.16,7.06-2.16,8.78
				c0,2.59,1.3,4.46,5.76,4.46h2.16c1.73,0,2.16,0.29,2.16,1.15c0,1.15-0.86,1.44-2.45,1.44c-4.61,0-10.8-0.43-15.26-0.43
				c-1.58,0-9.5,0.43-16.99,0.43c-1.87,0-2.74-0.29-2.74-1.44c0-0.86,0.58-1.15,1.73-1.15c1.3,0,3.31-0.14,4.46-0.29
				c6.62-0.86,9.36-5.76,12.24-12.96l36.14-90.43c1.73-4.17,2.59-5.76,4.03-5.76c1.3,0,2.16,1.3,3.6,4.61
				c3.46,7.92,26.5,66.67,35.71,88.56c5.47,12.96,9.65,14.98,12.67,15.7c2.16,0.43,4.32,0.58,6.05,0.58c1.15,0,1.87,0.14,1.87,1.15
				c0,1.15-1.3,1.44-6.62,1.44c-5.18,0-15.7,0-27.22-0.29c-2.59-0.14-4.32-0.14-4.32-1.15c0-0.86,0.58-1.15,2.02-1.3
				c1.01-0.29,2.02-1.58,1.3-3.31l-11.52-30.53c-0.29-0.72-0.72-1.01-1.44-1.01H38.59z M67.97,798.4c0.72,0,0.86-0.43,0.72-0.86
				l-12.96-35.57c-0.14-0.58-0.29-1.3-0.72-1.3c-0.43,0-0.72,0.72-0.86,1.3L40.9,797.39c-0.14,0.58,0,1.01,0.58,1.01H67.97z"/>
			<path class="st0" d="M122.41,841.6c-2.02-0.86-2.45-1.44-2.45-4.18c0-6.63,0.58-14.26,0.72-16.27c0-1.87,0.58-3.17,1.58-3.17
				c1.15,0,1.3,1.15,1.3,2.01c0,1.58,0.43,4.18,1.15,6.34c2.73,9.07,12.24,12.09,20.16,12.09c10.94,0,17.57-6.91,17.57-15.55
				c0-5.33-1.3-10.66-12.53-17.28l-7.34-4.32c-14.98-8.78-19.87-16.99-19.87-27.79c0-14.98,14.4-24.62,31.97-24.62
				c8.21,0,14.69,1.15,18,2.02c1.15,0.29,1.73,0.72,1.73,1.58c0,1.58-0.43,5.04-0.43,14.69c0,2.59-0.58,3.89-1.58,3.89
				c-0.86,0-1.3-0.72-1.3-2.16c0-1.15-0.58-4.9-3.31-8.06c-1.87-2.3-5.9-5.76-14.11-5.76c-9.07,0-17.28,4.75-17.28,13.1
				c0,5.47,2.02,9.79,13.39,16.13l5.18,2.88c16.71,9.22,21.89,18.58,21.89,29.66c0,9.07-3.46,16.42-12.67,22.89
				c-6.05,4.32-14.4,5.04-21.17,5.04C135.66,844.77,127.88,844.05,122.41,841.6z"/>
			<path class="st0" d="M201.61,786.02c0-18.58,0.14-22.03-0.14-25.92c-0.29-4.32-1.44-5.47-5.47-6.62
				c-1.01-0.29-3.17-0.43-4.9-0.43c-1.44,0-2.16-0.43-2.16-1.3s0.86-1.15,2.73-1.15c6.77,0,15.26,0.29,19.01,0.29
				c3.17,0,11.66-0.29,16.27-0.29c1.87,0,2.73,0.29,2.73,1.15s-0.72,1.3-2.01,1.3c-1.44,0-2.16,0.14-3.74,0.43
				c-3.31,0.58-4.32,2.3-4.61,6.62c-0.29,3.89-0.29,7.34-0.29,25.92v17.14c0,17.86,3.46,24.77,9.65,29.66
				c5.62,4.46,11.66,4.9,15.99,4.9c5.47,0,11.95-1.58,16.99-6.48c7.06-6.62,7.34-17.28,7.34-29.81v-15.41
				c0-18.58-0.14-22.03-0.29-25.92c-0.29-4.18-1.3-5.47-5.33-6.62c-1.01-0.29-3.17-0.43-4.61-0.43c-1.44,0-2.16-0.43-2.16-1.3
				s0.86-1.15,2.59-1.15c6.48,0,14.98,0.29,15.12,0.29c1.44,0,9.94-0.29,14.83-0.29c1.73,0,2.59,0.29,2.59,1.15s-0.72,1.3-2.16,1.3
				s-2.16,0.14-3.74,0.43c-3.45,0.58-4.32,2.3-4.61,6.62c-0.14,3.89-0.29,7.34-0.29,25.92v13.1c0,13.68-1.44,28.08-12.1,36.86
				c-8.93,7.49-18.58,8.78-26.78,8.78c-6.62,0-19.73-0.29-28.94-8.35c-6.48-5.62-11.52-14.69-11.52-32.4V786.02z"/>
			<path class="st0" d="M321.57,826.48c0.29,9.5,1.87,12.38,4.32,13.25c2.16,0.72,4.61,0.86,6.63,0.86c1.44,0,2.16,0.58,2.16,1.3
				c0,1.01-1.15,1.3-2.88,1.3c-8.21,0-14.11-0.43-16.42-0.43c-1.15,0-7.2,0.43-13.68,0.43c-1.73,0-2.88-0.14-2.88-1.3
				c0-0.72,0.86-1.3,2.02-1.3c1.73,0,4.03-0.14,5.76-0.58c3.31-0.86,3.74-4.17,3.89-14.83l1.15-72.57c0-2.45,0.86-4.18,2.16-4.18
				c1.58,0,3.31,1.87,5.47,4.03c1.58,1.58,20.59,21.02,39.02,39.02c8.64,8.5,25.49,25.78,27.36,27.5h0.58l-1.3-54.43
				c-0.14-7.49-1.3-9.65-4.32-10.8c-1.87-0.72-4.9-0.72-6.62-0.72c-1.58,0-2.02-0.58-2.02-1.3c0-1.01,1.3-1.15,3.17-1.15
				c6.62,0,13.39,0.29,16.13,0.29c1.44,0,6.19-0.29,12.38-0.29c1.73,0,2.88,0.14,2.88,1.15c0,0.72-0.72,1.3-2.16,1.3
				c-1.3,0-2.3,0-3.89,0.43c-3.45,1.01-4.46,3.17-4.61,10.08l-1.44,77.18c0,2.74-1.01,3.89-2.02,3.89c-2.16,0-3.89-1.3-5.18-2.59
				c-7.92-7.34-23.76-22.46-37.01-35.28c-13.82-13.25-27.22-28.08-29.66-30.24h-0.43L321.57,826.48z"/>
			<path class="st0" d="M451.61,758.08l-18.86,0.43c-7.34,0.14-10.37,1.01-12.24,3.74c-1.3,1.73-1.87,3.31-2.16,4.17
				c-0.29,1.01-0.58,1.58-1.44,1.58c-0.86,0-1.15-0.72-1.15-2.02c0-2.01,2.45-13.82,2.74-14.83c0.29-1.58,0.72-2.3,1.44-2.3
				c1.01,0,2.3,1.01,5.47,1.44c3.74,0.43,8.5,0.58,12.67,0.58h51.41c4.03,0,6.77-0.29,8.64-0.58c2.02-0.29,3.02-0.58,3.45-0.58
				c0.86,0,1.01,0.72,1.01,2.59c0,2.59-0.29,11.66-0.29,14.83c-0.14,1.3-0.43,2.02-1.15,2.02c-1.01,0-1.3-0.58-1.44-2.45l-0.14-1.3
				c-0.29-3.17-3.6-6.91-14.98-7.06l-15.98-0.29v49.54c0,11.23,0.14,20.88,0.72,26.21c0.43,3.46,1.15,5.76,4.9,6.34
				c1.73,0.29,4.61,0.43,6.48,0.43c1.44,0,2.02,0.72,2.02,1.3c0,0.86-1.01,1.3-2.45,1.3c-8.35,0-16.85-0.43-20.45-0.43
				c-2.88,0-11.52,0.43-16.56,0.43c-1.58,0-2.45-0.43-2.45-1.3c0-0.58,0.43-1.3,2.02-1.3c1.87,0,3.45-0.14,4.46-0.43
				c2.59-0.58,3.31-2.88,3.74-6.48c0.58-5.18,0.58-14.83,0.58-26.06V758.08z"/>
			<path class="st0" d="M510.23,796.82c0-20.88,14.69-47.95,53.13-47.95c31.97,0,51.84,17.71,51.84,45.79s-20.45,50.11-53.13,50.11
				C525.21,844.77,510.23,818.56,510.23,796.82z M596.34,799.12c0-27.07-16.27-43.78-36.72-43.78c-14.11,0-30.67,7.49-30.67,37.73
				c0,25.2,14.4,45.07,38.3,45.07C576.18,838.14,596.34,833.97,596.34,799.12z"/>
			<path class="st0" d="M636.24,841.6c-2.01-0.86-2.45-1.44-2.45-4.18c0-6.63,0.58-14.26,0.72-16.27c0-1.87,0.58-3.17,1.58-3.17
				c1.15,0,1.29,1.15,1.29,2.01c0,1.58,0.43,4.18,1.15,6.34c2.74,9.07,12.24,12.09,20.16,12.09c10.94,0,17.57-6.91,17.57-15.55
				c0-5.33-1.3-10.66-12.53-17.28l-7.35-4.32c-14.98-8.78-19.87-16.99-19.87-27.79c0-14.98,14.4-24.62,31.97-24.62
				c8.21,0,14.69,1.15,18,2.02c1.15,0.29,1.73,0.72,1.73,1.58c0,1.58-0.43,5.04-0.43,14.69c0,2.59-0.58,3.89-1.58,3.89
				c-0.86,0-1.3-0.72-1.3-2.16c0-1.15-0.58-4.9-3.31-8.06c-1.87-2.3-5.91-5.76-14.11-5.76c-9.07,0-17.28,4.75-17.28,13.1
				c0,5.47,2.02,9.79,13.39,16.13l5.18,2.88c16.7,9.22,21.89,18.58,21.89,29.66c0,9.07-3.46,16.42-12.67,22.89
				c-6.05,4.32-14.4,5.04-21.17,5.04C649.49,844.77,641.71,844.05,636.24,841.6z"/>
			<path class="st0" d="M784.99,801.42c0,18.43,0,28.37,3.02,30.96c2.45,2.16,6.19,3.17,17.42,3.17c7.63,0,13.25-0.14,16.85-4.03
				c1.73-1.87,3.46-5.9,3.74-8.64c0.14-1.3,0.43-2.16,1.58-2.16c1.01,0,1.15,0.72,1.15,2.45c0,1.58-1.01,12.38-2.16,16.56
				c-0.86,3.17-1.58,3.89-9.07,3.89c-10.37,0-17.86-0.29-24.34-0.43c-6.48-0.29-11.66-0.43-17.57-0.43c-1.58,0-4.75,0-8.21,0.14
				c-3.31,0-7.06,0.29-9.94,0.29c-1.87,0-2.88-0.43-2.88-1.44c0-0.72,0.58-1.15,2.3-1.15c2.16,0,3.89-0.29,5.18-0.58
				c2.88-0.58,3.6-3.74,4.18-7.92c0.72-6.05,0.72-17.42,0.72-30.67v-25.34c0-21.89,0-25.92-0.29-30.53c-0.29-4.9-1.44-7.2-6.19-8.21
				c-1.15-0.29-2.88-0.43-4.75-0.43c-1.58,0-2.45-0.29-2.45-1.29c0-1.01,1.01-1.3,3.17-1.3c6.77,0,15.84,0.43,19.73,0.43
				c3.46,0,13.97-0.43,19.58-0.43c2.02,0,3.02,0.29,3.02,1.3c0,1.01-0.86,1.29-2.59,1.29c-1.58,0-3.89,0.14-5.62,0.43
				c-3.89,0.72-5.04,3.17-5.33,8.21c-0.29,4.61-0.29,8.64-0.29,30.53V801.42z"/>
			<path class="st0" d="M851.24,786.02c0-18.58,0-22.03-0.14-25.92c-0.29-4.18-1.44-5.47-5.47-6.62c-1.01-0.29-3.17-0.43-5.04-0.43
				c-1.3,0-2.16-0.43-2.16-1.3s1.01-1.15,2.88-1.15c6.62,0,14.69,0.29,18.29,0.29c4.03,0,32.11,0.14,34.56,0
				c2.3-0.14,4.32-0.58,5.33-0.72c0.72-0.14,1.44-0.58,2.01-0.58c0.72,0,0.86,0.58,0.86,1.15c0,0.86-0.72,2.3-1.01,7.92
				c-0.14,1.3-0.43,6.62-0.72,8.06c-0.14,0.58-0.43,2.02-1.44,2.02c-0.86,0-1.01-0.58-1.01-1.58c0-0.86-0.14-3.02-0.86-4.46
				c-1.01-2.16-2.02-3.89-8.35-4.46c-2.16-0.29-17.28-0.58-19.87-0.58c-0.58,0-0.86,0.43-0.86,1.15v30.24c0,0.72,0.14,1.3,0.86,1.3
				c2.88,0,19.3,0,22.17-0.29c3.02-0.29,4.9-0.58,6.05-1.87c1.01-0.86,1.44-1.58,2.02-1.58c0.57,0,1.01,0.58,1.01,1.3
				c0,0.72-0.29,2.74-1.01,8.93c-0.29,2.45-0.58,7.34-0.58,8.21c0,1.01-0.14,2.74-1.3,2.74c-0.86,0-1.15-0.43-1.15-1.01
				c-0.14-1.3-0.14-2.88-0.43-4.46c-0.72-2.45-2.3-4.32-7.06-4.75c-2.3-0.29-16.71-0.58-19.87-0.58c-0.58,0-0.72,0.58-0.72,1.3v9.79
				c0,4.17-0.14,14.54,0,18.14c0.29,8.35,4.18,10.22,17.14,10.22c3.31,0,8.64-0.14,11.95-1.58c3.17-1.44,4.61-4.03,5.47-9.07
				c0.29-1.3,0.58-1.87,1.44-1.87c1.01,0,1.15,1.58,1.15,2.88c0,2.73-1.01,11.09-1.73,13.53c-0.86,3.17-2.02,3.17-6.77,3.17
				c-9.5,0-17.14-0.14-23.33-0.43c-6.19-0.14-10.94-0.29-14.69-0.29c-1.44,0-4.18,0.14-7.2,0.14c-3.02,0.14-6.19,0.29-8.78,0.29
				c-1.58,0-2.45-0.43-2.45-1.3c0-0.58,0.43-1.3,2.02-1.3c1.87,0,3.31-0.14,4.46-0.43c2.59-0.58,3.31-2.88,3.74-6.48
				c0.58-5.18,0.58-14.83,0.58-26.06V786.02z"/>
			<path class="st0" d="M1011.52,834.98c0,3.31,0,3.45-1.58,4.32c-8.5,4.18-21.02,5.47-30.96,5.47c-31.1,0-58.61-14.11-58.61-47.95
				c0-19.58,10.51-33.26,22.18-40.03c12.1-7.06,23.47-7.92,34.13-7.92c8.78,0,19.87,1.44,22.46,2.02c2.59,0.43,7.06,1.15,10.08,1.3
				c1.44,0.14,1.73,0.58,1.73,1.44c0,1.44-0.86,4.75-0.86,20.16c0,1.87-0.72,2.74-1.73,2.74c-0.86,0-1.15-0.58-1.3-1.58
				c-0.29-2.73-1.01-6.62-4.32-10.08c-3.74-3.89-13.25-9.36-27.5-9.36c-6.91,0-15.7,0.14-24.48,7.2
				c-7.06,5.76-11.66,14.83-11.66,29.81c0,26.35,16.99,45.5,44.06,45.5c3.31,0,5.9,0,8.93-1.3c1.87-0.86,2.45-2.16,2.45-4.32v-11.23
				c0-6.05,0-10.65-0.14-14.4c-0.14-4.18-1.44-5.47-5.47-6.62c-1.01-0.29-3.17-0.43-4.9-0.43c-1.15,0-2.01-0.58-2.01-1.3
				c0-1.01,1.01-1.15,2.73-1.15c6.63,0,15.7,0.29,19.44,0.29c4.03,0,10.66-0.29,14.83-0.29c1.73,0,2.59,0.14,2.59,1.15
				c0,0.72-0.72,1.3-1.58,1.3c-1.01,0-2.01,0.14-3.45,0.43c-3.46,0.58-4.75,2.3-4.9,6.62c-0.14,3.74-0.14,8.64-0.14,14.69V834.98z"
				/>
			<path class="st0" d="M1052.42,812.37c-0.72,0-0.86,0.14-1.15,0.86l-6.77,16.42c-1.3,3.02-1.87,6.05-1.87,7.49
				c0,2.16,1.15,3.45,5.04,3.45h1.87c1.58,0,1.87,0.58,1.87,1.3c0,1.01-0.72,1.3-2.02,1.3c-4.18,0-10.08-0.43-14.11-0.43
				c-1.3,0-8.06,0.43-14.69,0.43c-1.58,0-2.3-0.29-2.3-1.3c0-0.72,0.43-1.3,1.44-1.3c1.15,0,2.59-0.14,3.74-0.14
				c5.76-0.86,7.92-4.61,10.51-10.8l33.12-77.04c1.44-3.46,2.45-4.9,3.74-4.9c1.87,0,2.45,1.15,3.74,3.89
				c3.02,6.77,24.19,56.88,32.25,75.46c4.9,11.09,8.5,12.67,10.8,13.1c1.87,0.29,3.31,0.43,4.75,0.43c1.15,0,1.73,0.43,1.73,1.3
				c0,1.01-0.72,1.3-5.47,1.3c-4.46,0-13.68,0-24.33-0.29c-2.3-0.14-3.74-0.14-3.74-1.01c0-0.72,0.29-1.15,1.58-1.3
				c0.86-0.14,1.73-1.3,1.15-2.73l-9.79-24.62c-0.29-0.72-0.72-0.86-1.3-0.86H1052.42z M1079.49,805.6c0.58,0,0.72-0.29,0.58-0.72
				l-11.95-31.1c-0.14-0.43-0.29-1.15-0.57-1.15c-0.43,0-0.58,0.72-0.72,1.15l-12.24,30.96c-0.29,0.58,0,0.86,0.43,0.86H1079.49z"/>
			<path class="st0" d="M1154.95,807.62c0,15.7,0,23.47,2.74,25.78c2.16,1.87,7.06,2.59,16.85,2.59c6.77,0,11.66-0.14,14.83-3.46
				c1.58-1.58,2.88-5.04,3.17-7.34c0.14-1.15,0.43-1.87,1.44-1.87c0.86,0,1.15,1.3,1.15,2.74s-0.86,10.51-1.87,14.11
				c-0.86,2.74-1.44,3.31-8.06,3.31c-9.07,0-16.42-0.14-22.75-0.43c-6.34-0.14-11.66-0.29-16.85-0.29c-1.44,0-4.18,0.14-7.2,0.14
				c-3.02,0.14-6.19,0.29-8.78,0.29c-1.58,0-2.45-0.43-2.45-1.3c0-0.58,0.43-1.3,2.02-1.3c1.87,0,3.31-0.14,4.46-0.43
				c2.59-0.58,3.31-2.88,3.74-6.48c0.58-5.18,0.58-14.83,0.58-26.06v-21.6c0-18.58,0-22.03-0.14-25.92
				c-0.29-4.18-1.44-5.47-5.47-6.62c-1.01-0.29-2.59-0.43-4.18-0.43c-1.44,0-2.16-0.43-2.16-1.3s0.86-1.15,2.74-1.15
				c5.9,0,13.97,0.29,17.42,0.29c3.02,0,13.39-0.29,18.29-0.29c1.87,0,2.74,0.29,2.74,1.15s-0.72,1.3-2.3,1.3
				c-1.44,0-3.46,0.14-4.9,0.43c-3.45,0.58-4.46,2.3-4.75,6.62c-0.29,3.89-0.29,7.34-0.29,25.92V807.62z"/>
			<path class="st0" d="M1217.46,786.02c0-18.58,0-22.03-0.14-25.92c-0.29-4.18-1.44-5.47-5.47-6.62c-1.01-0.29-3.17-0.43-5.04-0.43
				c-1.3,0-2.16-0.43-2.16-1.3s1.01-1.15,2.88-1.15c6.62,0,14.69,0.29,18.29,0.29c4.03,0,32.11,0.14,34.56,0
				c2.3-0.14,4.32-0.58,5.33-0.72c0.72-0.14,1.44-0.58,2.01-0.58c0.72,0,0.86,0.58,0.86,1.15c0,0.86-0.72,2.3-1.01,7.92
				c-0.14,1.3-0.43,6.62-0.72,8.06c-0.14,0.58-0.43,2.02-1.44,2.02c-0.86,0-1.01-0.58-1.01-1.58c0-0.86-0.14-3.02-0.86-4.46
				c-1.01-2.16-2.02-3.89-8.35-4.46c-2.16-0.29-17.28-0.58-19.87-0.58c-0.58,0-0.86,0.43-0.86,1.15v30.24c0,0.72,0.14,1.3,0.86,1.3
				c2.88,0,19.3,0,22.17-0.29c3.02-0.29,4.9-0.58,6.05-1.87c1.01-0.86,1.44-1.58,2.02-1.58c0.57,0,1.01,0.58,1.01,1.3
				c0,0.72-0.29,2.74-1.01,8.93c-0.29,2.45-0.58,7.34-0.58,8.21c0,1.01-0.14,2.74-1.3,2.74c-0.86,0-1.15-0.43-1.15-1.01
				c-0.14-1.3-0.14-2.88-0.43-4.46c-0.72-2.45-2.3-4.32-7.06-4.75c-2.3-0.29-16.71-0.58-19.87-0.58c-0.58,0-0.72,0.58-0.72,1.3v9.79
				c0,4.17-0.14,14.54,0,18.14c0.29,8.35,4.18,10.22,17.14,10.22c3.31,0,8.64-0.14,11.95-1.58c3.17-1.44,4.61-4.03,5.47-9.07
				c0.29-1.3,0.58-1.87,1.44-1.87c1.01,0,1.15,1.58,1.15,2.88c0,2.73-1.01,11.09-1.73,13.53c-0.86,3.17-2.02,3.17-6.77,3.17
				c-9.5,0-17.14-0.14-23.33-0.43c-6.19-0.14-10.94-0.29-14.69-0.29c-1.44,0-4.18,0.14-7.2,0.14c-3.02,0.14-6.19,0.29-8.78,0.29
				c-1.58,0-2.45-0.43-2.45-1.3c0-0.58,0.43-1.3,2.02-1.3c1.87,0,3.31-0.14,4.46-0.43c2.59-0.58,3.31-2.88,3.74-6.48
				c0.58-5.18,0.58-14.83,0.58-26.06V786.02z"/>
			<path class="st0" d="M1293.49,841.6c-2.01-0.86-2.45-1.44-2.45-4.18c0-6.63,0.58-14.26,0.72-16.27c0-1.87,0.58-3.17,1.58-3.17
				c1.15,0,1.29,1.15,1.29,2.01c0,1.58,0.43,4.18,1.15,6.34c2.74,9.07,12.24,12.09,20.16,12.09c10.94,0,17.57-6.91,17.57-15.55
				c0-5.33-1.3-10.66-12.53-17.28l-7.35-4.32c-14.98-8.78-19.87-16.99-19.87-27.79c0-14.98,14.4-24.62,31.97-24.62
				c8.21,0,14.69,1.15,18,2.02c1.15,0.29,1.73,0.72,1.73,1.58c0,1.58-0.43,5.04-0.43,14.69c0,2.59-0.58,3.89-1.58,3.89
				c-0.86,0-1.3-0.72-1.3-2.16c0-1.15-0.58-4.9-3.31-8.06c-1.87-2.3-5.91-5.76-14.11-5.76c-9.07,0-17.28,4.75-17.28,13.1
				c0,5.47,2.02,9.79,13.39,16.13l5.18,2.88c16.7,9.22,21.89,18.58,21.89,29.66c0,9.07-3.46,16.42-12.67,22.89
				c-6.05,4.32-14.4,5.04-21.17,5.04C1306.74,844.77,1298.96,844.05,1293.49,841.6z"/>
		</g>
	</g>
</g>
</svg>
