<?xml version="1.0" encoding="utf-8"?>
<!-- Generator: Adobe Illustrator 25.1.0, SVG Export Plug-In . SVG Version: 6.00 Build 0)  -->
<svg version="1.1" id="Capa_1" xmlns="http://www.w3.org/2000/svg" xmlns:xlink="http://www.w3.org/1999/xlink" x="0px" y="0px"
	 viewBox="0 0 2040.31 1080" style="enable-background:new 0 0 2040.31 1080;" xml:space="preserve">
<style type="text/css">
	.st0{fill:#DF2E00;}
	.st1{fill:#00BFA4;}
</style>
<path class="st0" d="M435.63,466.42c0,25.36-38.43,25.36-38.43,0C397.19,441.06,435.63,441.06,435.63,466.42z M400.13,502.99v132.13
	h32.57V502.99H400.13z"/>
<path class="st0" d="M645.52,634.62H465.26v-31.09l54.07-70.88h-54.07v-29.63h101.32v29.53l-51.66,70.04
	c24.97,4.04,114.15,17.87,130.6,20.84"/>
<g>
	<path class="st0" d="M367.51,601.93v32.58H236.17L28.07,458.57H5.48c-3.03,0-5.48-2.45-5.48-5.48c0-2.99,2.45-5.44,5.48-5.44h44.91
		L271.4,601.93H367.51z"/>
</g>
<polygon class="st1" points="367.51,502.97 367.51,569.26 335,569.26 335,527.7 202.61,514.06 186.17,502.97 "/>
<circle class="st0" cx="333.68" cy="676.15" r="22.6"/>
<circle class="st0" cx="202.71" cy="676.15" r="22.6"/>
<g>
	<path class="st0" d="M798.19,522.67l-48.27,73.84h-3.24l-48.63-73.84v112.02h-9.73V508.62c4.68,0,6.84,0,11.53,0l48.27,73.48
		l47.73-73.48h11.89v126.07h-9.55V522.67z"/>
	<path class="st0" d="M864.46,634.69V508.62H874v126.07H864.46z"/>
	<path class="st0" d="M934.87,508.62l84.83,104.28V508.62h9.55v126.07h-3.78l-85.01-104.1v104.1h-9.73V508.62H934.87z"/>
	<path class="st0" d="M1086.33,634.69V508.62h9.55v126.07H1086.33z"/>
	<path class="st0" d="M1239.24,610.91h-65.92l-10.81,23.77h-25.75l56.55-126.07h25.93l56.55,126.07h-25.93L1239.24,610.91z
		 M1206.28,535.09l-23.41,53.67h46.83L1206.28,535.09z"/>
	<path class="st0" d="M1415.91,545.18c0,9.73-4.68,19.09-16.39,24.31c14.77,4.5,20.17,20.17,20.17,28.09
		c0,28.1-21.07,37.1-47.19,37.1c-19.99,0-39.8,0-59.79,0V508.62c19.81,0,39.8,0,59.79,0
		C1397.36,508.62,1415.91,519.78,1415.91,545.18z M1336.13,559.23h36.38c14.95,0,19.81-6.3,19.81-13.51
		c0-5.76-4.68-15.49-19.81-15.49h-36.38V559.23z M1336.13,612.53h36.38c9.73,0,23.59-3.24,23.59-15.13
		c0-11.35-13.87-17.29-23.59-17.29h-36.38V612.53z"/>
	<path class="st0" d="M1554.76,610.91h-65.92l-10.81,23.77h-25.75l56.55-126.07h25.93l56.55,126.07h-25.93L1554.76,610.91z
		 M1521.81,535.09l-23.41,53.67h46.83L1521.81,535.09z"/>
	<path class="st0" d="M1706.76,539.05c-4.32-7.2-16.21-14.05-29.9-14.05c-17.65,0-26.11,7.38-26.11,16.75
		c0,10.99,12.97,14.05,28.1,15.85c26.29,3.24,50.79,10.09,50.79,40.16c0,28.1-24.85,40.16-52.95,40.16
		c-25.75,0-45.56-7.92-54.93-30.98l19.81-10.27c5.58,13.87,20.17,19.99,35.48,19.99c14.95,0,29-5.22,29-18.91
		c0-11.89-12.43-16.75-29.18-18.55c-25.75-3.06-49.53-9.91-49.53-38.18c0-25.93,25.57-36.56,48.81-36.74
		c19.63,0,39.98,5.58,49.53,25.03L1706.76,539.05z"/>
	<path class="st0" d="M1809.42,530.23h-39.98v-21.61c36.38,0,67.18,0,103.74,0v21.61h-39.98v104.46h-23.77V530.23z"/>
	<path class="st0" d="M2040.3,572.37c-0.36,32.6-20.35,65.2-64.66,65.2c-44.3,0-64.84-31.88-64.84-65.02s21.25-66.46,64.84-66.46
		C2019.05,506.1,2040.66,539.41,2040.3,572.37z M1934.22,572.91c0.54,20.71,11.71,42.86,41.42,42.86
		c29.72,0,40.88-22.33,41.24-43.04c0.36-21.25-11.53-45.02-41.24-45.02C1945.93,527.71,1933.68,551.66,1934.22,572.91z"/>
</g>
</svg>
