<?xml version="1.0" encoding="utf-8"?>
<!-- Generator: Adobe Illustrator 25.1.0, SVG Export Plug-In . SVG Version: 6.00 Build 0)  -->
<svg version="1.1" id="Capa_1" xmlns="http://www.w3.org/2000/svg" xmlns:xlink="http://www.w3.org/1999/xlink" x="0px" y="0px"
	 viewBox="0 0 1080 610.65" style="enable-background:new 0 0 1080 610.65;" xml:space="preserve">
<style type="text/css">
	.st0{fill:#004F37;}
	.st1{font-family:'SakkalMajalla';}
	.st2{font-size:301.5873px;}
</style>
<g>
	<path class="st0" d="M653.75,219.28c0,0.89-0.07,1.79-0.07,2.75c-0.07,3.2-0.37,6.03-0.89,8.63c-0.3,1.64-0.67,3.27-1.19,4.76
		c-0.07,0.37-0.22,0.74-0.3,1.04l-0.37,0.89c-0.3,1.04-0.74,2.23-1.19,3.2c-8.48,19.5-27.69,32.23-49.05,32.23
		c-14.22,0-27.84-5.73-37.89-15.85c-0.45,2.9-0.67,5.66-0.67,8.41c0,11.46,3.57,22.4,10.42,31.86l0.82,1.04
		c0.89,1.04,1.64,1.94,2.23,2.68c3.72,4.32,5.95,7,8.04,10.2c2.38,3.8,4.17,7.82,6.18,13.84c1.94,5.73,2.9,11.46,2.9,17.12
		c0,29.48-24.04,53.52-53.52,53.52c-29.4,0-53.37-24.04-53.37-53.52c0-5.51,0.82-10.79,2.31-15.7l0.6-1.19
		c0.3-0.74,0.45-1.19,0.6-1.71l0.45-1.27c0.74-1.71,1.41-3.27,2.31-4.91l0.15-0.22c0.37-0.89,0.82-1.79,1.34-2.61
		c2.23-3.8,4.91-7.74,8.71-12.73c2.08-2.38,3.8-4.54,5.21-6.85l0.07-0.07v-1.34l1.12-0.22l0.52-0.74c5.14-7,10.35-14.37,12.36-27.39
		l0.3-1.79l9.38,0.07v2.08c0,6.62-0.97,13.1-2.9,19.35l-0.15,0.6c-0.07,0.3-0.15,0.6-0.22,0.82c-0.22,0.82-0.6,1.64-0.89,2.53
		l-0.45,1.12c-0.67,1.56-1.34,3.13-2.01,4.54c-1.79,3.57-4.02,7.37-6.85,11.69c-2.08,3.05-4.24,6.1-6.33,9.01l-2.75,3.72
		c-0.82,1.12-1.64,2.16-2.38,3.28l-0.3,0.52c-3.57,5.95-5.43,12.73-5.43,19.43c0,21.36,17.34,38.7,38.63,38.7
		c21.36,0,38.7-17.34,38.7-38.7c0-6.77-1.86-13.55-5.36-19.43l-0.37-0.6c-1.12-1.64-2.31-3.35-3.5-4.99
		c-2.38-3.2-4.69-6.48-6.92-9.83c-3.2-4.61-5.66-8.71-7.67-12.65l1.56-1.56l-1.79,1.12l-0.3-0.67l-1.71-3.8
		c-0.37-1.04-0.74-2.01-1.12-3.05c-0.3-0.97-0.45-1.49-0.6-2.16c-1.86-6.25-2.75-12.73-2.75-19.13c0-8.78,1.64-17.27,4.84-25.23
		c0-0.07,0.07-0.37,0.22-0.67c1.49-3.35,4.24-7.82,8.26-9.9l2.31-1.12l0.74,2.38c0.82,2.98,2.16,5.95,3.87,8.86
		c7,11.83,19.65,19.2,33.05,19.2c15.18,0,29.03-9.23,35.28-23.45c1.27-2.83,2.08-5.58,2.6-8.26c0.3-1.41,0.45-2.75,0.6-4.09
		c0.15-1.27,0.22-2.53,0.22-3.8s-0.07-2.53-0.22-3.8c-0.15-1.34-0.37-2.75-0.6-4.09c-0.52-2.6-1.34-5.36-2.6-8.11
		c-6.18-14.29-20.02-23.45-35.28-23.45c-5.81,0-11.46,1.34-16.67,3.94c-0.74,0.22-1.19,0.52-1.64,0.74l-1.12,0.52
		c-0.3,0.3-0.67,0.6-1.04,0.82l-0.52,0.37c-0.45,0.22-0.89,0.6-1.34,0.89c-4.54,3.13-8.49,6.4-12.13,9.97
		c-2.98,3.05-5.36,5.66-7.52,8.19c-2.31,2.75-4.54,5.58-6.77,8.49v1.41h-1.04c-1.79,2.75-3.65,5.43-5.51,8.11
		c-4.61,7.07-9.97,15.11-16,22.4c-0.3,0.45-0.67,0.82-1.12,1.27l-0.45,0.6l-8.86,9.23c-10.05,8.86-20.77,13.92-32.9,15.33
		c-0.6,0.15-1.34,0.22-2.16,0.37l-0.45,0.22l-0.3-0.15c-0.37,0-0.67,0.07-0.97,0.07h-0.82c-0.89,0.15-2.16,0.15-3.5,0.15
		c-24.93,0-46.97-17.79-52.18-42.28c-0.52-2.83-0.89-5.51-1.04-8.26l-0.22-3.5l0.07-1.34c0-0.37,0.07-0.82,0.07-1.19
		c0.15-2.83,0.45-4.99,0.89-7.07c0.07-0.6,0.07-0.82,0.15-1.12l0.15-0.6c5.51-24.12,27.32-41.53,52.1-41.53
		c7.96,0,15.63,1.71,22.78,5.14c5.73,2.68,10.79,6.25,15.18,10.72c0.45-2.83,0.67-5.66,0.67-8.56c0-10.42-3.05-20.62-8.86-29.48
		l-1.12-1.64c-1.19-1.64-2.53-3.28-4.02-4.99c-5.88-7.52-12.13-16.08-13.92-23.74c-1.79-5.36-2.75-11.09-2.75-16.9
		c0-6.33,1.12-12.65,3.42-18.68l0.74-1.34l37.29-69.89c2.83-4.09,7-6.4,11.69-6.55c4.54-0.07,8.86,1.86,11.54,5.28l0.89,1.34
		l0.97,1.86L589,77.19c2.53,6.4,3.72,12.58,3.72,19.28c0,5.66-0.89,11.16-2.68,16.45l-0.07,0.52c-1.94,7.67-8.26,16.52-13.55,23.37
		c-2.38,2.61-4.09,4.84-5.51,7l-0.3,0.45c-0.74,1.12-1.56,2.23-2.31,3.28c-4.99,6.92-10.12,13.99-11.61,26.05l-0.22,1.86h-9.08
		v-2.16c0-9.9,2.08-19.35,6.18-28.21c1.79-3.8,4.09-7.82,7.22-12.43c2.38-3.57,4.84-7.15,7.44-10.64l4.09-5.66
		c3.72-6.25,5.58-12.95,5.58-19.87c0-4.61-0.82-9.08-2.31-13.25l-36.25-67.88l-36.62,68.55c-1.34,3.57-2.08,8.11-2.08,12.58
		c0,6.85,1.79,13.62,5.28,19.58c0.15,0.22,0.3,0.37,0.37,0.6c0.45,0.67,1.12,1.56,1.79,2.46c0.6,0.89,1.27,1.71,1.86,2.61
		c1.86,2.6,3.8,5.36,5.81,8.11c4.02,5.73,7.07,10.87,9.3,15.63c0.67,1.27,1.27,2.6,1.79,3.94l0.37,0.37l0.07,0.6
		c0.22,0.52,0.37,1.04,0.52,1.56l0.3,0.89c2.08,6.85,3.2,13.7,3.2,20.39c0,8.71-1.56,17.12-4.69,25.01v1.71h-0.82
		c-2.16,4.17-5.06,7.22-8.19,8.56l-2.08,0.89l-0.74-2.08c-0.52-1.49-1.12-2.83-1.71-4.24c-0.67-1.19-1.34-2.46-2.16-3.72l-0.3-0.6
		c-0.74-1.19-1.49-2.31-2.38-3.35l-0.52-0.67c-0.89-1.12-1.79-2.08-2.68-2.9c-2.23-2.23-4.61-4.09-7.15-5.58
		c-1.27-0.82-2.61-1.49-4.02-2.16c-1.79-0.82-3.72-1.49-5.81-2.08c-3.5-0.97-7.07-1.34-10.35-1.34c-0.97,0-1.79,0-2.68,0.07
		c-0.89,0.07-1.49,0.15-2.08,0.22l-0.3,0.15l-0.37-0.07c-0.6,0.15-1.12,0.22-1.64,0.3l-1.19,0.22c-0.45,0.07-0.82,0.22-1.19,0.3
		c-0.45,0.07-0.82,0.22-1.04,0.3l-0.15,0.15l-0.67,0.07c-0.22,0.07-0.52,0.15-0.74,0.3l-1.12-1.86l0.52,1.94h-0.07l0.07,0.15
		l-0.6,0.37l-0.22-0.07c-0.89,0.3-1.64,0.6-2.46,1.04l-0.6,0.22c-0.3,0.15-0.52,0.22-0.82,0.45l-0.52,0.22
		c-0.22,0.07-0.45,0.22-0.74,0.45l-0.89,0.52c-0.15,0.07-0.37,0.15-0.6,0.3c-0.82,0.52-1.34,0.82-1.79,1.27l-2.31,1.71
		c-0.07,0-0.22,0.15-0.45,0.3c-1.04,0.89-1.86,1.64-2.6,2.46c-0.89,0.82-1.56,1.64-2.23,2.53c-0.89,0.89-1.49,1.79-2.08,2.68
		c-0.74,1.04-1.34,2.01-1.86,2.9c-0.6,1.04-1.04,2.01-1.56,3.05c-1.86,4.02-2.98,8.11-3.35,12.21c-0.07,0.67-0.07,1.34-0.07,2.01
		c-0.07,0.82-0.07,1.34-0.07,1.79c0,1.71,0.07,2.83,0.15,3.87c0.22,4.17,1.19,8.26,2.83,12.21c5.95,14.74,19.95,24.26,35.65,24.34
		c7.59,0,14.81-2.16,20.99-6.1l1.04-0.74c3.05-2.08,5.66-4.09,8.26-6.33l0.82-0.82c1.27-1.12,2.53-2.23,3.72-3.42
		c2.38-2.46,4.84-5.36,7.37-8.56c2.23-2.83,4.47-5.88,7-9.6l0.07,0.07v-1.56h0.97c0.89-1.34,1.79-2.61,2.68-3.95l2.31-3.42
		c4.84-7.29,9.83-14.89,15.41-21.81l10.42-11.02c0.45-0.45,0.67-0.67,0.97-0.82c10.35-9.23,21.81-14.29,34.83-15.41
		c2.31-0.22,4.17-0.3,5.95-0.3c22.7,0,42.95,14.37,50.39,35.8c0.37,0.82,0.6,1.79,0.82,2.68l0.22,0.82c0.22,1.12,0.45,2.01,0.6,2.9
		c0.45,2.53,0.74,5.43,0.97,8.49C653.68,217.49,653.75,218.38,653.75,219.28z"/>
</g>
<text transform="matrix(1 0 0 1 -13.6948 608.5447)" class="st0 st1 st2">CULPERMA</text>
</svg>
