<?xml version="1.0" encoding="utf-8"?>
<!-- Generator: Adobe Illustrator 25.1.0, SVG Export Plug-In . SVG Version: 6.00 Build 0)  -->
<svg version="1.1" id="Capa_1" xmlns="http://www.w3.org/2000/svg" xmlns:xlink="http://www.w3.org/1999/xlink" x="0px" y="0px"
	 viewBox="0 0 1083.69 301.44" style="enable-background:new 0 0 1083.69 301.44;" xml:space="preserve">
<style type="text/css">
	.st0{fill:#FF4F9A;}
</style>
<path class="st0" d="M514,219.55c0.19,4.14,1.83,8.05,4.94,11.72c3.11,3.67,7.2,5.7,12.28,6.07v6.49h-80.46v-6.49
	c3.95,0,7.24-1.6,9.88-4.8c2.63-3.2,4.04-7.53,4.23-12.99V79.81l-57.87,164.02h-6.77L339.25,89.97l2.26,130.14
	c0,2.82,0.89,5.46,2.68,7.9c1.79,2.45,4.09,4.47,6.92,6.07c2.82,1.6,5.83,2.68,9.03,3.25v6.49h-45.73v-6.49
	c5.46,0,9.78-1.55,12.99-4.66c3.2-3.11,4.89-7.38,5.08-12.84V76.42c-1.13-14.86-7.34-22.3-18.63-22.3v-7.9h67.75l43.76,117.72
	l41.78-117.72h64.08v7.62c-2.64,0.38-4.8,0.75-6.49,1.13c-1.69,0.38-3.48,1.18-5.36,2.4c-1.88,1.23-3.29,3.15-4.23,5.79
	c-0.94,2.64-1.51,5.93-1.69,9.88L514,219.55z"/>
<path class="st0" d="M665.03,100.14h32.75v5.93c-4.9,0.38-8.61,1.74-11.15,4.09c-2.54,2.36-4.85,5.88-6.92,10.59l-46.86,121.11
	c-8.85,20.33-17.27,34.82-25.27,43.48c-8,8.65-16.7,13.83-26.11,15.53c-5.46,0.94-11.86,0.75-19.2-0.56
	c-7.34-1.32-13.37-3.86-18.07-7.62c-4.9-3.95-8.05-9.08-9.46-15.39c-1.41-6.31-0.71-12.85,2.12-19.62c2.07-4.9,5.27-8.52,9.6-10.87
	c4.33-2.35,8.7-3.29,13.13-2.82c4.42,0.47,8.61,2.16,12.56,5.08c3.95,2.92,6.59,6.73,7.9,11.43c0.75,3.01,1.93,6.02,3.53,9.03
	c1.6,3.01,3.67,5.65,6.21,7.9c2.54,2.26,5.17,3.62,7.9,4.09c2.73,0.47,5.69-0.85,8.89-3.95c3.2-3.11,6.3-8.14,9.32-15.1
	l-59.28-143.41c-2.26-4.14-4.66-7.2-7.2-9.18c-2.54-1.98-6.07-3.25-10.59-3.81v-5.93h84.41v5.93c-4.71,0.38-7.81,2.07-9.32,5.08
	c-1.51,3.01-1.23,7.25,0.85,12.7l26.54,79.89l31.34-79.61c2.26-6.02,2.63-10.45,1.13-13.27c-1.51-2.82-4.42-4.42-8.75-4.8V100.14z"
	/>
<path class="st0" d="M899.91,219.55c0.18,4.14,1.83,8.05,4.94,11.72c3.11,3.67,7.2,5.7,12.28,6.07v6.49h-80.46v-6.49
	c3.95,0,7.24-1.6,9.88-4.8c2.63-3.2,4.05-7.53,4.23-12.99V79.81l-57.87,164.02h-6.77L725.17,89.97l2.26,130.14
	c0,2.82,0.89,5.46,2.68,7.9c1.79,2.45,4.09,4.47,6.92,6.07c2.82,1.6,5.83,2.68,9.03,3.25v6.49h-45.73v-6.49
	c5.46,0,9.78-1.55,12.99-4.66c3.2-3.11,4.89-7.38,5.08-12.84V76.42c-1.13-14.86-7.34-22.3-18.63-22.3v-7.9h67.75l43.76,117.72
	l41.78-117.72h64.08v7.62c-2.64,0.38-4.8,0.75-6.49,1.13c-1.69,0.38-3.48,1.18-5.36,2.4c-1.88,1.23-3.29,3.15-4.23,5.79
	c-0.94,2.64-1.51,5.93-1.69,9.88L899.91,219.55z"/>
<path class="st0" d="M1050.94,100.14h32.75v5.93c-4.9,0.38-8.61,1.74-11.15,4.09c-2.54,2.36-4.85,5.88-6.92,10.59l-46.86,121.11
	c-8.85,20.33-17.27,34.82-25.27,43.48c-8,8.65-16.7,13.83-26.11,15.53c-5.46,0.94-11.86,0.75-19.2-0.56
	c-7.34-1.32-13.37-3.86-18.07-7.62c-4.9-3.95-8.04-9.08-9.46-15.39c-1.41-6.31-0.71-12.85,2.12-19.62c2.07-4.9,5.27-8.52,9.6-10.87
	c4.33-2.35,8.7-3.29,13.13-2.82c4.42,0.47,8.61,2.16,12.56,5.08c3.95,2.92,6.59,6.73,7.9,11.43c0.75,3.01,1.93,6.02,3.53,9.03
	c1.6,3.01,3.67,5.65,6.21,7.9c2.54,2.26,5.17,3.62,7.9,4.09c2.73,0.47,5.69-0.85,8.89-3.95c3.2-3.11,6.3-8.14,9.32-15.1
	l-59.28-143.41c-2.26-4.14-4.66-7.2-7.2-9.18c-2.54-1.98-6.07-3.25-10.59-3.81v-5.93h84.41v5.93c-4.71,0.38-7.81,2.07-9.32,5.08
	c-1.51,3.01-1.23,7.25,0.85,12.7l26.54,79.89l31.34-79.61c2.26-6.02,2.63-10.45,1.13-13.27c-1.51-2.82-4.42-4.42-8.75-4.8V100.14z"
	/>
<path class="st0" d="M194.37,217.71c1.93-64.47,24.71-123.61,61.8-170.89c-3.77-0.36-7.58-0.54-11.44-0.54
	c-24.17,0-46.64,7.4-65.25,20.08C171.05,38.39,152.53,14.84,128.13,0c-24.4,14.8-42.96,38.3-51.44,66.27
	C58.08,53.64,35.65,46.29,11.53,46.29c-3.9,0-7.71,0.18-11.53,0.54c37.04,47.23,59.87,106.38,61.8,170.8
	c0.09,2.98,0.13,5.95,0.13,8.93c0,3.38-0.05,6.81-0.18,10.15c11.66,2.75,23.59,4.83,35.74,6.09c10.05,1.08,20.27,1.62,30.63,1.62
	c10.36,0,20.58-0.54,30.63-1.62c12.11-1.26,23.99-3.34,35.65-6.09c-0.13-3.34-0.18-6.77-0.18-10.15
	C194.23,223.58,194.28,220.65,194.37,217.71z M139.07,191.64c-3.5,2.21-7.18,4.2-11.03,5.86c-4.22-1.85-8.3-4.01-12.11-6.54
	c-19.33-12.54-33.32-32.71-37.72-56.26c4.08,2.8,8.97,4.38,14.22,4.38c2.06,0,4.08-0.23,6.01-0.72
	c0.09-15.74,4.39-30.54,11.79-43.17c4.66-8.03,10.63-15.2,17.54-21.2c6.91,6,12.83,13.17,17.54,21.2
	c7.4,12.63,11.71,27.43,11.79,43.17c1.88,0.5,3.9,0.72,5.96,0.72c5.56,0,10.72-1.8,14.89-4.87
	C173.56,158.39,159.12,179.1,139.07,191.64z"/>
</svg>
